<svg width="138" height="96" viewBox="0 0 138 96" fill="none" xmlns="http://www.w3.org/2000/svg">
<path d="M119.796 28.016V7.00543L98.304 32.8033H137.298V7.00543L119.796 28.016Z" fill="black"/>
<path d="M135.17 59.9309H134.691L136.022 63.6542L135.915 63.9734C135.755 64.4521 135.649 64.7713 135.277 64.7713C135.117 64.7713 135.011 64.7181 134.957 64.7181L134.904 65.0904C135.064 65.1436 135.224 65.1436 135.383 65.1436C135.915 65.1436 136.181 64.6649 136.34 64.133L137.83 59.8777H137.245L136.181 62.9627L135.17 59.9309ZM131.18 63.6011H131.659V61.5798C131.659 60.9415 131.925 60.25 132.776 60.25C133.415 60.25 133.628 60.6755 133.628 61.367V63.6011H134.106V61.2606C134.106 60.4628 133.734 59.8244 132.83 59.8244C132.085 59.8244 131.765 60.25 131.659 60.5691V59.9309H131.234C131.287 60.25 131.287 60.5159 131.287 60.7819V63.6011H131.18ZM129.584 61.9521C129.584 62.3245 129.584 63.2819 128.468 63.2819C128.042 63.2819 127.723 63.1223 127.723 62.6436C127.723 61.8458 128.68 61.7393 129.425 61.7393H129.531V61.9521H129.584ZM129.638 63.6011H130.064C130.01 63.3351 130.01 63.1223 130.01 62.8032V61.1543C130.01 60.1968 129.638 59.7713 128.733 59.7713C128.414 59.7713 127.935 59.8777 127.67 60.0372V60.4628C127.988 60.25 128.361 60.1436 128.733 60.1436C129.371 60.1436 129.584 60.4628 129.584 61.1011V61.3138H129.478C128.521 61.3138 127.19 61.367 127.19 62.5904C127.19 62.9096 127.35 63.6542 128.414 63.6542C128.893 63.6542 129.371 63.4415 129.584 62.9627V63.6011H129.638ZM126.02 61.7393C126.02 62.4308 125.807 63.2819 124.903 63.2819C124.105 63.2819 123.786 62.4308 123.786 61.7393C123.786 61.0478 124.052 60.1968 124.903 60.1968C125.807 60.1968 126.02 61.0478 126.02 61.7393ZM123.36 65.0904H123.839V62.9627C124.052 63.4415 124.424 63.6542 125.009 63.6542C126.02 63.6542 126.552 62.8032 126.552 61.7393C126.552 60.6224 126.127 59.8244 125.009 59.8244C124.211 59.8244 123.946 60.3564 123.839 60.5691L123.893 59.8777H123.413V65.0904H123.36ZM122.243 63.6011V61.0478C122.243 60.3564 121.817 59.8244 121.073 59.8244C120.488 59.8244 120.062 60.1968 119.903 60.6224C119.796 59.984 119.264 59.8244 118.945 59.8244C118.147 59.8244 117.934 60.3032 117.775 60.5159V59.8777H117.349C117.402 60.1968 117.402 60.4628 117.402 60.7287V63.5479H117.881V61.5266C117.881 60.6224 118.36 60.1968 118.892 60.1968C119.477 60.1968 119.69 60.6224 119.69 61.1543V63.6011H120.169V61.5798C120.169 60.6755 120.647 60.25 121.179 60.25C121.764 60.25 121.977 60.6755 121.977 61.2074V63.6542H122.243V63.6011ZM113.465 61.7393C113.465 60.8883 113.891 60.1968 114.689 60.1968C115.487 60.1968 115.913 60.8883 115.913 61.7393C115.913 62.5904 115.487 63.2819 114.689 63.2819C113.891 63.2819 113.465 62.5904 113.465 61.7393ZM112.934 61.7393C112.934 62.75 113.465 63.6542 114.636 63.6542C115.806 63.6542 116.339 62.75 116.339 61.7393C116.339 60.7287 115.806 59.8244 114.636 59.8244C113.465 59.8244 112.934 60.7287 112.934 61.7393ZM112.136 58.6542C111.87 58.4947 111.284 58.4415 110.966 58.4415C109.423 58.4415 108.412 59.5053 108.412 61.0478C108.412 62.5904 109.37 63.6542 110.966 63.6542C111.284 63.6542 111.87 63.6011 112.136 63.4415L112.082 63.0159C111.817 63.1755 111.284 63.2287 110.966 63.2287C109.635 63.2287 108.944 62.3245 108.944 61.0478C108.944 59.7713 109.688 58.867 110.966 58.867C111.338 58.867 111.764 58.9202 112.082 59.0798L112.136 58.6542ZM104.901 61.7393C104.901 62.4308 104.688 63.2819 103.784 63.2819C102.986 63.2819 102.667 62.4308 102.667 61.7393C102.667 61.0478 102.932 60.1968 103.784 60.1968C104.688 60.1968 104.901 61.0478 104.901 61.7393ZM102.241 65.0904H102.72V62.9627C102.932 63.4415 103.305 63.6542 103.89 63.6542C104.901 63.6542 105.38 62.8032 105.38 61.7393C105.38 60.6224 104.954 59.8244 103.89 59.8244C103.092 59.8244 102.826 60.3564 102.72 60.5691L102.773 59.8777H102.294V65.0904H102.241ZM101.124 59.9309H100.645V61.9521C100.645 62.5904 100.379 63.2819 99.528 63.2819C98.8898 63.2819 98.6768 62.8564 98.6768 62.1649V59.9309H98.1983V62.2712C98.1983 63.0692 98.5703 63.7074 99.4748 63.7074C100.22 63.7074 100.538 63.2819 100.645 62.9627V63.6011H101.071C101.018 63.2819 101.018 63.0159 101.018 62.75V59.9309H101.124ZM94.368 61.7393C94.368 60.8883 94.7933 60.1968 95.5913 60.1968C96.3893 60.1968 96.8145 60.8883 96.8145 61.7393C96.8145 62.5904 96.3893 63.2819 95.5913 63.2819C94.7933 63.2819 94.368 62.5904 94.368 61.7393ZM93.8355 61.7393C93.8355 62.75 94.368 63.6542 95.538 63.6542C96.7088 63.6542 97.2405 62.75 97.2405 61.7393C97.2405 60.7287 96.7088 59.8244 95.538 59.8244C94.368 59.8244 93.8355 60.7287 93.8355 61.7393ZM91.7078 63.6011H92.1863V61.7925C92.1863 61.1543 92.3993 60.3032 93.0908 60.3032C93.1973 60.3032 93.3038 60.3032 93.4103 60.3564V59.8777C93.357 59.8777 93.1973 59.8244 93.0908 59.8244C92.6123 59.8244 92.2928 60.1968 92.1338 60.6224V59.9309H91.6545C91.7078 60.1968 91.7078 60.3564 91.7078 60.7287V63.6011ZM89.952 63.0692C89.7398 63.2287 89.2073 63.2287 88.8885 63.2287C87.5588 63.2287 86.8665 62.3245 86.8665 61.0478C86.8665 59.8244 87.612 58.867 88.8885 58.867C89.3138 58.867 89.793 58.9202 90.165 59.1329L90.2183 58.6542C89.8988 58.4947 89.2605 58.4415 88.8885 58.4415C87.3458 58.4415 86.3348 59.5053 86.3348 61.0478C86.3348 62.5904 87.2925 63.6542 88.8885 63.6542C89.4203 63.6542 89.952 63.5479 90.4313 63.3351V60.8351H88.782V61.2606H89.952V63.0692ZM80.9085 59.9309H80.43L81.7598 63.6542L81.6533 63.9734C81.4943 64.4521 81.3878 64.7713 81.015 64.7713C80.8553 64.7713 80.7495 64.7181 80.6963 64.7181L80.643 65.0904C80.802 65.1436 80.9618 65.1436 81.1215 65.1436C81.6533 65.1436 81.9195 64.6649 82.0793 64.133L83.5688 59.8777H83.0895L82.026 62.9627L80.9085 59.9309ZM79.6853 59.9309H79.26V60.3564C78.9405 59.9309 78.621 59.8777 78.0893 59.8777C77.025 59.8777 76.5465 60.6755 76.5465 61.7925C76.5465 62.5904 76.9193 63.6542 78.0893 63.6542C78.5678 63.6542 78.9405 63.4415 79.2068 62.9096C79.2068 63.9734 79.1003 64.8245 77.9295 64.8245C77.5575 64.8245 77.1315 64.7181 76.866 64.5585L76.8128 65.0372C77.025 65.0904 77.451 65.25 77.9295 65.25C79.2068 65.25 79.632 64.3989 79.632 63.3883V59.9309H79.6853ZM77.0783 61.7393C77.0783 61.0478 77.2913 60.1968 78.1958 60.1968C79.047 60.1968 79.3125 60.8351 79.3125 61.7393C79.3125 62.4308 78.9938 63.1755 78.1958 63.1755C77.3445 63.2287 77.0783 62.484 77.0783 61.7393ZM72.8759 61.7393C72.8759 60.8883 73.3016 60.1968 74.0995 60.1968C74.8975 60.1968 75.3233 60.8883 75.3233 61.7393C75.3233 62.5904 74.8975 63.2819 74.0995 63.2819C73.3016 63.2819 72.8759 62.5904 72.8759 61.7393ZM72.344 61.7393C72.344 62.75 72.8759 63.6542 74.0463 63.6542C75.2168 63.6542 75.7485 62.75 75.7485 61.7393C75.7485 60.7287 75.2168 59.8244 74.0463 59.8244C72.8759 59.8244 72.344 60.7287 72.344 61.7393ZM70.9609 63.6011H71.4396V58.1756H70.9609V63.6011ZM67.0775 61.7393C67.0775 60.8883 67.503 60.1968 68.301 60.1968C69.0989 60.1968 69.5245 60.8883 69.5245 61.7393C69.5245 62.5904 69.0989 63.2819 68.301 63.2819C67.503 63.2819 67.0775 62.5904 67.0775 61.7393ZM66.5455 61.7393C66.5455 62.75 67.0775 63.6542 68.2478 63.6542C69.4181 63.6542 69.9501 62.75 69.9501 61.7393C69.9501 60.7287 69.4181 59.8244 68.2478 59.8244C67.0775 59.8244 66.5455 60.7287 66.5455 61.7393ZM62.7152 63.6011H63.194V61.5798C63.194 60.9415 63.46 60.25 64.3112 60.25C64.9496 60.25 65.1623 60.6755 65.1623 61.367V63.6011H65.6411V61.2606C65.6411 60.4628 65.2688 59.8244 64.3644 59.8244C63.6196 59.8244 63.3005 60.25 63.194 60.5691V59.9309H62.7685C62.8217 60.25 62.8217 60.5159 62.8217 60.7819V63.6011H62.7152ZM58.7255 63.6011H59.2043V61.633C59.2043 60.9947 59.4702 60.25 60.3214 60.25C61.0661 60.25 61.1726 60.7819 61.1726 61.4202V63.6011H61.6513V61.4202C61.6513 60.5159 61.3853 59.8777 60.3746 59.8777C59.8426 59.8777 59.417 60.1968 59.2043 60.5691V58.2287H58.7255V63.6011ZM57.8743 59.984C57.7679 59.9309 57.4487 59.8244 56.9699 59.8244C55.8528 59.8244 55.1612 60.6224 55.1612 61.7393C55.1612 62.75 55.7464 63.6542 56.9168 63.6542C57.2891 63.6542 57.5551 63.6542 57.8743 63.5479L57.8211 63.1223C57.5551 63.2287 57.2891 63.2819 56.9699 63.2819C56.1188 63.2819 55.64 62.5904 55.64 61.7393C55.64 60.8351 56.1188 60.1968 57.0231 60.1968C57.2891 60.1968 57.5551 60.3032 57.8211 60.4096L57.8743 59.984ZM51.9162 61.4734C51.9162 60.8883 52.3418 60.1968 52.9802 60.1968C53.6717 60.1968 53.9377 60.8351 53.9377 61.4734H51.9162ZM54.2037 63.0159C53.9909 63.1755 53.5121 63.2819 53.1929 63.2819C52.3949 63.2819 51.9694 62.6436 51.9694 61.8989H54.4697V61.633C54.4697 60.6224 54.0441 59.8244 52.9802 59.8244C52.0226 59.8244 51.4374 60.6224 51.4374 61.7393C51.4374 62.8564 51.9162 63.6542 53.0865 63.6542C53.4057 63.6542 53.8313 63.6011 54.1505 63.4415V63.0159H54.2037ZM49.4691 63.6011H49.9479V58.9734H51.4374V58.5479H47.9796V58.9734H49.4691V63.6011ZM42.1279 63.6011H42.6067V61.5798C42.6067 60.9415 42.8726 60.25 43.7238 60.25C44.3621 60.25 44.575 60.6755 44.575 61.367V63.6011H45.0537V61.2606C45.0537 60.4628 44.6813 59.8244 43.777 59.8244C43.0322 59.8244 42.713 60.25 42.6067 60.5691V59.9309H42.1811C42.2342 60.25 42.2343 60.5159 42.2343 60.7819V63.6011H42.1279ZM40.9575 58.3351H40.4788V58.9202H40.9575V58.3351ZM40.532 63.6011H41.0108V59.9309H40.532V63.6011ZM36.8613 63.6011H37.3401V61.6862L39.1488 63.6011H39.7872L37.7657 61.5266L39.5744 59.8777H38.9892L37.3401 61.367V58.1223H36.8613V63.6011ZM33.5099 58.9202C34.6802 58.9202 35.2122 60.0372 35.2122 61.1011C35.2122 62.1649 34.6802 63.2819 33.5099 63.2819C32.3396 63.2819 31.8076 62.1649 31.8076 61.1011C31.8076 59.984 32.3396 58.9202 33.5099 58.9202ZM31.3288 61.1011C31.3288 62.6436 32.0735 63.7074 33.5631 63.7074C34.9994 63.7074 35.7442 62.6436 35.7974 61.1011C35.7974 59.7181 35.1058 58.4947 33.5631 58.4947C32.0204 58.4947 31.2756 59.7181 31.3288 61.1011ZM30.5309 59.9309H29.6797V58.867L29.2009 59.0266V59.9309H28.4561V60.3032H29.2541V62.4308C29.2541 63.1223 29.3073 63.6542 30.1052 63.6542C30.3181 63.6542 30.5309 63.6011 30.6372 63.5479L30.584 63.1755C30.4776 63.2287 30.3181 63.2819 30.1585 63.2819C29.7861 63.2819 29.6797 63.016 29.6797 62.6968V60.3032H30.5309V59.9309ZM26.2751 63.6011H26.7539V61.7925C26.7539 61.1543 26.9666 60.3032 27.6582 60.3032C27.7646 60.3032 27.871 60.3032 27.9773 60.3564V59.8777C27.9242 59.8777 27.7646 59.8244 27.6582 59.8244C27.1794 59.8244 26.8602 60.1968 26.7006 60.6224V59.9309H26.2219C26.2751 60.1968 26.2751 60.3564 26.2751 60.7287V63.6011ZM22.8173 61.4734C22.8173 60.8883 23.2428 60.1968 23.8812 60.1968C24.5727 60.1968 24.8387 60.8351 24.8387 61.4734H22.8173ZM25.0515 63.0159C24.8387 63.1755 24.3599 63.2819 24.0407 63.2819C23.2428 63.2819 22.8173 62.6436 22.8173 61.8989H25.3175V61.633C25.3175 60.6224 24.8919 59.8244 23.828 59.8244C22.8704 59.8244 22.2853 60.6224 22.2853 61.7393C22.2853 62.8564 22.764 63.6542 23.9344 63.6542C24.2536 63.6542 24.6791 63.6011 24.9983 63.4415V63.0159H25.0515ZM21.9128 59.9309H21.4341L20.4233 63.1223L19.4658 59.9309H18.9338L17.9231 63.1223L16.9655 59.9309H16.4867L17.6571 63.6011H18.1891L19.1998 60.4096L20.2106 63.6011H20.7425L21.9128 59.9309ZM13.4545 61.4734C13.4545 60.8883 13.88 60.1968 14.5184 60.1968C15.21 60.1968 15.476 60.8351 15.476 61.4734H13.4545ZM15.6888 63.0159C15.476 63.1755 14.9972 63.2819 14.678 63.2819C13.88 63.2819 13.4545 62.6436 13.4545 61.8989H15.9548V61.633C15.9548 60.6224 15.5292 59.8244 14.4653 59.8244C13.5077 59.8244 12.9225 60.6224 12.9225 61.7393C12.9225 62.8564 13.4013 63.6542 14.5716 63.6542C14.8908 63.6542 15.3164 63.6011 15.6356 63.4415V63.0159H15.6888ZM8.29433 63.6011H9.19868C10.8478 63.6011 12.0713 62.9096 12.0713 61.0478C12.0713 59.5585 11.3798 58.5479 9.57105 58.5479H8.3475V63.6011H8.29433ZM8.77313 58.9734H9.51788C10.635 58.9734 11.5394 59.5053 11.5394 61.0478C11.5394 62.5904 10.5818 63.1755 9.19868 63.1755H8.77313V58.9734ZM4.09174 61.7925H1.91064L3.02779 59.0266L4.09174 61.7925ZM0.687103 63.6011H1.16588L1.69786 62.2712H4.25133L4.7833 63.6011H5.31527L3.29377 58.5479H2.7086L0.687103 63.6011Z" fill="black"/>
<path d="M80.3235 19.0266C80.3235 11.4202 86.4945 5.25 94.1017 5.25C101.709 5.25 107.88 11.4202 107.88 19.0266C107.88 19.1329 107.88 19.2394 107.88 19.3457H93.8355V32.75C86.3347 32.6436 80.3235 26.5266 80.3235 19.0266Z" fill="#E2001D"/>
<path d="M128.361 51.5798V44.1862L134.159 51.5266H137.298V39.5054H134.159V46.8458L128.361 39.5054H125.222V51.5266H128.361V51.5798ZM117.668 51.5798H120.807V39.5054H117.668V51.5798ZM106.709 39.5054H103.571V51.5266H106.709V46.3139L110.753 51.5266H114.796L109.583 45.1968L114.37 39.5054H110.486L106.656 44.4521V39.5054H106.709ZM87.186 48.0692C87.5055 48.8138 87.984 49.5053 88.569 50.0904C89.154 50.6756 89.8463 51.1011 90.6435 51.4202C91.4415 51.7394 92.346 51.899 93.357 51.899C94.3147 51.899 95.2185 51.7394 96.0165 51.4202C96.8145 51.1011 97.5593 50.6224 98.145 50.0904C98.73 49.5585 99.2085 48.867 99.528 48.0692C99.8468 47.3245 100.007 46.4734 100.007 45.5692C100.007 44.6649 99.8468 43.8671 99.528 43.0691C99.2085 42.3245 98.73 41.633 98.145 41.0479C97.5593 40.4628 96.8678 40.0373 96.0165 39.7181C95.2185 39.3989 94.3147 39.2394 93.357 39.2394C92.3992 39.2394 91.4948 39.3989 90.6435 39.7181C89.793 40.0373 89.154 40.516 88.569 41.0479C87.984 41.633 87.5055 42.2713 87.186 43.0691C86.8665 43.8138 86.7075 44.6649 86.7075 45.5692C86.7075 46.4734 86.8665 47.2713 87.186 48.0692ZM90.2183 44.2394C90.378 43.8138 90.6442 43.4947 90.963 43.1756C91.2825 42.8564 91.6545 42.6437 92.0273 42.4841C92.4525 42.3245 92.8785 42.2181 93.3038 42.2181C93.7823 42.2181 94.2083 42.3245 94.5803 42.4841C95.0063 42.6437 95.325 42.8564 95.6445 43.1756C95.9633 43.4947 96.2295 43.8138 96.3892 44.2394C96.549 44.6649 96.6555 45.0905 96.6555 45.5692C96.6555 46.0479 96.549 46.4734 96.3892 46.8989C96.2295 47.3245 95.9633 47.6436 95.6445 47.9628C95.325 48.2819 94.953 48.4947 94.5803 48.6542C94.155 48.8138 93.729 48.9203 93.3038 48.9203C92.8253 48.9203 92.3993 48.8138 92.0273 48.6542C91.6013 48.4947 91.2825 48.2819 90.963 47.9628C90.6442 47.6436 90.4313 47.3245 90.2183 46.8989C90.0585 46.4734 89.952 46.0479 89.952 45.5692C89.952 45.0905 90.0585 44.6117 90.2183 44.2394ZM77.5575 42.1649V39.5054H69.3117V42.1649H71.8652V51.5266H75.0037V42.1649H77.5575ZM63.726 46.633C64.5772 46.4202 65.2155 46.0479 65.6943 45.4628C66.1199 44.8777 66.3327 44.133 66.3327 43.2287C66.3327 42.6968 66.2263 42.2181 66.0667 41.7926C65.9071 41.367 65.6411 40.9415 65.3219 40.6223C65.0027 40.3032 64.5772 40.0373 64.0984 39.8245C63.6196 39.6117 63.0344 39.5054 62.3429 39.5054H57.5019V51.5266H60.6406V46.8989L63.6197 51.5266H67.503L63.726 46.633ZM60.6406 41.9522H61.2257C61.8641 41.9522 62.3428 42.0585 62.662 42.3245C62.9812 42.5904 63.1408 42.9628 63.1408 43.4415C63.1408 43.9202 62.9812 44.2925 62.662 44.5586C62.3428 44.8245 61.8641 44.9309 61.2257 44.9309H60.6406V41.9522ZM53.3525 39.5054H46.49V51.5266H53.3525V48.867H49.6287V46.7926H53.1397V44.133H49.6287V42.1117H53.3525V39.5054ZM25.5303 39.5054L29.1477 51.5266H32.3395L34.6802 44.5586L37.0209 51.5266H40.2128L43.8302 39.5054H40.5319L38.4572 47.2713L35.9038 39.5054H33.4035L30.85 47.3245L28.7753 39.5585H25.5303V39.5054ZM22.9236 39.5054H16.1143V51.5266H22.9768V48.867H19.253V46.7926H22.764V44.133H19.253V42.1117H22.9768V39.5054H22.9236ZM2.44263 51.5798H7.07079C7.92195 51.5798 8.6667 51.4202 9.41145 51.1011C10.1563 50.7819 10.7414 50.3564 11.2734 49.7713C11.8054 49.1862 12.2309 48.6011 12.5501 47.8564C12.8693 47.1117 13.0289 46.367 13.0289 45.5692C13.0289 44.7713 12.8693 44.0266 12.5501 43.2819C12.2309 42.5372 11.8054 41.899 11.2734 41.367C10.7414 40.8351 10.103 40.3564 9.41145 40.0373C8.6667 39.7181 7.92195 39.5585 7.12399 39.5585H2.49582V51.5798H2.44263ZM5.58127 42.1649H6.27283C6.80481 42.1649 7.28359 42.2713 7.70917 42.4309C8.13472 42.5904 8.5071 42.8564 8.77312 43.1224C9.03907 43.4415 9.3051 43.7606 9.4647 44.1862C9.6243 44.6117 9.73065 45.0372 9.73065 45.5159C9.73065 45.9947 9.67747 46.4734 9.51787 46.8458C9.35827 47.2713 9.1455 47.5904 8.8263 47.9096C8.5071 48.2288 8.18797 48.4415 7.76235 48.6011C7.33678 48.7607 6.85801 48.867 6.32604 48.867H5.63447V42.1649H5.58127Z" fill="black"/>
<mask id="mask0_291_317" style="mask-type:luminance" maskUnits="userSpaceOnUse" x="0" y="75" width="21" height="16">
<path d="M20.6871 75.75H0.687103V90.75H20.6871V75.75Z" fill="white"/>
</mask>
<g mask="url(#mask0_291_317)">
<mask id="mask1_291_317" style="mask-type:luminance" maskUnits="userSpaceOnUse" x="0" y="75" width="21" height="16">
<path d="M0.687103 75.75H20.6871V90.75H0.687103V75.75Z" fill="white"/>
</mask>
<g mask="url(#mask1_291_317)">
<path fill-rule="evenodd" clip-rule="evenodd" d="M0.687103 75.75V90.75H20.6871V75.75H0.687103Z" fill="#E31D1C"/>
<mask id="mask2_291_317" style="mask-type:luminance" maskUnits="userSpaceOnUse" x="0" y="75" width="21" height="16">
<path fill-rule="evenodd" clip-rule="evenodd" d="M0.687103 75.75V90.75H20.6871V75.75H0.687103Z" fill="white"/>
</mask>
<g mask="url(#mask2_291_317)">
<path fill-rule="evenodd" clip-rule="evenodd" d="M11.9372 79.5H9.4371V81.9998H6.93713V84.5002H9.4371V87H11.9372V84.5002H14.4371V81.9998H11.9372V79.5Z" fill="#F1F9FF"/>
</g>
</g>
</g>
<path d="M28.2662 85.2143C28.4903 85.245 28.732 85.2713 28.9913 85.2938C29.2154 85.3155 29.4703 85.3328 29.756 85.3463C30.046 85.359 30.3514 85.3658 30.6722 85.3658C31.0985 85.3658 31.4369 85.3395 31.6874 85.287C31.9378 85.23 32.129 85.1483 32.2608 85.0433C32.3927 84.933 32.4761 84.7988 32.5113 84.6405C32.5508 84.483 32.5706 84.3 32.5706 84.0938C32.5706 83.931 32.5619 83.784 32.5442 83.652C32.5311 83.5155 32.4959 83.3948 32.4388 83.2898C32.3816 83.184 32.3003 83.094 32.1949 83.019C32.0894 82.9403 31.9444 82.8765 31.7598 82.8285L29.8416 82.3275C29.5384 82.248 29.2813 82.1423 29.0704 82.011C28.8594 81.8745 28.688 81.7035 28.5563 81.4965C28.4288 81.2903 28.3343 81.042 28.2728 80.7518C28.2156 80.457 28.1871 80.112 28.1871 79.7168C28.1871 79.251 28.2574 78.849 28.398 78.5108C28.5386 78.168 28.7364 77.8868 28.9913 77.667C29.2505 77.4473 29.5625 77.2845 29.9273 77.1788C30.2921 77.0738 30.6986 77.0205 31.1468 77.0205C31.5203 77.0205 31.8609 77.043 32.1686 77.0865C32.4806 77.1263 32.7486 77.1705 32.9727 77.2185C33.2364 77.2755 33.4759 77.3393 33.6912 77.4098V78.6293C33.4935 78.603 33.2847 78.5783 33.065 78.5565C32.876 78.5348 32.6629 78.5168 32.4256 78.504C32.1927 78.486 31.951 78.4778 31.7005 78.4778C31.3094 78.4778 30.9886 78.4905 30.7381 78.5168C30.4876 78.5438 30.2899 78.5985 30.1448 78.6818C29.9999 78.7658 29.8988 78.8843 29.8416 79.038C29.7845 79.1918 29.756 79.3958 29.756 79.6508C29.756 79.7918 29.7625 79.917 29.7757 80.0265C29.7933 80.1368 29.8284 80.2335 29.8812 80.3168C29.9383 80.4 30.0174 80.4728 30.1185 80.5343C30.224 80.5958 30.3646 80.6528 30.5404 80.7053L32.3267 81.2198C32.5553 81.2858 32.7574 81.3563 32.9332 81.4305C33.1133 81.501 33.2693 81.5865 33.4012 81.6878C33.533 81.7845 33.6451 81.8985 33.7374 82.0305C33.8341 82.1625 33.911 82.3208 33.9681 82.5053C34.0252 82.6853 34.067 82.8983 34.0934 83.1443C34.1197 83.391 34.1329 83.6738 34.1329 83.9948C34.1329 84.4958 34.0889 84.9263 34.001 85.287C33.9176 85.6425 33.7571 85.935 33.5198 86.1638C33.2825 86.388 32.9552 86.5523 32.5376 86.658C32.1246 86.7675 31.5884 86.823 30.9293 86.823C30.4195 86.823 29.9954 86.7983 29.657 86.7503C29.3231 86.706 29.0506 86.6558 28.8397 86.5988C28.598 86.5328 28.4068 86.4578 28.2662 86.3745V85.2143Z" fill="#242021"/>
<path d="M35.8863 79.6642H37.4485V84.4035C37.4485 84.588 37.4595 84.744 37.4815 84.8715C37.5079 84.999 37.5606 85.1047 37.6397 85.188C37.7188 85.2667 37.8331 85.3267 37.9825 85.3657C38.1319 85.401 38.3318 85.419 38.5823 85.419C38.846 85.419 39.0855 85.4055 39.3008 85.3792C39.5161 85.3485 39.7007 85.3155 39.8545 85.2802C40.0347 85.236 40.1973 85.188 40.3423 85.1355V79.6642H41.9046V86.6182H40.7576L40.573 86.1045C40.327 86.2402 40.0611 86.361 39.7754 86.4667C39.5293 86.5545 39.2437 86.6362 38.9185 86.7105C38.5977 86.7855 38.2571 86.823 37.8968 86.823C37.2156 86.823 36.7102 86.6422 36.3807 86.2822C36.0511 85.9177 35.8863 85.3507 35.8863 84.5812V79.6642Z" fill="#242021"/>
<path d="M45.0028 78.4845C44.8225 78.4845 44.6731 78.471 44.5545 78.4448C44.4403 78.4185 44.3458 78.372 44.2711 78.306C44.2007 78.24 44.1502 78.15 44.1194 78.036C44.0931 77.922 44.0799 77.7743 44.0799 77.5943C44.0799 77.4143 44.0931 77.2665 44.1194 77.1525C44.1502 77.034 44.2007 76.9395 44.2711 76.869C44.3458 76.7985 44.4403 76.7505 44.5545 76.7243C44.6731 76.698 44.8225 76.6845 45.0028 76.6845C45.1829 76.6845 45.3301 76.698 45.4444 76.7243C45.563 76.7505 45.6575 76.7985 45.7279 76.869C45.7981 76.9395 45.8465 77.034 45.8728 77.1525C45.8992 77.2665 45.9124 77.4143 45.9124 77.5943C45.9124 77.7743 45.8992 77.922 45.8728 78.036C45.8465 78.15 45.7981 78.24 45.7279 78.306C45.6575 78.372 45.563 78.4185 45.4444 78.4448C45.3301 78.471 45.1829 78.4845 45.0028 78.4845ZM44.2183 79.6643H45.7872V86.6183H44.2183V79.6643Z" fill="#242021"/>
<path d="M47.6065 83.1383C47.6065 82.479 47.6856 81.9188 47.8438 81.4568C48.0064 80.9955 48.224 80.622 48.4964 80.3363C48.7733 80.0468 49.0963 79.8353 49.4654 79.7033C49.8345 79.572 50.2279 79.506 50.6453 79.506C50.9661 79.506 51.2539 79.5278 51.5089 79.572C51.7637 79.611 51.9812 79.6553 52.1615 79.7033C52.3724 79.761 52.5548 79.8248 52.7086 79.8945V80.976C52.5592 80.9625 52.3966 80.9475 52.2208 80.9295C52.0714 80.9213 51.9022 80.9123 51.7132 80.9033C51.5242 80.8905 51.3265 80.8838 51.1199 80.8838C50.7904 80.8838 50.5069 80.9123 50.2696 80.9693C50.0323 81.0263 49.8389 81.1365 49.6895 81.2985C49.5401 81.4568 49.4303 81.6833 49.3599 81.978C49.2896 82.2675 49.2545 82.65 49.2545 83.1248C49.2545 83.6085 49.294 83.9993 49.3731 84.2978C49.4566 84.597 49.5818 84.8295 49.7489 84.9968C49.9158 85.1595 50.1246 85.269 50.375 85.3268C50.6255 85.3793 50.9222 85.4055 51.265 85.4055C51.4803 85.4055 51.6781 85.401 51.8582 85.392C52.0428 85.3793 52.2031 85.3635 52.3394 85.3463C52.4976 85.3283 52.6405 85.3065 52.7679 85.2803V86.3745C52.6273 86.4533 52.4559 86.5238 52.2537 86.5853C52.0823 86.6385 51.867 86.6865 51.6077 86.7308C51.3485 86.7743 51.0452 86.7968 50.698 86.7968C50.2718 86.7968 49.8697 86.7368 49.4917 86.6183C49.1182 86.5043 48.7908 86.3063 48.5095 86.025C48.2327 85.7438 48.013 85.3703 47.8504 84.9045C47.6878 84.4343 47.6065 83.8455 47.6065 83.1383ZM51.5286 86.6183L51.3506 87.225C51.5089 87.2115 51.6561 87.2228 51.7923 87.258C51.9285 87.297 52.0471 87.3593 52.1482 87.4425C52.2493 87.5258 52.3284 87.6338 52.3855 87.7658C52.447 87.897 52.4779 88.0508 52.4779 88.227C52.4779 88.275 52.4735 88.326 52.4647 88.3785C52.4603 88.431 52.4536 88.488 52.4449 88.5495C52.3966 88.7828 52.3262 88.9785 52.234 89.1368C52.1461 89.2988 52.0274 89.4308 51.878 89.532C51.7286 89.6333 51.5462 89.7053 51.3309 89.7495C51.1156 89.7938 50.8607 89.8155 50.5662 89.8155C50.4036 89.8155 50.2433 89.802 50.085 89.7758C49.9313 89.754 49.7928 89.7255 49.6697 89.6903C49.5248 89.6505 49.3863 89.607 49.2545 89.5583L49.4852 88.6815C49.5555 88.6995 49.6411 88.7168 49.7422 88.734C49.8257 88.7475 49.9268 88.7588 50.0455 88.767C50.1686 88.776 50.3069 88.7805 50.4607 88.7805C50.6848 88.7805 50.8541 88.7543 50.9684 88.7018C51.087 88.6485 51.1639 88.539 51.1991 88.3718C51.2386 88.0598 51.0188 87.9038 50.5399 87.9038C50.4652 87.9038 50.3861 87.906 50.3026 87.9105C50.2235 87.9195 50.1466 87.9278 50.0719 87.9368C49.9883 87.9503 49.9048 87.9608 49.8214 87.9698L50.1773 86.6183H51.5286Z" fill="#242021"/>
<path d="M54.1917 84.6473C54.1917 84.252 54.2489 83.9183 54.3631 83.6453C54.4817 83.373 54.64 83.1533 54.8377 82.986C55.0399 82.8195 55.275 82.6988 55.5431 82.6238C55.8155 82.5488 56.1077 82.512 56.4197 82.512C56.7362 82.512 57.0218 82.5293 57.2767 82.5645C57.536 82.5998 57.7601 82.6395 57.9491 82.683C58.1644 82.7318 58.3599 82.7865 58.5357 82.848V82.2023C58.5357 82.0395 58.5291 81.903 58.5159 81.7935C58.5071 81.6788 58.4896 81.5798 58.4632 81.4965C58.4369 81.4133 58.3995 81.3428 58.3511 81.2858C58.3072 81.2288 58.2523 81.1733 58.1864 81.1208C58.0457 81.0195 57.8524 80.9475 57.6062 80.9033C57.3602 80.859 57.0394 80.8373 56.6438 80.8373C56.3934 80.8373 56.1495 80.8463 55.9122 80.8635C55.6793 80.877 55.4705 80.8943 55.286 80.9168C55.0706 80.9385 54.8663 80.9625 54.6729 80.9888V79.8945C54.8487 79.8248 55.0662 79.761 55.3255 79.7033C55.5452 79.6553 55.8199 79.611 56.1495 79.572C56.4791 79.5278 56.8702 79.506 57.3228 79.506C57.626 79.506 57.8941 79.5188 58.127 79.5458C58.3643 79.5675 58.5731 79.6073 58.7532 79.6643C58.9334 79.7213 59.0916 79.7963 59.2279 79.8885C59.3685 79.9808 59.4938 80.0948 59.6036 80.2313C59.6959 80.3453 59.7728 80.466 59.8343 80.5935C59.8958 80.721 59.9464 80.8703 59.9859 81.042C60.0254 81.213 60.0518 81.411 60.065 81.6353C60.0826 81.855 60.0914 82.1115 60.0914 82.4063V86.6183H58.7664L58.6478 86.1045C58.4544 86.2403 58.2413 86.361 58.0084 86.4668C57.8063 86.5545 57.5689 86.6363 57.2965 86.7105C57.0284 86.7855 56.7317 86.823 56.4065 86.823C56.0111 86.823 55.6727 86.7833 55.3914 86.7038C55.1102 86.625 54.8795 86.4998 54.6993 86.328C54.5235 86.157 54.3938 85.9328 54.3104 85.656C54.2312 85.3793 54.1917 85.0433 54.1917 84.6473ZM55.7936 84.6473C55.7936 84.8408 55.8177 84.9945 55.866 85.1093C55.9144 85.2233 55.9847 85.311 56.077 85.3725C56.1692 85.4295 56.2813 85.467 56.4131 85.4843C56.5494 85.5023 56.7032 85.5113 56.8746 85.5113C57.0987 85.5113 57.3096 85.491 57.5074 85.452C57.7095 85.4078 57.8875 85.3613 58.0413 85.3133C58.2171 85.2563 58.3819 85.1903 58.5357 85.1153V83.9093C58.3951 83.883 58.2435 83.859 58.0809 83.8365C57.9403 83.8148 57.7799 83.7968 57.5997 83.784C57.4239 83.766 57.2372 83.7578 57.0394 83.7578C56.8196 83.7578 56.6307 83.7683 56.4725 83.7908C56.3187 83.808 56.1912 83.85 56.0902 83.916C55.9891 83.9775 55.9144 84.0675 55.866 84.186C55.8177 84.3 55.7936 84.4538 55.7936 84.6473Z" fill="#242021"/>
</svg>
