<svg width="157" height="96" viewBox="0 0 157 96" fill="none" xmlns="http://www.w3.org/2000/svg">
<g clip-path="url(#clip0_291_341)">
<mask id="mask0_291_341" style="mask-type:luminance" maskUnits="userSpaceOnUse" x="0" y="5" width="157" height="61">
<path d="M156.636 5.25H0.636292V65.25H156.636V5.25Z" fill="white"/>
</mask>
<g mask="url(#mask0_291_341)">
<path d="M9.74865 38.4906C8.63978 39.1215 7.38752 39.4369 5.99187 39.4369C4.38591 39.4369 3.09063 38.9303 2.10603 37.917C1.12621 36.8989 0.636292 35.5415 0.636292 33.8448C0.636292 32.1289 1.17878 30.7189 2.26375 29.6148C3.34873 28.5107 4.7396 27.9586 6.43637 27.9586C7.63605 27.9586 8.6517 28.1498 9.48337 28.5322V30.0808C8.5944 29.5216 7.5357 29.242 6.30733 29.242C5.09808 29.242 4.10152 29.6555 3.31766 30.4823C2.53381 31.3092 2.14187 32.399 2.14187 33.7516C2.14187 35.1425 2.50273 36.2251 3.22446 36.9994C3.94618 37.7737 4.92123 38.1608 6.14959 38.1608C6.99559 38.1608 7.71495 37.9983 8.3076 37.6732V34.6693H5.89867V33.4003H9.74865V38.4906Z" fill="#242021"/>
<path d="M16.3517 32.712C16.1175 32.5448 15.7949 32.4611 15.3839 32.4611C14.839 32.4611 14.3897 32.7168 14.036 33.2282C13.6823 33.7349 13.5055 34.404 13.5055 35.2357V39.2506H12.1002V31.3211H13.5055V32.9342H13.5341C13.9356 31.7681 14.6287 31.1849 15.6133 31.1849C15.9335 31.1849 16.1797 31.2208 16.3517 31.2925V32.712Z" fill="#242021"/>
<path d="M24.1664 35.6444H18.6173C18.6412 36.4903 18.873 37.1451 19.3127 37.6088C19.7525 38.0676 20.3666 38.297 21.1553 38.297C22.0442 38.297 22.8592 38.0126 23.6 37.4438V38.6985C22.9022 39.1908 21.9773 39.437 20.8255 39.437C19.6784 39.437 18.7822 39.0737 18.137 38.3472C17.4965 37.6207 17.1762 36.6122 17.1762 35.3217C17.1762 34.1077 17.5275 33.1064 18.2301 32.3177C18.9375 31.529 19.8146 31.1348 20.8613 31.1348C21.8985 31.1348 22.7087 31.4693 23.2918 32.1385C23.8748 32.8028 24.1664 33.7349 24.1664 34.9346V35.6444ZM22.7612 34.5187C22.7564 33.8018 22.5868 33.2474 22.2522 32.8554C21.9176 32.4635 21.4468 32.2675 20.8398 32.2675C20.2806 32.2675 19.7954 32.4755 19.3844 32.8913C18.9782 33.3071 18.7224 33.8495 18.6173 34.5187H22.7612Z" fill="#242021"/>
<path d="M26.2241 31.8732C27.0127 31.3809 27.9232 31.1348 28.9556 31.1348C30.8675 31.1348 31.8234 32.1385 31.8234 34.1459V39.2506H30.4325V38.0246H30.3967C29.847 38.9662 29.0369 39.437 27.9662 39.437C27.1967 39.437 26.5849 39.2291 26.1308 38.8132C25.6768 38.3974 25.4498 37.8358 25.4498 37.1284C25.4498 35.6467 26.3268 34.784 28.0809 34.5402L30.4325 34.2104C30.4325 32.9152 29.8972 32.2675 28.8266 32.2675C27.8754 32.2675 27.0079 32.5877 26.2241 33.2282V31.8732ZM28.5756 35.5224C27.9256 35.6085 27.4763 35.771 27.2278 36.01C26.984 36.2489 26.8622 36.5835 26.8622 37.0137C26.8622 37.3913 26.996 37.6996 27.2636 37.9385C27.5313 38.1776 27.885 38.297 28.3247 38.297C28.9365 38.297 29.4407 38.0819 29.8375 37.6517C30.2342 37.2216 30.4325 36.6815 30.4325 36.0315V35.2715L28.5756 35.5224Z" fill="#242021"/>
<path d="M37.9604 39.1717C37.6545 39.339 37.2411 39.4226 36.7201 39.4226C35.3005 39.4226 34.5908 38.6363 34.5908 37.0639V32.4826H33.2286V31.3211H34.5908V29.4141L35.9888 28.9696V31.3211H37.9604V32.4826H35.9888V36.8129C35.9888 37.3339 36.0772 37.7067 36.2541 37.9314C36.4309 38.156 36.7249 38.2683 37.1359 38.2683C37.4514 38.2683 37.7262 38.1799 37.9604 38.003V39.1717Z" fill="#242021"/>
<path d="M43.6386 37.1642C43.978 37.4605 44.432 37.7043 45.0008 37.8956C45.5696 38.0867 46.1097 38.1823 46.6211 38.1823C48.1792 38.1823 48.9583 37.6279 48.9583 36.519C48.9583 36.2083 48.8747 35.9287 48.7074 35.6801C48.5401 35.4317 48.3107 35.2117 48.0192 35.0206C47.7276 34.8294 47.1803 34.5355 46.3774 34.1387C45.2637 33.5843 44.53 33.0705 44.1763 32.5973C43.8226 32.1194 43.6458 31.5745 43.6458 30.9627C43.6458 30.0402 44.0162 29.3089 44.7571 28.7688C45.4979 28.2287 46.4323 27.9586 47.5603 27.9586C48.6644 27.9586 49.4746 28.0925 49.9908 28.3601V29.9231C49.3216 29.4595 48.4756 29.2276 47.4528 29.2276C46.774 29.2276 46.2196 29.3711 45.7894 29.6579C45.364 29.9399 45.1514 30.3341 45.1514 30.8407C45.1514 31.2901 45.2995 31.6557 45.5959 31.9377C45.8922 32.2197 46.5351 32.6044 47.5245 33.092C48.6142 33.613 49.3765 34.1339 49.8115 34.655C50.2465 35.1759 50.464 35.7614 50.464 36.4114C50.464 37.3865 50.1103 38.1345 49.4029 38.6554C48.6955 39.1765 47.7133 39.4369 46.4562 39.4369C46.0165 39.4369 45.5027 39.3748 44.9148 39.2506C44.3317 39.131 43.9063 38.9805 43.6386 38.7989V37.1642Z" fill="#242021"/>
<path d="M56.2568 39.1717C55.951 39.339 55.5375 39.4226 55.0165 39.4226C53.597 39.4226 52.8872 38.6363 52.8872 37.0639V32.4826H51.525V31.3211H52.8872V29.4141L54.2853 28.9696V31.3211H56.2568V32.4826H54.2853V36.8129C54.2853 37.3339 54.3737 37.7067 54.5505 37.9314C54.7273 38.156 55.0213 38.2683 55.4323 38.2683C55.7478 38.2683 56.0227 38.1799 56.2568 38.003V39.1717Z" fill="#242021"/>
<path d="M58.1137 31.8732C58.9024 31.3809 59.8129 31.1348 60.8453 31.1348C62.7571 31.1348 63.7131 32.1385 63.7131 34.1459V39.2506H62.3222V38.0246H62.2864C61.7367 38.9662 60.9265 39.437 59.8559 39.437C59.0864 39.437 58.4746 39.2291 58.0205 38.8132C57.5665 38.3974 57.3394 37.8358 57.3394 37.1284C57.3394 35.6467 58.2165 34.784 59.9706 34.5402L62.3222 34.2104C62.3222 32.9152 61.7869 32.2675 60.7162 32.2675C59.7651 32.2675 58.8976 32.5877 58.1137 33.2282V31.8732ZM60.4653 35.5224C59.8153 35.6085 59.366 35.771 59.1175 36.01C58.8737 36.2489 58.7518 36.5835 58.7518 37.0137C58.7518 37.3913 58.8856 37.6996 59.1533 37.9385C59.421 38.1776 59.7747 38.297 60.2144 38.297C60.8262 38.297 61.3304 38.0819 61.7272 37.6517C62.1238 37.2216 62.3222 36.6815 62.3222 36.0315V35.2715L60.4653 35.5224Z" fill="#242021"/>
<path d="M70.2946 32.712C70.0604 32.5448 69.7378 32.4611 69.3268 32.4611C68.7819 32.4611 68.3326 32.7168 67.9789 33.2282C67.6252 33.7349 67.4484 34.404 67.4484 35.2357V39.2506H66.0431V31.3211H67.4484V32.9342H67.477C67.8785 31.7681 68.5716 31.1849 69.5562 31.1849C69.8764 31.1849 70.1226 31.2208 70.2946 31.2925V32.712Z" fill="#242021"/>
<path d="M82.884 29.4212H79.6793V39.2506H78.2385V29.4212H75.048V28.1451H82.884V29.4212Z" fill="#242021"/>
<path d="M90.8708 35.6444H85.3215C85.3455 36.4903 85.5773 37.1451 86.0175 37.6088C86.457 38.0676 87.0713 38.297 87.8595 38.297C88.749 38.297 89.5635 38.0126 90.3045 37.4438V38.6985C89.607 39.1908 88.6823 39.437 87.5303 39.437C86.3828 39.437 85.4865 39.0737 84.8415 38.3472C84.201 37.6207 83.8808 36.6122 83.8808 35.3217C83.8808 34.1077 84.2318 33.1064 84.9345 32.3177C85.6418 31.529 86.5192 31.1348 87.5655 31.1348C88.6027 31.1348 89.4135 31.4693 89.9963 32.1385C90.5798 32.8028 90.8708 33.7349 90.8708 34.9346V35.6444ZM89.466 34.5187C89.4608 33.8018 89.2913 33.2474 88.9568 32.8554C88.6223 32.4635 88.1512 32.2675 87.5445 32.2675C86.985 32.2675 86.4998 32.4755 86.0888 32.8913C85.683 33.3071 85.4273 33.8495 85.3215 34.5187H89.466Z" fill="#242021"/>
<path d="M98.22 38.8921C97.6125 39.2553 96.8813 39.437 96.0255 39.437C94.8788 39.437 93.9563 39.0689 93.2588 38.3329C92.5605 37.5968 92.2118 36.6433 92.2118 35.4722C92.2118 34.1722 92.5868 33.1255 93.3375 32.3321C94.0928 31.5338 95.1008 31.1348 96.363 31.1348C97.089 31.1348 97.7108 31.2638 98.2268 31.5219V32.9128C97.6673 32.5017 97.0463 32.2962 96.363 32.2962C95.5598 32.2962 94.905 32.5758 94.398 33.135C93.8963 33.6895 93.6458 34.4303 93.6458 35.3576C93.6458 36.2705 93.882 36.985 94.3553 37.5012C94.833 38.0174 95.4765 38.2755 96.2843 38.2755C96.9675 38.2755 97.6125 38.0509 98.22 37.6016V38.8921Z" fill="#242021"/>
<path d="M106.809 39.2506H105.41V34.6908C105.41 33.0944 104.818 32.2962 103.633 32.2962C103.025 32.2962 102.521 32.5304 102.12 32.9988C101.718 33.4624 101.518 34.0479 101.518 34.7553V39.2506H100.112V27.5141H101.518V32.626H101.546C102.153 31.6318 103.016 31.1348 104.134 31.1348C105.917 31.1348 106.809 32.2126 106.809 34.3682V39.2506Z" fill="#242021"/>
<path d="M115.864 39.2506H114.466V34.741C114.466 33.1111 113.87 32.2962 112.681 32.2962C112.063 32.2962 111.557 32.5256 111.161 32.9845C110.764 33.4433 110.566 34.0241 110.566 34.7267V39.2506H109.16V31.3211H110.566V32.6332H110.594C111.191 31.6342 112.059 31.1348 113.197 31.1348C114.067 31.1348 114.728 31.4144 115.183 31.9736C115.636 32.528 115.864 33.3382 115.864 34.404V39.2506Z" fill="#242021"/>
<path d="M117.677 35.3719C117.677 34.0622 118.043 33.0299 118.774 32.2747C119.506 31.5147 120.497 31.1348 121.75 31.1348C122.94 31.1348 123.872 31.5004 124.546 32.2316C125.224 32.9582 125.564 33.9643 125.564 35.25C125.564 36.5023 125.203 37.5131 124.481 38.2827C123.76 39.0522 122.791 39.437 121.578 39.437C120.392 39.437 119.446 39.0641 118.738 38.3186C118.031 37.5729 117.677 36.5907 117.677 35.3719ZM119.111 35.3288C119.111 36.2418 119.341 36.9611 119.8 37.4869C120.263 38.0126 120.885 38.2755 121.663 38.2755C122.467 38.2755 123.079 38.0198 123.499 37.5084C123.919 36.9922 124.13 36.2537 124.13 35.293C124.13 34.3275 123.919 33.5867 123.499 33.0705C123.079 32.5543 122.467 32.2962 121.663 32.2962C120.875 32.2962 120.251 32.5662 119.792 33.1064C119.339 33.6464 119.111 34.3873 119.111 35.3288Z" fill="#242021"/>
<path d="M127.535 39.2506V27.5141H128.941V39.2506H127.535Z" fill="#242021"/>
<path d="M130.927 35.3719C130.927 34.0622 131.292 33.0299 132.023 32.2747C132.755 31.5147 133.747 31.1348 134.999 31.1348C136.189 31.1348 137.121 31.5004 137.795 32.2316C138.474 32.9582 138.813 33.9643 138.813 35.25C138.813 36.5023 138.452 37.5131 137.731 38.2827C137.009 39.0522 136.041 39.437 134.827 39.437C133.642 39.437 132.695 39.0641 131.988 38.3186C131.28 37.5729 130.927 36.5907 130.927 35.3719ZM132.361 35.3288C132.361 36.2418 132.59 36.9611 133.049 37.4869C133.513 38.0126 134.134 38.2755 134.913 38.2755C135.716 38.2755 136.328 38.0198 136.748 37.5084C137.169 36.9922 137.379 36.2537 137.379 35.293C137.379 34.3275 137.169 33.5867 136.748 33.0705C136.328 32.5543 135.716 32.2962 134.913 32.2962C134.124 32.2962 133.501 32.5662 133.042 33.1064C132.587 33.6464 132.361 34.3873 132.361 35.3288Z" fill="#242021"/>
<path d="M147.674 38.5838C147.674 41.5185 146.25 42.9858 143.401 42.9858C142.417 42.9858 141.561 42.8018 140.835 42.4338V41.0788C141.719 41.5711 142.567 41.8172 143.38 41.8172C145.306 41.8172 146.269 40.8039 146.269 38.7773V37.9385H146.24C145.638 38.9375 144.74 39.437 143.545 39.437C142.551 39.437 141.755 39.0809 141.158 38.3687C140.56 37.6565 140.261 36.7126 140.261 35.5368C140.261 34.1841 140.591 33.1135 141.25 32.3249C141.91 31.5314 142.789 31.1348 143.889 31.1348C144.945 31.1348 145.729 31.5554 146.24 32.3966H146.269V31.3211H147.674V38.5838ZM146.269 34.5331C146.274 33.9212 146.068 33.3955 145.653 32.9558C145.237 32.516 144.725 32.2962 144.118 32.2962C143.353 32.2962 142.759 32.5782 142.333 33.1422C141.907 33.7014 141.695 34.4709 141.695 35.4508C141.695 36.292 141.901 36.9731 142.312 37.494C142.723 38.015 143.268 38.2755 143.946 38.2755C144.63 38.2755 145.189 38.027 145.624 37.5299C146.059 37.0328 146.274 36.4019 146.269 35.6372V34.5331Z" fill="#242021"/>
<path d="M156.636 31.3211L153.037 40.4479C152.368 42.1398 151.424 42.9858 150.205 42.9858C149.857 42.9858 149.557 42.9476 149.309 42.8711V41.638C149.581 41.7431 149.845 41.7957 150.097 41.7957C150.733 41.7957 151.209 41.4229 151.525 40.6773L152.134 39.2362L149.022 31.3211H150.578L152.65 37.279L152.822 37.9314H152.858C152.887 37.7832 152.944 37.5705 153.03 37.2933L155.195 31.3211H156.636Z" fill="#242021"/>
</g>
<mask id="mask1_291_341" style="mask-type:luminance" maskUnits="userSpaceOnUse" x="0" y="75" width="21" height="16">
<path d="M20.6363 75.75H0.636292V90.75H20.6363V75.75Z" fill="white"/>
</mask>
<g mask="url(#mask1_291_341)">
<mask id="mask2_291_341" style="mask-type:luminance" maskUnits="userSpaceOnUse" x="0" y="75" width="21" height="16">
<path fill-rule="evenodd" clip-rule="evenodd" d="M0.636292 75.75H20.6363V90.75H0.636292V75.75Z" fill="white"/>
</mask>
<g mask="url(#mask2_291_341)">
<path fill-rule="evenodd" clip-rule="evenodd" d="M0.636292 75.75H20.6363V90.75H0.636292V75.75Z" fill="#E31D1C"/>
<path fill-rule="evenodd" clip-rule="evenodd" d="M10.0213 78.5925L9.39015 78.9735L9.53385 78.2302L9.00825 77.6738L9.72015 77.643L10.0213 76.9492L10.3226 77.643H11.0332L10.5082 78.231L10.6663 78.9743L10.0213 78.5925ZM5.02263 81.7545L3.222 82.7235L3.63263 80.8328L2.13263 79.4167L4.16388 79.3403L5.02263 77.574L5.88138 79.3403H7.90822L6.41138 80.8328L6.86138 82.7235L5.022 81.7553L5.02263 81.7545ZM11.2714 81.0923L10.6401 81.474L10.7839 80.73L10.2583 80.1735L10.9701 80.1428L11.2714 79.4497L11.5726 80.1428H12.2833L11.7583 80.7307L11.9164 81.4748L11.2714 81.0923ZM10.6464 83.5928L10.0151 83.9737L10.1589 83.2297L9.63322 82.674L10.3451 82.6433L10.6464 81.9495L10.9476 82.6433H11.6582L11.1332 83.2305L11.2914 83.9745L10.6464 83.5928ZM8.7714 85.4678L8.14012 85.8487L8.2839 85.1047L7.75822 84.549L8.47012 84.5183L8.7714 83.8245L9.0726 84.5183H9.78322L9.25822 85.1055L9.4164 85.8495L8.7714 85.4678Z" fill="#FECA00"/>
</g>
</g>
<path d="M31.8079 88.4348C31.5047 88.4348 31.2016 88.4063 30.8983 88.3485C30.5995 88.2915 30.3139 88.1925 30.0414 88.0523C29.7733 87.9113 29.5228 87.7223 29.2899 87.4853C29.057 87.2438 28.8548 86.94 28.6834 86.5755C28.5121 86.2065 28.378 85.7693 28.2814 85.2638C28.1847 84.7583 28.1363 84.1673 28.1363 83.4908C28.1363 82.8405 28.1913 82.2713 28.3012 81.783C28.411 81.291 28.5582 80.8673 28.7428 80.511C28.9273 80.1555 29.1427 79.863 29.3888 79.6343C29.6349 79.4018 29.8942 79.2173 30.1666 79.0808C30.439 78.9443 30.7159 78.8498 30.9972 78.7973C31.2784 78.7403 31.5487 78.7118 31.8079 78.7118C32.2474 78.7118 32.6297 78.7335 32.9549 78.7778C33.2801 78.8213 33.5526 78.87 33.7723 78.9225C34.0272 78.984 34.2448 79.0545 34.4249 79.1333V80.2673C34.2448 80.2538 34.0514 80.241 33.8449 80.2275C33.6691 80.2185 33.4669 80.2103 33.2384 80.2013C33.0142 80.1878 32.7792 80.1818 32.533 80.1818C32.3089 80.1818 32.0848 80.19 31.8607 80.208C31.641 80.2253 31.4278 80.2718 31.2213 80.346C31.0192 80.4165 30.8302 80.5223 30.6544 80.6625C30.4786 80.8035 30.3248 80.997 30.193 81.243C30.0655 81.4845 29.9644 81.7875 29.8897 82.1528C29.8195 82.5173 29.7843 82.959 29.7843 83.4773C29.7843 84.0225 29.8216 84.4883 29.8963 84.8753C29.971 85.2615 30.0743 85.5848 30.2062 85.8435C30.338 86.103 30.4918 86.3078 30.6676 86.457C30.8434 86.6063 31.0345 86.7203 31.2411 86.7998C31.4476 86.8748 31.663 86.9228 31.8871 86.9445C32.1112 86.9625 32.3353 86.9708 32.5594 86.9708C32.8495 86.9708 33.1132 86.967 33.3505 86.958C33.5878 86.949 33.7899 86.94 33.9569 86.9318C34.1547 86.9183 34.3327 86.9055 34.4908 86.892V88.026C34.2975 88.1048 34.069 88.173 33.8053 88.23C33.5767 88.2825 33.2955 88.329 32.9615 88.3688C32.632 88.4123 32.2474 88.4348 31.8079 88.4348Z" fill="#242021"/>
<path d="M36.2509 78.0262H37.8131V81.6517C38.046 81.5632 38.2965 81.4822 38.5645 81.4072C38.7931 81.3457 39.0546 81.2887 39.349 81.2362C39.6478 81.1837 39.9554 81.1567 40.2718 81.1567C40.5883 81.1567 40.8739 81.192 41.1288 81.2625C41.3881 81.3285 41.6056 81.4492 41.7814 81.6247C41.9615 81.7965 42.1 82.0312 42.1966 82.3305C42.2933 82.6252 42.3417 83.0025 42.3417 83.4645V88.2697H40.7728V83.6557C40.7728 83.4705 40.7596 83.3107 40.7332 83.1742C40.7069 83.0332 40.6498 82.9192 40.5619 82.8315C40.4784 82.7392 40.3553 82.671 40.1927 82.6267C40.0345 82.5832 39.8236 82.5615 39.5599 82.5615C39.349 82.5615 39.1402 82.5742 38.9337 82.6005C38.7316 82.6267 38.547 82.656 38.38 82.6867C38.1823 82.7212 37.9933 82.761 37.8131 82.8052V88.2697H36.2509V78.0262Z" fill="#242021"/>
<path d="M45.4201 80.1353C45.2399 80.1353 45.0905 80.1225 44.9718 80.0955C44.8576 80.0692 44.7631 80.0235 44.6884 79.9575C44.618 79.8915 44.5675 79.8015 44.5367 79.6875C44.5104 79.5728 44.4972 79.4258 44.4972 79.2458C44.4972 79.065 44.5104 78.918 44.5367 78.804C44.5675 78.6855 44.618 78.591 44.6884 78.5205C44.7631 78.45 44.8576 78.402 44.9718 78.375C45.0905 78.3487 45.2399 78.336 45.4201 78.336C45.6002 78.336 45.7475 78.3487 45.8617 78.375C45.9803 78.402 46.0748 78.45 46.1452 78.5205C46.2155 78.591 46.2638 78.6855 46.2902 78.804C46.3166 78.918 46.3297 79.065 46.3297 79.2458C46.3297 79.4258 46.3166 79.5728 46.2902 79.6875C46.2638 79.8015 46.2155 79.8915 46.1452 79.9575C46.0748 80.0235 45.9803 80.0692 45.8617 80.0955C45.7475 80.1225 45.6002 80.1353 45.4201 80.1353ZM44.6357 81.315H46.2045V88.2698H44.6357V81.315Z" fill="#242021"/>
<path d="M48.4984 81.315H49.6453L49.8365 81.8295C50.0782 81.6975 50.3419 81.579 50.6275 81.4732C50.8736 81.3855 51.1571 81.3045 51.4779 81.2295C51.7987 81.1552 52.1415 81.1177 52.5062 81.1177C53.1918 81.1177 53.6971 81.2977 54.0223 81.6577C54.3519 82.014 54.5167 82.5742 54.5167 83.3392V88.2697H52.9545V83.5305C52.9545 83.3497 52.9413 83.196 52.9149 83.0685C52.8929 82.9372 52.8424 82.8315 52.7633 82.752C52.6842 82.6687 52.57 82.6072 52.4205 82.5675C52.2711 82.5285 52.0711 82.5082 51.8206 82.5082C51.557 82.5082 51.3175 82.5262 51.1021 82.5615C50.8868 82.5922 50.7022 82.6252 50.5484 82.6597C50.3683 82.704 50.2057 82.752 50.0607 82.8052V88.2697H48.4984V81.315Z" fill="#242021"/>
<path d="M56.4416 86.2987C56.4416 85.9035 56.4986 85.569 56.6129 85.2967C56.7316 85.0245 56.8898 84.8047 57.0875 84.6375C57.2897 84.4702 57.5248 84.3495 57.7928 84.2752C58.0653 84.2002 58.3576 84.1627 58.6696 84.1627C58.9859 84.1627 59.2716 84.1807 59.5265 84.216C59.7858 84.2505 60.0099 84.2902 60.1988 84.3345C60.4142 84.3825 60.6098 84.4372 60.7856 84.4995V83.853C60.7856 83.6902 60.779 83.5545 60.7658 83.4442C60.757 83.3302 60.7394 83.2312 60.713 83.148C60.6866 83.064 60.6493 82.9942 60.601 82.9372C60.557 82.8795 60.5021 82.8247 60.4361 82.7722C60.2955 82.671 60.1022 82.5982 59.8561 82.5547C59.61 82.5105 59.2892 82.4887 58.8937 82.4887C58.6432 82.4887 58.3993 82.4977 58.162 82.515C57.9291 82.5285 57.7203 82.5457 57.5358 82.5675C57.3204 82.59 57.1161 82.614 56.9228 82.6402V81.546C57.0985 81.4755 57.3161 81.4117 57.5753 81.3547C57.7951 81.3067 58.0697 81.2625 58.3993 81.2227C58.7289 81.1792 59.12 81.1567 59.5727 81.1567C59.8759 81.1567 60.1439 81.1702 60.3768 81.1965C60.6141 81.219 60.8229 81.258 61.0031 81.315C61.1832 81.3727 61.3415 81.447 61.4777 81.5392C61.6183 81.6315 61.7435 81.7462 61.8534 81.882C61.9457 81.9967 62.0226 82.1175 62.0841 82.245C62.1456 82.3725 62.1962 82.5217 62.2358 82.6927C62.2753 82.8645 62.3016 83.0625 62.3148 83.286C62.3324 83.5057 62.3412 83.763 62.3412 84.0577V88.2697H61.0163L60.8976 87.7552C60.7043 87.8917 60.4911 88.0125 60.2582 88.1182C60.056 88.206 59.8187 88.287 59.5463 88.362C59.2782 88.437 58.9816 88.4737 58.6564 88.4737C58.2609 88.4737 57.9225 88.4347 57.6413 88.3552C57.36 88.2765 57.1293 88.1512 56.9491 87.9795C56.7734 87.8085 56.6437 87.5842 56.5602 87.3075C56.4811 87.0307 56.4416 86.694 56.4416 86.2987ZM58.0433 86.2987C58.0433 86.4922 58.0675 86.646 58.1159 86.76C58.1642 86.8747 58.2345 86.9625 58.3268 87.024C58.4191 87.081 58.5311 87.1185 58.663 87.1357C58.7992 87.1537 58.953 87.162 59.1244 87.162C59.3485 87.162 59.5595 87.1425 59.7572 87.1027C59.9594 87.0592 60.1373 87.0127 60.2912 86.9647C60.467 86.907 60.6317 86.8417 60.7856 86.7667V85.5607C60.6449 85.5337 60.4933 85.5097 60.3307 85.488C60.1901 85.4662 60.0297 85.4482 59.8495 85.4355C59.6737 85.4175 59.4869 85.4085 59.2892 85.4085C59.0695 85.4085 58.8805 85.4197 58.7223 85.4415C58.5685 85.4595 58.4411 85.5007 58.34 85.5667C58.2389 85.6282 58.1642 85.719 58.1159 85.8375C58.0675 85.9515 58.0433 86.1052 58.0433 86.2987Z" fill="#242021"/>
</g>
<defs>
<clipPath id="clip0_291_341">
<rect width="156.75" height="96" fill="white"/>
</clipPath>
</defs>
</svg>
