<svg width="115" height="96" viewBox="0 0 115 96" fill="none" xmlns="http://www.w3.org/2000/svg">
<g clip-path="url(#clip0_291_686)">
<mask id="mask0_291_686" style="mask-type:luminance" maskUnits="userSpaceOnUse" x="0" y="5" width="115" height="61">
<path d="M114.261 5.25H0.292969V65.25H114.261V5.25Z" fill="white"/>
</mask>
<g mask="url(#mask0_291_686)">
<path d="M93.5063 36.4781C93.5265 41.8103 91.3373 45.8377 86.7308 48.4506C84.7043 49.5997 82.476 50.0053 80.154 49.8368C78.2228 49.6967 76.719 48.0893 76.5705 46.0667C76.4183 43.9811 77.019 42.0558 77.8508 40.1945C79.7543 35.9317 82.5045 32.2475 85.7093 28.8865C86.3768 28.1863 87.1125 27.551 87.7815 26.8522C88.1423 26.4761 88.4033 26.5197 88.7738 26.8364C91.7205 29.3552 93.3038 32.54 93.5063 36.4781Z" fill="#288EF8"/>
<path d="M104.411 40.1603C102.602 37.3784 100.82 34.6371 99.039 31.8959C98.9992 31.9047 98.9595 31.9136 98.9197 31.9225C98.9197 32.1359 98.9197 32.3493 98.9197 32.5627C98.9197 37.4765 98.91 42.3902 98.934 47.3039C98.9362 47.8532 98.775 48.0032 98.2575 47.9561C97.6995 47.9051 97.1355 47.9759 96.5752 47.8605C95.6145 47.6627 95.0115 47.0891 94.842 46.1285C94.7872 45.8204 94.7707 45.5019 94.7707 45.1881C94.767 38.8994 94.7752 32.6107 94.755 26.322C94.7527 25.7723 94.8832 25.6599 95.4427 25.6002C98.7322 25.2497 100.619 27.1724 102.211 29.6333C104.814 33.654 107.423 37.67 110.056 41.729C110.204 41.4975 110.14 41.2529 110.14 41.0296C110.144 36.1158 110.151 31.202 110.132 26.2883C110.131 25.7793 110.227 25.5452 110.785 25.6148C111.208 25.6675 111.642 25.6154 112.068 25.646C113.388 25.7405 114.118 26.48 114.193 27.8053C114.231 28.4794 114.248 29.1555 114.248 29.8307C114.253 35.6461 114.245 41.4615 114.261 47.2769C114.262 47.7807 114.16 47.9219 113.611 47.9705C110.854 48.2151 108.881 46.9965 107.413 44.7869C106.404 43.2695 105.428 41.7303 104.411 40.1603Z" fill="#3B4856"/>
<path d="M17.7975 40.607C18.061 45.0871 15.1447 47.2639 11.1626 47.9701C7.5552 48.6099 4.09721 47.9736 0.702938 46.7535C0.314332 46.6138 0.253257 46.4065 0.31241 46.0523C0.508916 44.8759 1.0465 44.4147 2.24062 44.4528C3.44551 44.4913 4.5578 44.9833 5.73081 45.1875C7.35046 45.4694 8.95943 45.5349 10.5294 44.9723C11.7197 44.5458 12.6679 43.8351 13.0225 42.5311C13.327 41.4112 13.0269 40.4923 12.133 39.7621C11.0701 38.8938 9.81173 38.4104 8.544 37.9475C6.98469 37.3781 5.35852 36.9827 3.89011 36.1773C2.58346 35.4606 1.40033 34.6081 0.961028 33.0811C0.353654 30.97 1.27004 28.528 3.14612 27.1939C4.46505 26.2561 5.96447 25.8172 7.55363 25.6669C10.5987 25.3789 13.496 26.0506 16.3419 27.0505C16.6771 27.1683 16.7885 27.3103 16.7222 27.6866C16.5035 28.9289 16.021 29.3533 14.756 29.2996C13.4641 29.2446 12.2624 28.7267 10.9919 28.5508C9.69068 28.3707 8.39753 28.2871 7.10722 28.6206C6.62489 28.7453 6.16381 28.9147 5.75834 29.2087C4.517 30.1092 4.55377 31.7072 5.85827 32.519C7.08846 33.2845 8.47095 33.7033 9.83138 34.1637C11.5326 34.7393 13.2743 35.2224 14.7994 36.2149C16.3836 37.246 17.5918 38.552 17.7975 40.607Z" fill="#3B4856"/>
<path d="M73.1036 27.0409C76.641 24.1825 80.544 23.3761 84.855 24.7159C85.227 24.8313 85.449 24.6985 85.707 24.5234C88.2323 22.8111 90.8963 21.3737 93.8183 20.4537C94.131 20.3552 94.4363 20.1898 94.9035 20.2723C94.4633 20.5379 94.1033 20.7542 93.7448 20.9723C89.0543 23.8235 84.5955 26.9819 80.706 30.8837C78.5025 33.0943 76.5375 35.4954 75.0743 38.272C73.103 42.011 72.1124 45.8896 73.5063 50.25C71.8812 48.9694 70.7789 47.5303 70.3613 45.6364C69.8978 43.5344 70.414 41.5766 71.3138 39.6856C71.7073 38.8586 72.2147 38.0954 72.7438 37.2455C72.209 37.4774 71.7734 37.9561 70.904 39.2922C70.4156 40.0427 69.9732 40.8232 69.5093 41.5916C67.837 38.0235 68.1118 31.3813 73.1036 27.0409Z" fill="#288EF6"/>
<path d="M30.3319 37.3288C28.3648 37.5107 26.4499 37.3842 24.5369 37.414C23.2208 37.4345 23.2166 37.418 23.2217 38.7434C23.2268 40.0949 23.2458 41.4461 23.2493 42.7976C23.2515 43.6559 23.7202 44.166 24.4622 44.4899C25.4318 44.913 26.4563 45.0122 27.4976 45.0129C29.7057 45.0145 31.9139 45.0246 34.1218 45.0039C34.5623 44.9998 34.6959 45.1007 34.6652 45.565C34.5692 47.0127 33.9044 47.888 32.4935 47.912C29.5499 47.9619 26.5914 48.1463 23.6723 47.5461C23.299 47.4694 22.9285 47.3664 22.5677 47.2432C20.2105 46.4375 19.0845 44.8816 19.0718 42.3754C19.058 39.6489 19.0687 36.9223 19.0687 34.1957C19.0687 32.4381 19.061 30.6804 19.0707 28.9229C19.0823 26.8406 20.1064 25.6964 22.1902 25.661C25.9516 25.5968 29.7148 25.6364 33.4772 25.6164C33.8594 25.6144 33.9247 25.7619 33.9083 26.0939C33.8315 27.6433 33.065 28.4579 31.4872 28.4853C28.9421 28.5296 26.3957 28.5216 23.8501 28.5004C23.3481 28.4962 23.1964 28.6165 23.2079 29.132C23.243 30.7086 23.2475 32.2872 23.2063 33.8635C23.1916 34.4249 23.3892 34.5217 23.8943 34.5168C26.3726 34.493 28.8512 34.5059 31.3296 34.506C32.187 34.5061 32.187 34.5062 32.0952 35.336C31.9709 36.4585 31.4933 37.012 30.3319 37.3288Z" fill="#3B4856"/>
<path d="M68.0902 26.4405C68.5335 26.5813 69.0781 26.4907 68.9848 27.2106C68.8434 28.3009 68.4525 28.8199 67.5708 28.8882C66.7799 28.9494 65.9981 28.8406 65.2222 28.6885C63.9755 28.4441 62.7037 28.3192 61.46 28.5406C59.3642 28.9138 58.0637 30.3481 57.2729 32.2038C55.8885 35.4521 55.8998 38.7424 57.4349 41.941C58.7274 44.6344 60.806 45.6814 63.7707 45.3445C64.8876 45.2176 65.985 44.936 67.1153 44.9234C68.3811 44.9093 68.9471 45.4549 68.9833 46.7055C68.9901 46.9425 68.9835 47.128 68.6857 47.2117C65.3983 48.1359 62.0825 48.7141 58.7273 47.6433C54.6668 46.3473 51.7379 42.4882 51.4296 38.1547C51.1676 34.4727 52.0784 31.1857 54.7761 28.5418C56.6729 26.6829 58.988 25.7501 61.6313 25.6265C63.8111 25.5247 65.9384 25.8639 68.0902 26.4405Z" fill="#3B4856"/>
<path d="M36.3769 30.2217C38.8316 26.7281 42.2361 25.4047 46.3451 25.6289C48.1276 25.7261 49.8615 26.1003 51.5836 26.5538C51.9328 26.6456 51.9932 26.8013 51.9886 27.1104C51.9699 28.3484 51.44 28.8782 50.2166 28.8995C49.2616 28.916 48.3398 28.6951 47.4075 28.5515C44.0497 28.0341 41.815 29.1065 40.4067 31.9275C40.013 32.7161 39.7441 33.5489 39.5793 34.4119C39.085 37.0002 39.2614 39.5222 40.4411 41.9123C41.7711 44.6067 43.7738 45.6607 46.7602 45.3451C47.9232 45.2222 49.063 44.9079 50.2409 44.9243C51.4699 44.9414 52.0609 45.5914 51.9881 46.809C51.9763 47.0062 51.9537 47.1436 51.7285 47.2066C48.4195 48.1316 45.0689 48.768 41.7102 47.6147C37.4946 46.1672 35.2088 43.0241 34.5329 38.7096C34.0603 35.6924 34.6612 32.8453 36.3769 30.2217Z" fill="#3B4856"/>
<path d="M73.2944 36.345C73.3172 36.4142 73.3045 36.4958 73.2567 36.6041C73.1967 36.6226 73.1717 36.6143 73.1301 36.5703C73.162 36.4754 73.2105 36.4164 73.2944 36.345Z" fill="#0F355C"/>
<path d="M73.3321 36.335C73.3582 36.3052 73.3838 36.2749 73.4095 36.2446C73.4043 36.2797 73.3992 36.3148 73.3621 36.3412C73.33 36.3326 73.3321 36.335 73.3321 36.335Z" fill="#0F355C"/>
<path d="M72.9992 36.7149C72.9997 36.6335 73.0267 36.5994 73.0874 36.5528C73.1324 36.5495 73.1513 36.5645 73.1959 36.6052C73.2148 36.6764 73.1946 36.715 73.1328 36.7642C73.0756 36.7732 73.0468 36.7646 72.9992 36.7149Z" fill="#0F355C"/>
<path d="M73.0746 36.7538C73.0981 36.8181 73.0821 36.8495 73.0298 36.8801C72.9685 36.8902 72.9337 36.8959 72.9087 36.8497C72.906 36.7615 72.9137 36.7304 72.9611 36.689C73.0019 36.6911 73.0232 36.7083 73.0746 36.7538Z" fill="#0F355C"/>
<path d="M72.7733 37.0238C72.7925 36.9387 72.8219 36.8929 72.8848 36.8224C72.9183 36.7978 72.9458 36.8558 72.9746 36.8702C72.9756 36.9334 72.9479 36.9823 72.89 37.0609C72.8343 37.0814 72.8088 37.0723 72.7733 37.0238Z" fill="black"/>
<path d="M72.8365 37.0633C72.8086 37.1226 72.7573 37.1547 72.706 37.1868C72.6979 37.1342 72.6897 37.0815 72.7225 37.0067C72.7799 37.0017 72.7965 37.0189 72.8365 37.0633Z" fill="black"/>
</g>
<mask id="mask1_291_686" style="mask-type:luminance" maskUnits="userSpaceOnUse" x="0" y="75" width="21" height="16">
<path d="M20.293 75.75H0.292969V90.75H20.293V75.75Z" fill="white"/>
</mask>
<g mask="url(#mask1_291_686)">
<mask id="mask2_291_686" style="mask-type:luminance" maskUnits="userSpaceOnUse" x="0" y="75" width="21" height="16">
<path d="M0.292969 75.75H20.293V90.75H0.292969V75.75Z" fill="white"/>
</mask>
<g mask="url(#mask2_291_686)">
<path fill-rule="evenodd" clip-rule="evenodd" d="M0.292969 75.75V90.75H20.293V75.75H0.292969Z" fill="#009933"/>
<mask id="mask3_291_686" style="mask-type:luminance" maskUnits="userSpaceOnUse" x="0" y="75" width="21" height="16">
<path fill-rule="evenodd" clip-rule="evenodd" d="M0.292969 75.75V90.75H20.293V75.75H0.292969Z" fill="white"/>
</mask>
<g mask="url(#mask3_291_686)">
<g filter="url(#filter0_d_291_686)">
<path fill-rule="evenodd" clip-rule="evenodd" d="M10.2472 78.0652L17.8735 83.3797L10.1429 88.356L2.67352 83.277L10.2472 78.0652Z" fill="#FFD221"/>
<path fill-rule="evenodd" clip-rule="evenodd" d="M10.2472 78.0652L17.8735 83.3797L10.1429 88.356L2.67352 83.277L10.2472 78.0652Z" fill="url(#paint0_linear_291_686)"/>
</g>
<path fill-rule="evenodd" clip-rule="evenodd" d="M10.2928 86.4998C11.1217 86.4998 11.9165 86.1705 12.5026 85.5847C13.0886 84.999 13.4179 84.204 13.4179 83.3752C13.4179 82.5465 13.0886 81.7515 12.5026 81.165C11.9165 80.5793 11.1217 80.25 10.2928 80.25C9.46402 80.25 8.66917 80.5793 8.08312 81.165C7.49709 81.7515 7.16785 82.5465 7.16785 83.3752C7.16785 84.204 7.49709 84.999 8.08312 85.5847C8.66917 86.1705 9.46402 86.4998 10.2928 86.4998Z" fill="#2E42A5"/>
<mask id="mask4_291_686" style="mask-type:luminance" maskUnits="userSpaceOnUse" x="7" y="80" width="7" height="7">
<path fill-rule="evenodd" clip-rule="evenodd" d="M10.2928 86.4998C11.1217 86.4998 11.9165 86.1705 12.5026 85.5847C13.0886 84.999 13.4179 84.204 13.4179 83.3752C13.4179 82.5465 13.0886 81.7515 12.5026 81.165C11.9165 80.5793 11.1217 80.25 10.2928 80.25C9.46402 80.25 8.66917 80.5793 8.08312 81.165C7.49709 81.7515 7.16785 82.5465 7.16785 83.3752C7.16785 84.204 7.49709 84.999 8.08312 85.5847C8.66917 86.1705 9.46402 86.4998 10.2928 86.4998Z" fill="white"/>
</mask>
<g mask="url(#mask4_291_686)">
<path fill-rule="evenodd" clip-rule="evenodd" d="M9.28035 84.8565L9.141 84.9292L9.16725 84.774L9.05475 84.6645L9.21097 84.6412L9.28035 84.5002L9.3504 84.6412L9.50662 84.6645L9.39352 84.774L9.41977 84.9292L9.28035 84.8565ZM10.5304 84.8565L10.391 84.9292L10.4173 84.774L10.3048 84.6645L10.461 84.6412L10.5304 84.5002L10.6003 84.6412L10.7566 84.6645L10.6435 84.774L10.6697 84.9292L10.5304 84.8565ZM10.5304 85.6065L10.391 85.6792L10.4173 85.524L10.3048 85.4145L10.461 85.3912L10.5304 85.2502L10.6003 85.3912L10.7566 85.4145L10.6435 85.524L10.6697 85.6792L10.5304 85.6065ZM9.9054 82.9815L9.76597 83.0542L9.79222 82.899L9.67972 82.7895L9.83602 82.7662L9.9054 82.6252L9.97537 82.7662L10.1316 82.7895L10.0185 82.899L10.0447 83.0542L9.9054 82.9815ZM9.9054 84.231L9.76597 84.3045L9.79222 84.1492L9.67972 84.039L9.83602 84.0165L9.9054 83.8747L9.97537 84.0165L10.1316 84.039L10.0185 84.1492L10.0447 84.3045L9.9054 84.231ZM9.03037 83.6062L8.89102 83.679L8.91727 83.5245L8.80477 83.4142L8.961 83.391L9.03037 83.25L9.10035 83.391L9.25665 83.4142L9.14347 83.5245L9.16972 83.679L9.03037 83.6062ZM8.15535 84.1065L8.016 84.1792L8.04225 84.024L7.92975 83.9145L8.08597 83.8912L8.15535 83.7502L8.2254 83.8912L8.38162 83.9145L8.26852 84.024L8.29477 84.1792L8.15535 84.1065ZM11.0304 81.981L10.891 82.0545L10.9172 81.8992L10.8047 81.789L10.961 81.7665L11.0304 81.6247L11.1004 81.7665L11.2566 81.789L11.1435 81.8992L11.1697 82.0545L11.0304 81.981Z" fill="#F7FCFF"/>
<path d="M6.49592 82.623L6.58967 81.3772C9.58845 81.603 11.9553 82.5892 13.6603 84.3427L12.764 85.2142C11.2865 83.694 9.20717 82.8277 6.49592 82.623Z" fill="#F7FCFF"/>
<path d="M7.97416 82.377L8.00536 82.0657C9.93916 82.266 11.5973 83.0062 12.9754 84.2857L12.7629 84.5145C11.4347 83.2822 9.84046 82.5705 7.97416 82.377Z" fill="#009933"/>
</g>
</g>
</g>
</g>
<path d="M27.7931 78.8633H31.4779C31.9393 78.8633 32.3326 78.9157 32.6578 79.0215C32.983 79.1227 33.2489 79.281 33.4554 79.4963C33.6663 79.707 33.8201 79.9748 33.9168 80.3003C34.0135 80.6213 34.0619 81.0007 34.0619 81.4402C34.0619 81.8137 34.0223 82.1175 33.9432 82.35C33.8685 82.5833 33.774 82.7678 33.6597 82.9043C33.5455 83.04 33.4181 83.139 33.2774 83.2005C33.1368 83.2575 33.005 83.2995 32.8819 83.3257V83.3393C32.961 83.3475 33.0555 83.3677 33.1654 83.3985C33.2752 83.4247 33.3895 83.469 33.5081 83.5305C33.6268 83.5875 33.7433 83.6663 33.8575 83.7675C33.9718 83.8643 34.075 83.9895 34.1673 84.1433C34.2596 84.297 34.3343 84.4838 34.3914 84.7035C34.4486 84.9188 34.4771 85.1715 34.4771 85.4617C34.4771 86.0415 34.42 86.514 34.3058 86.8785C34.1915 87.2437 34.0179 87.5295 33.785 87.7358C33.5564 87.942 33.2642 88.083 32.9083 88.1572C32.5567 88.2322 32.1437 88.2698 31.669 88.2698H27.7931V78.8633ZM31.1681 82.8315C31.4054 82.8315 31.6075 82.8157 31.7745 82.785C31.9415 82.7542 32.0777 82.6928 32.1832 82.6005C32.2931 82.5038 32.3721 82.3702 32.4205 82.1985C32.4688 82.0275 32.493 81.801 32.493 81.5198C32.493 81.2865 32.4644 81.0937 32.4073 80.9392C32.3501 80.781 32.2667 80.6565 32.1568 80.5635C32.0469 80.4712 31.9107 80.406 31.7481 80.3662C31.5899 80.3265 31.4097 80.307 31.2076 80.307H29.375V82.8315H31.1681ZM31.4779 86.826C31.68 86.826 31.8624 86.811 32.025 86.7803C32.192 86.745 32.3326 86.679 32.4469 86.5823C32.5655 86.4855 32.6556 86.3512 32.7171 86.1802C32.783 86.004 32.816 85.7738 32.816 85.488C32.816 85.2023 32.7875 84.9735 32.7303 84.8025C32.6776 84.6262 32.5919 84.4927 32.4732 84.4005C32.359 84.3082 32.2118 84.249 32.0315 84.222C31.8558 84.1912 31.6448 84.1763 31.3988 84.1763H29.375V86.826H31.4779Z" fill="#242021"/>
<path d="M36.336 81.315H37.6873L37.7796 82.0733C38.1223 81.849 38.5069 81.6645 38.9332 81.5198C39.3594 81.375 39.8384 81.2888 40.3702 81.2625L40.357 82.884C39.8077 82.893 39.3309 82.9215 38.9266 82.9695C38.5267 83.0138 38.1839 83.0933 37.8982 83.2073V88.2698H36.336V81.315Z" fill="#242021"/>
<path d="M41.4578 86.2988C41.4578 85.9035 41.515 85.569 41.6292 85.2968C41.7478 85.0245 41.9061 84.8048 42.1038 84.6375C42.306 84.4703 42.541 84.3495 42.8092 84.2753C43.0816 84.2003 43.3738 84.1628 43.6858 84.1628C44.0023 84.1628 44.2879 84.1808 44.5428 84.216C44.8021 84.2505 45.0262 84.2903 45.2152 84.3345C45.4305 84.3825 45.626 84.4373 45.8018 84.4995V83.853C45.8018 83.6903 45.7952 83.5545 45.782 83.4443C45.7733 83.3303 45.7557 83.2313 45.7293 83.148C45.703 83.064 45.6656 82.9943 45.6173 82.9373C45.5733 82.8795 45.5184 82.8248 45.4525 82.7723C45.3118 82.671 45.1185 82.5983 44.8723 82.5548C44.6263 82.5105 44.3055 82.4888 43.91 82.4888C43.6595 82.4888 43.4156 82.4978 43.1782 82.515C42.9454 82.5285 42.7366 82.5458 42.5521 82.5675C42.3367 82.59 42.1324 82.614 41.939 82.6403V81.546C42.1148 81.4755 42.3323 81.4118 42.5916 81.3548C42.8113 81.3068 43.086 81.2625 43.4156 81.2228C43.7452 81.1793 44.1363 81.1568 44.5889 81.1568C44.8922 81.1568 45.1602 81.1703 45.3932 81.1965C45.6305 81.219 45.8392 81.258 46.0193 81.315C46.1996 81.3728 46.3577 81.447 46.4939 81.5393C46.6346 81.6315 46.7598 81.7463 46.8697 81.882C46.962 81.9968 47.0389 82.1175 47.1004 82.245C47.1619 82.3725 47.2125 82.5218 47.252 82.6928C47.2916 82.8645 47.318 83.0625 47.3312 83.286C47.3487 83.5058 47.3575 83.763 47.3575 84.0578V88.2698H46.0325L45.9139 87.7553C45.7205 87.8918 45.5074 88.0125 45.2745 88.1183C45.0723 88.206 44.835 88.287 44.5625 88.362C44.2945 88.437 43.9979 88.4738 43.6727 88.4738C43.2772 88.4738 42.9388 88.4348 42.6575 88.3553C42.3763 88.2765 42.1456 88.1513 41.9654 87.9795C41.7896 87.8085 41.6599 87.5843 41.5765 87.3075C41.4973 87.0308 41.4578 86.694 41.4578 86.2988ZM43.0596 86.2988C43.0596 86.4923 43.0838 86.646 43.1321 86.76C43.1805 86.8748 43.2508 86.9625 43.3431 87.024C43.4353 87.081 43.5474 87.1185 43.6792 87.1358C43.8155 87.1538 43.9693 87.162 44.1406 87.162C44.3648 87.162 44.5757 87.1425 44.7735 87.1028C44.9756 87.0593 45.1536 87.0128 45.3074 86.9648C45.4832 86.907 45.648 86.8418 45.8018 86.7668V85.5608C45.6612 85.5338 45.5096 85.5098 45.347 85.488C45.2063 85.4663 45.046 85.4483 44.8657 85.4355C44.69 85.4175 44.5032 85.4085 44.3055 85.4085C44.0858 85.4085 43.8968 85.4198 43.7386 85.4415C43.5847 85.4595 43.4573 85.5008 43.3562 85.5668C43.2552 85.6283 43.1805 85.719 43.1321 85.8375C43.0838 85.9515 43.0596 86.1053 43.0596 86.2988Z" fill="#242021"/>
<path d="M49.256 86.9318C49.4493 86.9753 49.6646 87.015 49.9019 87.0503C50.104 87.081 50.3414 87.1073 50.6138 87.129C50.8907 87.1515 51.1939 87.162 51.5235 87.162C51.8839 87.162 52.1695 87.1493 52.3805 87.123C52.5914 87.096 52.7496 87.0525 52.855 86.991C52.9649 86.925 53.0352 86.8373 53.066 86.727C53.0968 86.6175 53.1122 86.4788 53.1122 86.3123C53.1122 86.2238 53.1056 86.145 53.0924 86.0745C53.0836 86.0003 53.0572 85.9343 53.0132 85.8765C52.9737 85.815 52.9122 85.7648 52.8287 85.725C52.7496 85.6815 52.6419 85.6485 52.5057 85.626L51.0489 85.356C50.7149 85.299 50.4337 85.2218 50.2052 85.125C49.9766 85.029 49.792 84.9015 49.6514 84.7433C49.5152 84.5805 49.4163 84.3825 49.3548 84.15C49.2976 83.9123 49.2691 83.625 49.2691 83.286C49.2691 82.557 49.5108 82.014 49.9942 81.6578C50.482 81.2978 51.1763 81.1178 52.0772 81.1178C52.3937 81.1178 52.6837 81.1373 52.9473 81.177C53.2154 81.2123 53.4483 81.2535 53.6461 81.3023C53.8746 81.3548 54.0833 81.414 54.2723 81.48V82.6005C54.0614 82.5653 53.8416 82.5345 53.6131 82.5083C53.4154 82.4865 53.1934 82.4648 52.9473 82.4423C52.7056 82.4205 52.4595 82.4093 52.2091 82.4093C51.9234 82.4093 51.6861 82.4228 51.4971 82.449C51.3082 82.4708 51.1588 82.5105 51.0489 82.5675C50.939 82.6253 50.8622 82.6995 50.8182 82.7918C50.7743 82.8795 50.7523 82.992 50.7523 83.1278C50.7523 83.2335 50.7611 83.328 50.7786 83.4113C50.7962 83.4953 50.8336 83.5695 50.8907 83.6355C50.9478 83.7015 51.0269 83.7585 51.128 83.8073C51.2291 83.8553 51.3653 83.895 51.5367 83.9258L53.0462 84.2093C53.3406 84.2663 53.5889 84.3413 53.791 84.4335C53.9976 84.5258 54.1646 84.651 54.292 84.8093C54.4195 84.9675 54.5118 85.1693 54.5689 85.4153C54.626 85.6568 54.6546 85.956 54.6546 86.3123C54.6546 86.6505 54.6194 86.9535 54.5492 87.2213C54.4832 87.4898 54.347 87.7163 54.1405 87.9008C53.9339 88.0853 53.6417 88.2255 53.2637 88.3223C52.8858 88.4235 52.3871 88.4738 51.7674 88.4738C51.4247 88.4738 51.1016 88.4498 50.7984 88.4018C50.4952 88.3575 50.2293 88.3073 50.0008 88.2503C49.7327 88.1843 49.4844 88.1093 49.256 88.026V86.9318Z" fill="#242021"/>
<path d="M57.3177 80.1353C57.1375 80.1353 56.9881 80.1225 56.8694 80.0955C56.7552 80.0692 56.6607 80.0235 56.586 79.9575C56.5157 79.8915 56.4652 79.8015 56.4344 79.6875C56.408 79.5728 56.3948 79.4258 56.3948 79.2458C56.3948 79.065 56.408 78.918 56.4344 78.804C56.4652 78.6855 56.5157 78.591 56.586 78.5205C56.6607 78.45 56.7552 78.402 56.8694 78.375C56.9881 78.3487 57.1375 78.336 57.3177 78.336C57.4979 78.336 57.6451 78.3487 57.7594 78.375C57.878 78.402 57.9725 78.45 58.0428 78.5205C58.1131 78.591 58.1615 78.6855 58.1878 78.804C58.2142 78.918 58.2274 79.065 58.2274 79.2458C58.2274 79.4258 58.2142 79.5728 58.1878 79.6875C58.1615 79.8015 58.1131 79.8915 58.0428 79.9575C57.9725 80.0235 57.878 80.0692 57.7594 80.0955C57.6451 80.1225 57.4979 80.1353 57.3177 80.1353ZM56.5333 81.315H58.1021V88.2698H56.5333V81.315Z" fill="#242021"/>
<path d="M60.3961 78.0262H61.9583V88.2697H60.3961V78.0262Z" fill="#242021"/>
</g>
<defs>
<filter id="filter0_d_291_686" x="2.67352" y="78.0652" width="15.2" height="10.2908" filterUnits="userSpaceOnUse" color-interpolation-filters="sRGB">
<feFlood flood-opacity="0" result="BackgroundImageFix"/>
<feColorMatrix in="SourceAlpha" type="matrix" values="0 0 0 0 0 0 0 0 0 0 0 0 0 0 0 0 0 0 127 0" result="hardAlpha"/>
<feOffset/>
<feColorMatrix type="matrix" values="0 0 0 0 0.0313726 0 0 0 0 0.368627 0 0 0 0 0 0 0 0 0.28 0"/>
<feBlend mode="normal" in2="BackgroundImageFix" result="effect1_dropShadow_291_686"/>
<feBlend mode="normal" in="SourceGraphic" in2="effect1_dropShadow_291_686" result="shape"/>
</filter>
<linearGradient id="paint0_linear_291_686" x1="20.2929" y1="90.75" x2="20.2929" y2="75.75" gradientUnits="userSpaceOnUse">
<stop stop-color="#FFC600"/>
<stop offset="1" stop-color="#FFDE42"/>
</linearGradient>
<clipPath id="clip0_291_686">
<rect width="114.75" height="96" fill="white"/>
</clipPath>
</defs>
</svg>
