<svg width="384" height="434" viewBox="0 0 384 434" fill="none" xmlns="http://www.w3.org/2000/svg">
<path d="M16.7845 0.481155C16.289 0.790832 18.8903 1.03857 23.2877 1.03857C27.7471 1.03857 30.0387 0.852768 29.1097 0.54309C26.9419 -0.1382 17.8374 -0.200135 16.7845 0.481155Z" fill="#666364"/>
<path d="M24.155 3.14433C24.155 3.39207 25.6415 3.57788 27.4376 3.57788C30.7821 3.51595 30.4724 3.2682 26.5086 2.89659C25.2079 2.77272 24.155 2.89659 24.155 3.14433Z" fill="#666364"/>
<path d="M17.2184 3.45385C17.9616 3.57772 19.0764 3.57772 19.6958 3.45385C20.2532 3.26804 19.6338 3.14417 18.2713 3.20611C16.9087 3.20611 16.4132 3.32998 17.2184 3.45385Z" fill="#666364"/>
<path d="M17.5279 5.93127C18.0853 6.05514 18.9524 6.05514 19.386 5.93127C19.7576 5.74546 19.324 5.62159 18.2711 5.62159C17.2802 5.62159 16.9085 5.74546 17.5279 5.93127Z" fill="#666364"/>
<path d="M25.5792 5.93127C26.1367 6.05514 27.1276 6.05514 27.747 5.93127C28.3044 5.74546 27.8089 5.62159 26.6321 5.62159C25.4554 5.62159 24.9599 5.74546 25.5792 5.93127Z" fill="#666364"/>
<path d="M13.9974 7.04631C14.2452 7.54179 14.431 7.97534 14.5549 7.97534C14.6168 7.97534 15.0503 7.54179 15.4839 7.04631C16.1032 6.24115 16.0413 6.11728 14.9884 6.11728C14.0594 6.11728 13.7497 6.42695 13.9974 7.04631Z" fill="#666364"/>
<path d="M30.9679 7.29392C31.7731 8.8423 33.0118 9.02811 32.7021 7.54166C32.5782 6.9223 32.0208 6.36488 31.4015 6.24101C30.4105 6.05521 30.3486 6.17908 30.9679 7.29392Z" fill="#666364"/>
<path d="M17.8373 7.17007C16.4747 7.3559 16.1031 7.85138 15.8554 9.39975C15.6696 10.5146 14.6786 31.3249 13.6257 55.6656C12.5728 80.0062 11.2721 108.558 10.7767 119.149C10.0954 134.262 3.03472 289.906 1.54826 323.227C1.36246 327.129 0.928909 336.295 0.557296 343.48C0.185683 350.726 0.0618122 356.92 0.309554 357.291C0.743102 358.035 6.25536 359.645 9.2902 359.893L11.4579 360.078V355.743C11.4579 347.258 10.5289 308.734 10.2812 308.548C10.1573 308.424 8.67084 308.177 6.87472 307.929L3.71601 307.557V304.522C3.71601 301.983 3.90181 301.426 5.14052 300.992C5.94568 300.682 11.1483 297.338 16.7225 293.498C22.3586 289.72 28.7999 285.322 31.1534 283.712C35.0554 281.111 36.1702 279.872 34.6837 279.872C34.3121 279.872 34.0025 274.608 33.9405 266.122L33.7547 252.373L32.2063 252.001C31.0915 251.753 30.6579 251.196 30.6579 250.143C30.6579 248.657 30.9057 248.533 36.0463 247.913C39.0192 247.604 41.5586 247.17 41.6825 246.984C41.8683 246.86 41.4347 236.022 40.8154 222.891C37.7805 160.522 34.4979 91.9598 32.8257 56.2849C30.7818 12.1249 30.4721 8.16104 29.667 7.60364C28.8618 7.10815 20.005 6.73654 17.8373 7.17007Z" fill="#666364"/>
<path d="M234.178 221.591L231.391 221.962L236.965 224.935C251.458 232.677 252.263 232.987 255.484 232.553C257.094 232.306 258.147 231.872 257.899 231.562C256.846 230.571 238.328 221.033 237.584 221.157C237.213 221.157 235.664 221.405 234.178 221.591Z" fill="#666364"/>
<path d="M218.632 227.165L207.793 231.996V237.199V242.401L224.516 243.144C233.744 243.516 243.406 243.949 246.07 244.073L250.839 244.259V238.995V233.668L246.379 231.439C243.902 230.138 239.071 227.599 235.664 225.74L229.471 222.334L218.632 227.165Z" fill="#666364"/>
<path d="M256.103 233.358C252.263 233.978 252.077 234.225 252.077 239.428V244.073L255.67 243.64C257.59 243.392 259.386 243.082 259.695 242.896C259.943 242.773 260.129 240.419 260.129 237.694C260.129 234.164 259.943 232.801 259.386 232.863C258.952 232.925 257.466 233.111 256.103 233.358Z" fill="#666364"/>
<path d="M261.12 234.783C260.934 235.588 260.748 237.632 260.748 239.428V242.587L265.27 242.958C272.392 243.516 280.568 243.702 280.072 243.206C279.639 242.834 261.987 233.42 261.677 233.42C261.615 233.42 261.368 234.04 261.12 234.783Z" fill="#666364"/>
<path d="M76.0571 241.41C62.9887 246.675 61.3164 247.542 61.3164 248.718C61.3164 249.957 61.6261 250.143 63.67 250.143C64.9087 250.143 78.2248 250.824 93.2132 251.691C108.202 252.558 120.836 253.24 121.27 253.24C121.642 253.24 122.013 252.682 122.013 251.939C122.013 250.886 119.35 249.4 106.715 243.206C98.23 239.118 91.2312 235.712 91.0454 235.588C90.8596 235.526 84.1087 238.127 76.0571 241.41ZM94.9474 241.72C99.5925 243.392 101.017 246.303 98.4158 248.657C96.4338 250.391 88.4442 250.638 85.4712 249.028C82.6222 247.48 81.6932 245.064 83.3035 243.33C85.4093 240.977 90.7358 240.233 94.9474 241.72Z" fill="#666364"/>
<path d="M93.275 247.728C88.6298 248.409 88.1343 248.904 92.0362 248.904C95.5666 248.904 97.8582 248.347 97.8582 247.604C97.8582 247.294 97.6724 247.108 97.4246 247.108C97.115 247.17 95.2569 247.418 93.275 247.728Z" fill="#666364"/>
<path d="M200.981 238.066L196.645 240.109L201.476 240.171L206.245 240.233V238.066C206.245 236.889 206.059 235.898 205.812 235.898C205.502 235.96 203.396 236.889 200.981 238.066Z" fill="#666364"/>
<path d="M176.083 245.374L150.503 248.533V250.205C150.503 251.815 150.503 251.815 156.697 252.311C162.767 252.682 162.891 252.744 162.891 254.293C162.891 255.284 162.457 255.965 161.652 256.151C160.537 256.46 160.413 257.018 160.413 261.353C160.413 266.184 160.413 266.246 162.023 266.246C162.891 266.246 164.749 265.998 166.173 265.627C168.527 265.069 213.306 256.832 257.342 248.842C266.88 247.108 275.118 245.498 275.613 245.312C277.719 244.445 260.996 244.197 256.103 245.002C252.263 245.622 248.671 245.684 240.31 245.188C234.364 244.878 224.331 244.445 218.137 244.197C209.404 243.888 206.679 243.578 206.431 242.958C205.998 241.782 204.883 241.844 176.083 245.374Z" fill="#666364"/>
<path d="M266.633 248.347C251.458 251.258 231.515 254.912 181.781 264.016L160.723 267.918L160.537 274.607C160.475 278.324 160.475 281.668 160.661 282.04C160.909 282.721 163.014 282.349 190.142 276.527C206.989 272.873 270.287 259.371 276.418 258.133L283.045 256.77V250.948C283.045 247.789 282.983 245.188 282.922 245.25C282.798 245.312 275.489 246.675 266.633 248.347Z" fill="#666364"/>
<path d="M44.2839 248.347C42.6116 248.533 41.6207 248.842 42.1162 249.028C43.7884 249.71 59.3962 250.143 59.7678 249.524C60.0155 249.152 59.7678 248.781 59.3342 248.657C57.9716 248.161 47.5045 247.975 44.2839 248.347Z" fill="#666364"/>
<path d="M124.242 249.833C125.543 250.824 134.524 251.072 139.045 250.205C141.213 249.833 140.717 249.709 135.701 249.338C132.48 249.09 128.33 248.904 126.472 248.904C123.313 248.904 123.128 248.966 124.242 249.833Z" fill="#666364"/>
<path d="M32.5164 250.453C33.5073 250.886 146.292 257.018 146.602 256.708C147.035 256.274 141.461 255.779 127.897 255.098C121.084 254.726 97.6725 253.487 75.8712 252.311C37.9048 250.205 31.1538 249.957 32.5164 250.453Z" fill="#666364"/>
<path d="M144.619 250.7L142.142 251.134L145.486 251.568C148.955 252.063 149.698 251.939 148.955 250.824C148.521 250.081 148.459 250.081 144.619 250.7Z" fill="#666364"/>
<path d="M35.3032 265.317V278.633H36.7277C38.2142 278.633 45.0271 279.129 100.026 283.216C120.836 284.765 139.541 286.189 141.708 286.375L145.548 286.747V272.44V258.194H144.062C142.39 258.194 112.785 256.522 106.405 256.089L102.194 255.779V266.989V278.2L94.3277 277.766C89.9303 277.58 84.5419 277.209 82.2503 276.961L78.0387 276.589V265.565C78.0387 257.08 77.8529 254.478 77.2955 254.478C75.6232 254.478 43.4787 252.62 39.5148 252.311L35.3032 252.001V265.317Z" fill="#666364"/>
<path d="M125.11 252.806C125.11 253.549 126.658 253.797 134.276 254.231C145.424 254.85 151.37 254.788 152.733 253.983C153.414 253.611 150.751 253.302 144.557 252.992C139.479 252.806 133.037 252.435 130.25 252.187C125.853 251.877 125.11 252.001 125.11 252.806Z" fill="#666364"/>
<path d="M155.025 255.036C151.556 255.593 148.521 256.275 148.212 256.584C147.902 256.894 148.398 256.956 149.265 256.77C150.132 256.584 153.229 256.089 156.263 255.655C159.236 255.222 161.652 254.664 161.652 254.355C161.652 254.107 161.59 253.921 161.528 253.921C161.404 253.983 158.493 254.479 155.025 255.036Z" fill="#666364"/>
<path d="M79.2773 265.627C79.2773 271.82 79.5251 275.537 79.8967 275.537C80.2683 275.537 80.5161 271.82 80.5161 265.627C80.5161 259.433 80.2683 255.717 79.8967 255.717C79.5251 255.717 79.2773 259.433 79.2773 265.627Z" fill="#666364"/>
<path d="M152.98 257.451C150.069 258.009 147.53 258.628 147.344 258.938C147.158 259.247 147.097 260.115 147.158 260.858C147.22 261.601 147.344 267.856 147.344 274.731L147.406 287.242L152.051 290.029C154.653 291.578 156.944 292.878 157.254 292.878C157.564 292.878 157.811 291.02 157.811 288.729C157.811 286.251 158.121 284.455 158.493 284.331C159.298 284.084 159.484 256.275 158.74 256.398C158.431 256.46 155.891 256.956 152.98 257.451Z" fill="#666364"/>
<path d="M82.684 257.575C82.8698 257.885 83.7369 258.195 84.604 258.195C85.4092 258.195 86.0905 257.885 86.0905 257.575C86.0905 257.204 85.2234 256.956 84.1705 256.956C83.1176 256.956 82.4363 257.204 82.684 257.575Z" fill="#666364"/>
<path d="M87.3291 257.575C87.3291 257.885 88.0104 258.195 88.8775 258.195C89.7446 258.195 90.4259 257.885 90.4259 257.575C90.4259 257.204 89.7446 256.956 88.8775 256.956C88.0104 256.956 87.3291 257.204 87.3291 257.575Z" fill="#666364"/>
<path d="M91.9741 258.194C92.1599 258.504 92.9032 258.814 93.5225 258.814C94.1419 258.814 94.8851 258.504 95.0709 258.194C95.3186 257.823 94.6374 257.575 93.5225 257.575C92.4077 257.575 91.7264 257.823 91.9741 258.194Z" fill="#666364"/>
<path d="M96.6194 258.194C96.6194 258.504 97.3007 258.814 98.1678 258.814C99.0349 258.814 99.7162 258.504 99.7162 258.194C99.7162 257.823 99.0349 257.575 98.1678 257.575C97.3007 257.575 96.6194 257.823 96.6194 258.194Z" fill="#666364"/>
<path d="M277.78 259.186C275.736 259.681 249.847 265.193 220.18 271.573C190.575 277.89 166.235 283.155 166.111 283.217C166.049 283.34 168.216 283.588 170.942 283.836L175.958 284.269L185.001 291.082C190.699 295.356 194.353 297.771 195.035 297.524C196.149 297.214 210.209 293.56 245.574 284.517C286.699 273.988 300.387 270.396 300.263 270.272C297.538 267.671 283.726 258.195 282.797 258.257C282.054 258.318 279.824 258.752 277.78 259.186Z" fill="#666364"/>
<path d="M287.133 258.752C287.443 259 291.159 261.849 295.37 265.007L303.05 270.767L302.679 276.218L302.307 281.606L306.766 281.978C317.234 282.845 331.479 283.65 331.726 283.464C332.036 283.154 298.839 259.929 296.795 259C294.875 258.133 286.204 257.885 287.133 258.752Z" fill="#666364"/>
<path d="M82.684 260.053C82.4363 260.424 83.1176 260.672 84.1705 260.672C85.2234 260.672 86.0905 260.362 86.0905 260.053C86.0905 259.681 85.4092 259.433 84.604 259.433C83.7369 259.433 82.8698 259.681 82.684 260.053Z" fill="#666364"/>
<path d="M87.9483 260.672C89.187 261.477 90.4257 261.477 90.4257 260.672C90.4257 260.3 89.6825 260.053 88.7535 260.053C87.3909 260.053 87.2051 260.177 87.9483 260.672Z" fill="#666364"/>
<path d="M91.6643 260.672C91.6643 260.982 92.5314 261.291 93.5843 261.291C94.6372 261.291 95.3185 261.044 95.0708 260.672C94.885 260.3 94.0179 260.053 93.1508 260.053C92.3456 260.053 91.6643 260.3 91.6643 260.672Z" fill="#666364"/>
<path d="M96.6194 260.734C96.6194 261.044 96.8671 261.291 97.1768 261.291C97.4865 261.291 98.1678 261.477 98.7252 261.663C99.2826 261.849 99.7162 261.787 99.7162 261.415C99.7162 261.106 99.0349 260.672 98.1678 260.548C97.3007 260.362 96.6194 260.486 96.6194 260.734Z" fill="#666364"/>
<path d="M82.6838 262.53C82.436 262.902 83.1173 263.149 84.356 263.087C86.0283 263.087 86.2141 262.963 85.1612 262.53C83.4889 261.787 83.1173 261.787 82.6838 262.53Z" fill="#666364"/>
<path d="M87.3291 263.149C87.3291 263.459 88.0104 263.769 88.8775 263.769C89.7446 263.769 90.4259 263.459 90.4259 263.149C90.4259 262.778 89.7446 262.53 88.8775 262.53C88.0104 262.53 87.3291 262.778 87.3291 263.149Z" fill="#666364"/>
<path d="M91.9742 263.149C91.7265 263.521 92.4078 263.769 93.5845 263.769C94.6994 263.769 95.3807 263.583 95.1329 263.335C94.4516 262.654 92.3458 262.53 91.9742 263.149Z" fill="#666364"/>
<path d="M96.6194 263.769C96.6194 264.078 97.3007 264.388 98.1678 264.388C99.0349 264.388 99.7162 264.078 99.7162 263.769C99.7162 263.397 99.0349 263.149 98.1678 263.149C97.3007 263.149 96.6194 263.397 96.6194 263.769Z" fill="#666364"/>
<path d="M82.9934 265.627C82.9934 265.937 83.6747 266.246 84.5418 266.246C85.4089 266.246 86.0902 265.937 86.0902 265.627C86.0902 265.255 85.4089 265.008 84.5418 265.008C83.6747 265.008 82.9934 265.255 82.9934 265.627Z" fill="#666364"/>
<path d="M87.3291 265.627C87.3291 265.937 88.0104 266.246 88.8775 266.246C89.7446 266.246 90.4259 265.937 90.4259 265.627C90.4259 265.255 89.7446 265.008 88.8775 265.008C88.0104 265.008 87.3291 265.255 87.3291 265.627Z" fill="#666364"/>
<path d="M91.9743 266.246C92.1601 266.556 93.0272 266.865 93.8943 266.865C94.6995 266.865 95.3807 266.556 95.3807 266.246C95.3807 265.875 94.5137 265.627 93.4607 265.627C92.4078 265.627 91.7266 265.875 91.9743 266.246Z" fill="#666364"/>
<path d="M96.6194 266.246C96.6194 266.556 97.3007 266.865 98.1678 266.865C99.0349 266.865 99.7162 266.556 99.7162 266.246C99.7162 265.875 99.0349 265.627 98.1678 265.627C97.3007 265.627 96.6194 265.875 96.6194 266.246Z" fill="#666364"/>
<path d="M82.9934 268.104C82.9934 268.414 83.6747 268.724 84.5418 268.724C85.4089 268.724 86.0902 268.414 86.0902 268.104C86.0902 267.733 85.4089 267.485 84.5418 267.485C83.6747 267.485 82.9934 267.733 82.9934 268.104Z" fill="#666364"/>
<path d="M87.3291 268.166C87.3291 268.476 87.5768 268.724 87.8865 268.724C88.1962 268.724 88.8775 268.91 89.4349 269.095C89.9923 269.281 90.4259 269.219 90.4259 268.848C90.4259 268.538 89.7446 268.104 88.8775 267.98C88.0104 267.795 87.3291 267.919 87.3291 268.166Z" fill="#666364"/>
<path d="M91.9743 268.724C92.1601 269.033 93.0272 269.343 93.8943 269.343C94.6995 269.343 95.3807 269.033 95.3807 268.724C95.3807 268.352 94.5137 268.104 93.4607 268.104C92.4078 268.104 91.7266 268.352 91.9743 268.724Z" fill="#666364"/>
<path d="M96.6194 268.785C96.6194 269.095 96.8671 269.343 97.1768 269.343C97.4865 269.343 98.1678 269.529 98.7252 269.714C99.2826 269.9 99.7162 269.838 99.7162 269.467C99.7162 269.157 99.0349 268.723 98.1678 268.6C97.3007 268.414 96.6194 268.538 96.6194 268.785Z" fill="#666364"/>
<path d="M82.9934 270.582C82.9934 270.891 83.7366 271.201 84.7276 271.201C86.0282 271.201 86.2141 271.077 85.4708 270.582C84.2321 269.777 82.9934 269.777 82.9934 270.582Z" fill="#666364"/>
<path d="M87.3291 271.201C87.3291 271.511 88.0104 271.82 88.8775 271.82C89.7446 271.82 90.4259 271.511 90.4259 271.201C90.4259 270.829 89.7446 270.582 88.8775 270.582C88.0104 270.582 87.3291 270.829 87.3291 271.201Z" fill="#666364"/>
<path d="M92.2839 271.201C92.2839 271.511 93.0272 271.82 93.8943 271.82C94.7614 271.82 95.3188 271.573 95.071 271.201C94.8852 270.829 94.142 270.582 93.4607 270.582C92.8414 270.582 92.2839 270.829 92.2839 271.201Z" fill="#666364"/>
<path d="M96.9292 271.82C97.115 272.13 97.8583 272.44 98.5396 272.44C99.1589 272.44 99.7163 272.13 99.7163 271.82C99.7163 271.449 98.9731 271.201 98.106 271.201C97.2389 271.201 96.6815 271.449 96.9292 271.82Z" fill="#666364"/>
<path d="M283.355 276.156C274.498 278.448 258.333 282.597 247.432 285.384C236.532 288.171 221.048 292.197 213.058 294.241C205.068 296.347 197.884 298.143 197.141 298.329C196.335 298.453 195.716 298.762 195.716 299.01C195.778 299.196 198.503 301.426 201.848 303.903L207.917 308.362L238.204 299.753C254.864 294.984 275.613 289.1 284.284 286.685C292.955 284.208 300.263 282.04 300.511 281.792C300.697 281.606 301.006 279.253 301.13 276.59C301.316 272.626 301.192 271.82 300.387 271.882C299.892 271.944 292.212 273.864 283.355 276.156Z" fill="#666364"/>
<path d="M83.9226 273.679C85.5949 274.422 86.0903 274.422 86.0903 273.679C86.0903 273.307 85.3471 273.059 84.4181 273.121C82.8697 273.121 82.8078 273.183 83.9226 273.679Z" fill="#666364"/>
<path d="M87.3291 273.678C87.3291 273.988 88.0104 274.298 88.8775 274.298C89.7446 274.298 90.4259 273.988 90.4259 273.678C90.4259 273.307 89.7446 273.059 88.8775 273.059C88.0104 273.059 87.3291 273.307 87.3291 273.678Z" fill="#666364"/>
<path d="M92.9034 274.298C94.1421 275.103 95.3808 275.103 95.3808 274.298C95.3808 273.926 94.6376 273.678 93.7086 273.678C92.346 273.678 92.1602 273.802 92.9034 274.298Z" fill="#666364"/>
<path d="M96.6194 274.298C96.6194 274.607 97.3007 274.917 98.1678 274.917C99.0349 274.917 99.7162 274.607 99.7162 274.298C99.7162 273.926 99.0349 273.678 98.1678 273.678C97.3007 273.678 96.6194 273.926 96.6194 274.298Z" fill="#666364"/>
<path d="M46.4515 282.659C48.6812 283.836 50.6631 284.765 50.9728 284.827C51.2205 284.827 51.4063 284.022 51.4063 283.031C51.4063 281.482 51.1586 281.235 49.1147 280.863C47.8141 280.677 45.7702 280.491 44.5934 280.553C42.4876 280.553 42.4876 280.615 46.4515 282.659Z" fill="#666364"/>
<path d="M332.593 280.615C332.593 280.801 333.275 281.42 334.08 281.916C336.247 283.34 360.65 285.074 364.552 284.145C366.038 283.774 367.401 283.216 367.587 283.031C367.711 282.783 361.765 282.225 354.395 281.792C347.024 281.42 339.096 280.863 336.805 280.677C334.451 280.491 332.593 280.491 332.593 280.615Z" fill="#666364"/>
<path d="M33.6927 283.526C31.8966 284.765 25.5172 289.1 19.5095 293.188C9.16628 300.187 8.67079 300.62 10.5908 300.806C15.9792 301.24 37.0992 303.469 39.0192 303.779L41.1869 304.151L41.125 300.496C41.0631 298.514 41.0011 293.745 41.0011 289.967L40.8772 283.031L39.0192 282.04C38.0282 281.544 37.1611 281.111 37.0372 281.172C36.9134 281.234 35.4269 282.225 33.6927 283.526Z" fill="#666364"/>
<path d="M52.7688 283.402L52.9546 285.756L57.2901 285.88C59.7056 286.004 62.3069 286.189 63.1739 286.313C64.6604 286.561 64.6604 286.561 63.4836 285.632C61.7494 284.331 54.7507 281.111 53.5739 281.111C52.7688 281.111 52.6449 281.668 52.7688 283.402Z" fill="#666364"/>
<path d="M63.7937 282.04C63.7937 282.226 65.5279 283.217 67.6956 284.331C72.6505 286.933 72.7124 286.995 72.2169 286.128C71.9692 285.756 70.1111 284.579 68.1292 283.588C64.4131 281.73 63.7937 281.482 63.7937 282.04Z" fill="#666364"/>
<path d="M371.613 282.288C371.613 282.535 368.082 283.96 363.809 285.446C358.111 287.366 356.253 288.295 356.748 288.791C357.244 289.286 360.031 288.605 367.339 286.066C373.966 283.774 376.815 282.535 376.072 282.226C374.524 281.606 371.613 281.606 371.613 282.288Z" fill="#666364"/>
<path d="M73.0837 282.535C73.0837 282.907 80.7637 287.304 81.3831 287.304C81.5689 287.304 81.7547 286.313 81.7547 285.137V282.969H78.4102C76.5521 282.969 74.6321 282.783 74.0747 282.597C73.5173 282.411 73.0837 282.349 73.0837 282.535Z" fill="#666364"/>
<path d="M283.355 288.233C273.507 291.082 252.759 297.028 237.275 301.425L209.156 309.415L214.297 313.317C219.376 317.157 219.438 317.219 221.977 316.6C223.339 316.228 239.443 311.149 257.652 305.327C275.861 299.444 298.158 292.383 307.2 289.72C316.181 286.995 323.675 284.641 323.737 284.579C323.861 284.455 320.392 284.207 316.057 283.96C311.659 283.774 306.581 283.464 304.723 283.278C301.812 283.093 298.653 283.836 283.355 288.233Z" fill="#666364"/>
<path d="M368.578 286.685C362.942 288.729 358.296 290.525 358.111 290.649C357.987 290.835 358.42 291.206 359.102 291.578C360.774 292.445 379.85 285.632 380.16 284.022C380.284 283.464 380.036 282.969 379.54 282.969C379.107 283.031 374.152 284.703 368.578 286.685Z" fill="#666364"/>
<path d="M82.9937 285.756C82.9937 286.933 83.1795 287.924 83.4892 287.986C83.7369 287.986 84.3563 288.109 84.8518 288.171C85.3473 288.295 88.6918 288.543 92.284 288.791C95.8763 289.039 100.088 289.348 101.76 289.596L104.671 289.968V300.063C104.671 308.672 104.795 310.22 105.6 310.22C106.405 310.22 106.529 308.672 106.529 299.939V289.72L109.316 290.153C110.865 290.339 112.103 290.401 112.103 290.215C112.103 290.091 110.245 288.791 107.954 287.428C103.804 285.013 103.556 284.951 95.0092 284.269C82.3124 283.279 82.9937 283.217 82.9937 285.756Z" fill="#666364"/>
<path d="M42.6114 295.046L42.7972 305.885H40.4436C39.143 305.823 35.4268 305.575 32.2062 305.266C28.9856 304.956 21.863 304.275 16.4127 303.779C10.9623 303.222 6.13136 302.788 5.75975 302.788C5.26427 302.788 4.95459 303.593 4.95459 304.646C4.95459 305.637 5.20233 306.504 5.45007 306.504C6.06943 306.504 19.943 307.805 85.161 313.937C110.74 316.352 142.08 319.263 154.838 320.44C167.597 321.678 186.735 323.475 197.388 324.466C207.979 325.518 216.836 326.324 217.022 326.324C217.207 326.324 217.393 325.395 217.393 324.218C217.393 322.236 217.269 322.112 214.792 321.74C213.306 321.555 174.658 318.024 128.826 313.937C82.9933 309.787 45.1507 306.318 44.7791 306.195C44.1598 306.009 43.9739 303.222 43.9739 295.046C43.9739 286.809 43.7881 284.207 43.2307 284.207C42.6114 284.207 42.4875 286.685 42.6114 295.046Z" fill="#666364"/>
<path d="M337.548 285.57C337.548 286.809 337.61 286.871 338.787 285.756C339.468 285.136 340.026 284.517 340.026 284.393C340.026 284.331 339.468 284.207 338.787 284.207C337.92 284.207 337.548 284.641 337.548 285.57Z" fill="#666364"/>
<path d="M107.396 285.384C107.954 286.251 115.758 290.525 116.439 290.277C116.749 290.153 114.705 288.915 111.979 287.428C109.254 285.942 107.21 285.013 107.396 285.384Z" fill="#666364"/>
<path d="M305.032 292.321C277.533 300.93 264.341 305.018 240.619 312.388C231.081 315.299 222.906 317.838 222.472 317.962C222.039 318.148 221.791 318.52 222.039 318.891C222.287 319.263 222.968 319.263 223.959 318.891C224.826 318.52 232.568 316.042 241.115 313.379C249.724 310.654 269.667 304.398 285.523 299.382C301.378 294.365 317.543 289.286 321.445 288.109C328.692 285.88 331.355 284.827 329.497 284.889C329.001 284.951 317.977 288.295 305.032 292.321Z" fill="#666364"/>
<path d="M313.394 291.949C301.316 295.789 275.118 304.089 255.174 310.406L218.942 321.802L218.756 323.722C218.633 325.023 218.818 325.704 219.376 325.704C220.181 325.704 237.523 320.068 301.688 299.01C334.514 288.233 337.611 286.994 335.876 285.446C335.629 285.198 325.471 288.109 313.394 291.949Z" fill="#666364"/>
<path d="M337.92 288.419C331.107 295.604 330.736 296.223 330.736 299.32C330.736 301.611 330.921 302.169 331.85 302.107C332.718 302.045 347.21 286.189 346.715 285.756C346.591 285.694 345.352 285.446 343.866 285.26C341.327 284.951 341.141 285.075 337.92 288.419Z" fill="#666364"/>
<path d="M350.245 285.446C350.369 285.694 351.36 286.251 352.413 286.685C353.962 287.304 354.829 287.304 356.934 286.685C358.359 286.251 359.288 285.818 358.916 285.694C357.306 285.26 349.998 285.013 350.245 285.446Z" fill="#666364"/>
<path d="M111.484 285.57C111.67 285.756 113.652 286.933 116.005 288.171C119.845 290.339 120.155 290.401 120.155 289.224C120.155 287.49 117.925 286.127 114.209 285.694C112.537 285.446 111.298 285.384 111.484 285.57Z" fill="#666364"/>
<path d="M159.174 289.782V294.117H160.97C161.899 294.117 164.005 294.303 165.615 294.489L168.464 294.922V305.637C168.464 314.804 168.588 316.414 169.393 316.414C170.199 316.414 170.322 314.556 170.322 303.16C170.322 295.851 170.57 289.162 170.942 288.295C171.623 286.499 171.313 286.437 163.386 285.818L159.174 285.508V289.782Z" fill="#666364"/>
<path d="M174.162 285.88C173.048 286.313 173.853 287.304 175.339 287.304C176.021 287.304 182.214 291.578 189.089 296.78C195.964 302.045 205.564 309.291 210.457 313.008C215.288 316.662 219.375 319.573 219.561 319.449C219.685 319.263 216.279 316.476 211.943 313.193C207.608 309.911 197.574 302.355 189.708 296.347C181.781 290.339 175.215 285.446 175.153 285.508C175.03 285.508 174.596 285.694 174.162 285.88Z" fill="#666364"/>
<path d="M124.181 288.543C126.596 289.967 128.95 291.268 129.445 291.454C129.941 291.64 128.454 290.587 126.039 289.162C123.685 287.738 121.27 286.437 120.774 286.251C120.279 286.066 121.827 287.118 124.181 288.543Z" fill="#666364"/>
<path d="M359.721 294.613C344.733 300.063 336.31 303.407 336.31 303.965C336.31 304.398 336.681 304.646 337.115 304.522C351.174 299.505 384 286.994 384 286.561C384 286.313 383.814 286.065 383.566 286.065C383.257 286.127 372.542 289.967 359.721 294.613Z" fill="#666364"/>
<path d="M45.3369 288.233C45.3369 289.224 45.4608 289.596 45.6466 288.977C45.7705 288.419 45.7705 287.552 45.6466 287.118C45.4608 286.747 45.3369 287.18 45.3369 288.233Z" fill="#666364"/>
<path d="M47.4426 291.144C47.4426 293.622 47.5045 297.647 47.5664 300.001L47.6903 304.398L59.5819 305.513C66.1471 306.133 71.8451 306.814 72.2787 306.938C72.898 307.185 73.0838 305.204 73.0838 297.895C73.0838 289.41 72.96 288.543 72.0309 288.543C69.9871 288.543 53.5742 287.304 50.4774 286.933L47.3806 286.561L47.4426 291.144Z" fill="#666364"/>
<path d="M74.3842 297.09C74.57 302.788 74.7558 307.495 74.8178 307.557C74.8797 307.681 75.2513 307.743 75.561 307.743C75.9326 307.743 76.1803 304.027 76.1803 297.833C76.1803 289.1 76.0565 287.924 75.1274 287.366C74.0745 286.809 74.0126 287.428 74.3842 297.09Z" fill="#666364"/>
<path d="M125.171 286.933C125.791 287.49 132.046 291.02 132.418 291.02C133.161 291.02 132.975 287.676 132.232 287.18C131.613 286.685 124.676 286.499 125.171 286.933Z" fill="#666364"/>
<path d="M134.4 289.72C134.4 292.011 134.524 292.259 135.948 292.259H137.497V302.788C137.497 311.707 137.621 313.317 138.426 313.317C139.231 313.317 139.355 311.769 139.355 303.16C139.355 297.524 139.541 292.816 139.85 292.693C140.098 292.569 142.513 292.631 145.239 292.878C147.964 293.126 150.255 293.25 150.379 293.188C150.503 293.126 148.707 291.826 146.415 290.401C142.947 288.233 141.522 287.738 138.302 287.428L134.4 287.118V289.72Z" fill="#666364"/>
<path d="M145.549 288.109C145.549 288.543 154.343 293.56 154.591 293.312C154.715 293.188 152.919 292.011 150.689 290.649C146.044 287.924 145.549 287.676 145.549 288.109Z" fill="#666364"/>
<path d="M343.308 292.693C340.955 295.356 338.787 297.895 338.539 298.267C338.23 298.886 346.343 296.285 354.828 293.002C356.315 292.507 356.129 292.321 352.289 290.215C350.121 288.915 348.139 287.924 347.954 287.924C347.768 287.924 345.662 290.091 343.308 292.693Z" fill="#666364"/>
<path d="M173.419 302.169V315.795L174.844 316.042C175.587 316.228 184.692 317.095 195.097 317.962C205.502 318.829 214.668 319.696 215.412 319.882C217.765 320.378 216.65 319.325 207.608 312.512C202.963 308.982 193.92 302.169 187.541 297.338C181.161 292.507 175.401 288.543 174.658 288.543C173.419 288.543 173.419 288.853 173.419 302.169Z" fill="#666364"/>
<path d="M77.6672 298.143C77.6672 303.222 77.7911 305.265 77.853 302.602C77.9769 299.939 77.9769 295.789 77.853 293.312C77.7911 290.834 77.6672 293.002 77.6672 298.143Z" fill="#666364"/>
<path d="M79.2773 298.329V307.557L88.1341 308.3C92.9651 308.734 98.4154 309.229 100.212 309.415L103.432 309.787V300.373C103.432 295.232 103.246 291.02 102.999 291.02C102.689 291.02 97.6102 290.587 91.6644 290.091C85.7186 289.596 80.4541 289.162 80.0825 289.162C79.4632 289.162 79.2773 291.392 79.2773 298.329Z" fill="#666364"/>
<path d="M121.765 290.091C121.579 290.711 121.827 291.02 122.57 291.02C123.252 291.02 124.305 291.206 124.924 291.392C125.729 291.64 125.605 291.392 124.49 290.463C122.632 288.915 122.261 288.853 121.765 290.091Z" fill="#666364"/>
<path d="M332.47 290.215C331.727 290.401 331.355 291.082 331.355 292.445C331.355 293.498 331.541 294.117 331.85 293.745C332.098 293.436 332.965 292.445 333.77 291.454C335.257 289.782 335.009 289.534 332.47 290.215Z" fill="#666364"/>
<path d="M370.065 293.25C360.031 297.09 359.845 297.152 359.783 299.32C359.783 300.373 359.412 311.335 359.04 323.722C358.421 341.622 358.483 346.143 359.102 346.143C359.598 346.143 359.845 345.152 359.845 343.17C359.845 341.56 360.031 338.339 360.279 336.047C360.65 331.898 360.712 331.774 363.004 330.597C364.305 329.978 365.543 329.42 365.791 329.42C366.039 329.42 366.039 332.331 365.853 335.986C365.605 341.807 365.667 342.489 366.596 342.303C367.401 342.117 367.587 341.002 367.773 335.242L367.959 328.367L370.127 327.376C371.303 326.819 372.542 326.324 372.914 326.324C373.347 326.324 373.471 328.553 373.347 332.517C373.223 336.791 373.347 338.711 373.843 338.711C374.276 338.711 374.648 335.924 374.896 330.783C375.515 319.387 376.196 291.02 375.887 291.082C375.763 291.144 373.161 292.073 370.065 293.25ZM374.71 298.267C374.71 306.133 374.276 307.681 371.737 308.672C368.826 309.911 368.578 309.849 368.826 307.867C368.95 306.938 369.074 303.717 369.074 300.744L369.136 295.294L371.18 294.427C374.586 292.94 374.71 293.064 374.71 298.267ZM367.278 298.267C367.278 299.567 367.092 302.912 366.844 305.761L366.472 310.902L364.305 311.831C363.128 312.264 361.951 312.698 361.641 312.698C361.022 312.698 360.898 304.956 361.456 300.744C361.827 298.267 362.075 297.833 364.119 297.028C367.278 295.727 367.278 295.727 367.278 298.267ZM374.09 313.565C374.09 315.361 373.905 318.52 373.719 320.626C373.347 324.28 373.223 324.466 371.056 325.271C368.207 326.447 367.711 326.138 368.145 323.289C368.33 322.05 368.454 318.953 368.516 316.414V311.769L370.87 310.778C372.109 310.22 373.347 309.911 373.657 310.035C373.905 310.158 374.09 311.769 374.09 313.565ZM366.41 318.086C366.225 320.687 366.039 323.846 366.039 325.147C366.039 327.315 365.791 327.686 363.561 328.801C362.261 329.482 360.96 330.04 360.774 330.04C360.341 330.04 360.403 319.758 360.836 316.971C361.208 314.742 362.818 313.565 365.667 313.379C366.782 313.317 366.782 313.689 366.41 318.086Z" fill="#666364"/>
<path d="M370.746 295.79C370.56 295.975 370.374 298.701 370.374 301.797C370.374 308.734 371.365 308.177 371.737 301.054C371.985 296.285 371.737 294.799 370.746 295.79Z" fill="#666364"/>
<path d="M373.037 304.027C373.037 305.575 373.161 306.195 373.285 305.389C373.409 304.646 373.409 303.407 373.285 302.602C373.161 301.859 373.037 302.478 373.037 304.027Z" fill="#666364"/>
<path d="M363.314 299.01C363.128 299.32 362.756 301.983 362.57 304.956C362.199 309.477 362.261 310.344 363.004 310.097C363.623 309.911 363.933 308.238 364.181 304.151C364.49 298.948 364.243 297.524 363.314 299.01Z" fill="#666364"/>
<path d="M365.605 304.646C365.605 306.876 365.729 307.743 365.853 306.628C365.977 305.575 365.977 303.717 365.853 302.602C365.729 301.55 365.605 302.417 365.605 304.646Z" fill="#666364"/>
<path d="M370.188 312.512C369.94 312.698 369.755 315.423 369.755 318.52C369.755 325.642 370.808 324.837 371.117 317.467C371.303 312.388 371.117 311.521 370.188 312.512Z" fill="#666364"/>
<path d="M372.356 319.511C372.356 320.687 372.48 321.183 372.666 320.564C372.79 320.006 372.79 319.015 372.666 318.396C372.48 317.838 372.356 318.334 372.356 319.511Z" fill="#666364"/>
<path d="M362.88 315.485C362.632 315.795 362.261 318.52 362.013 321.493C361.703 325.457 361.765 326.943 362.261 326.943C362.632 326.943 363.128 326.572 363.314 326.138C363.747 324.899 363.314 314.742 362.88 315.485Z" fill="#666364"/>
<path d="M364.986 321.678C364.986 324.032 365.11 324.961 365.234 323.66C365.357 322.422 365.357 320.44 365.234 319.325C365.11 318.272 364.986 319.263 364.986 321.678Z" fill="#666364"/>
<path d="M108.015 300.93C108.015 306.195 108.139 308.362 108.201 305.699C108.325 303.098 108.325 298.762 108.201 296.099C108.139 293.498 108.015 295.666 108.015 300.93Z" fill="#666364"/>
<path d="M109.626 300.868V310.158L112.908 310.468C114.643 310.654 119.35 311.087 123.252 311.459C127.153 311.831 131.675 312.264 133.347 312.45L136.258 312.822V303.16C136.258 294.365 136.134 293.498 135.205 293.498C134.586 293.498 129.197 293.064 123.252 292.569C117.306 292.073 111.793 291.64 111.05 291.64C109.626 291.64 109.626 291.702 109.626 300.868Z" fill="#666364"/>
<path d="M301.626 300.434C227.18 324.899 218.88 327.562 216.341 327.562C213.864 327.562 213.678 327.686 213.678 329.173C213.678 330.225 213.987 330.659 214.483 330.535C214.855 330.349 240.929 321.678 272.393 311.211C303.794 300.744 329.497 292.011 329.497 291.887C329.497 291.33 326.772 292.135 301.626 300.434Z" fill="#666364"/>
<path d="M346.962 296.904C337.486 300.311 333.522 302.169 335.442 302.169C336.557 302.231 359.225 293.807 359.225 293.312C359.225 292.569 357.987 292.878 346.962 296.904Z" fill="#666364"/>
<path d="M142.452 303.717C142.452 313.255 142.452 313.317 143.876 313.317C144.619 313.317 149.265 313.751 154.219 314.246C159.174 314.742 164.129 315.175 165.244 315.175H167.226V305.575C167.226 298.329 167.04 295.975 166.483 295.975C166.049 295.975 160.97 295.542 155.148 295.046C149.388 294.551 144.124 294.117 143.566 294.117C142.576 294.117 142.452 294.984 142.452 303.717Z" fill="#666364"/>
<path d="M140.656 295.727C140.656 296.409 140.842 296.595 141.027 296.099C141.213 295.666 141.151 295.108 140.965 294.922C140.78 294.675 140.594 295.046 140.656 295.727Z" fill="#666364"/>
<path d="M268.738 313.813L213.801 332.146L213.429 343.913C213.244 350.417 212.996 370.422 212.872 388.383C212.686 420.837 212.748 422.262 214.668 420.527C214.978 420.28 222.782 416.192 231.948 411.485C241.177 406.778 256.908 398.726 266.942 393.524C276.975 388.321 293.326 379.96 303.174 374.943C313.084 369.926 321.507 365.529 321.94 365.157C322.312 364.847 322.684 363.609 322.684 362.494V360.388L320.206 361.627L317.729 362.866V358.964V355L320.206 353.885C322.56 352.832 322.684 352.646 322.684 350.045C322.684 348.62 322.56 347.382 322.374 347.382C322.188 347.382 321.073 347.815 319.897 348.249L317.729 349.178V345.338C317.729 343.232 317.915 338.773 318.162 335.49L318.534 329.482L320.887 328.553C322.25 327.996 323.303 327.438 323.303 327.253C323.303 327.067 322.312 327.377 321.073 327.872C319.835 328.367 318.72 328.801 318.596 328.801C318.224 328.801 318.348 314.927 318.72 311.893C319.091 309.539 319.401 308.982 321.073 308.238C323.055 307.309 322.808 307.247 320.392 307.991C318.967 308.424 318.967 308.362 318.967 303.222V298.019L321.445 297.276C322.808 296.904 323.922 296.285 323.922 295.975C323.922 295.604 323.86 295.356 323.798 295.418C323.675 295.418 298.9 303.717 268.738 313.813ZM316.49 301.054C316.49 302.169 316.304 304.584 316.057 306.38C315.747 309.415 315.499 309.725 313.517 310.53C312.34 311.026 311.287 311.459 311.164 311.459C311.04 311.459 310.916 309.106 310.916 306.257V301.116L313.269 300.125C316.49 298.824 316.49 298.824 316.49 301.054ZM307.819 307.371V312.574L305.342 313.565C303.979 314.122 302.678 314.556 302.493 314.556C302.369 314.556 302.307 312.14 302.369 309.167L302.555 303.841L304.722 303.036C305.899 302.602 307.076 302.231 307.386 302.231C307.633 302.169 307.819 304.522 307.819 307.371ZM299.024 310.654L298.838 315.98L296.175 316.909C294.689 317.405 293.45 317.653 293.326 317.591C293.264 317.467 293.326 314.927 293.45 312.017L293.698 306.628L295.618 306.009C299.272 304.832 299.21 304.832 299.024 310.654ZM290.229 310.282C290.044 311.335 289.858 313.813 289.858 315.733V319.201L287.071 320.192L284.284 321.245V315.485V309.787L286.327 309.106C290.044 307.929 290.663 308.115 290.229 310.282ZM315.685 325.518C315.437 334.004 315.251 343.046 315.251 345.647V350.478L312.774 351.717C311.473 352.398 310.173 352.956 309.987 352.956C309.553 352.956 309.615 343.046 310.049 337.41C310.42 332.827 310.482 332.765 312.712 331.712C313.951 331.155 314.384 330.845 313.703 331.031C309.987 332.146 310.297 332.951 310.297 322.36V312.636L312.96 311.459C314.384 310.778 315.685 310.22 315.809 310.22C315.933 310.22 315.871 317.095 315.685 325.518ZM280.567 316.971V322.484L277.657 323.475C276.046 324.032 274.684 324.466 274.56 324.466C274.436 324.466 274.436 321.926 274.498 318.767L274.684 313.131L276.851 312.326C280.567 310.964 280.567 310.964 280.567 316.971ZM307.819 315.98C307.819 317.467 307.633 322.05 307.386 326.2L307.014 333.694L304.598 334.685C303.298 335.18 302.059 335.614 301.935 335.614C301.502 335.614 301.564 325.457 301.997 319.944C302.431 315.299 302.431 315.299 304.66 314.37C307.819 313.069 307.819 313.069 307.819 315.98ZM270.658 320.378V326.2L267.747 327.191C266.137 327.748 264.712 328.182 264.464 328.182C264.278 328.182 264.155 327.129 264.217 325.828C264.278 324.589 264.34 321.988 264.402 320.068L264.464 316.662L267.437 315.671C269.047 315.113 270.41 314.618 270.534 314.618C270.596 314.556 270.658 317.157 270.658 320.378ZM298.838 327.129L298.343 337.286L296.113 338.153C294.875 338.649 293.698 339.082 293.388 339.206C293.14 339.33 293.017 334.809 293.078 329.111L293.264 318.767L296.051 317.653C297.6 317.033 298.962 316.662 299.024 316.724C299.148 316.847 299.086 321.493 298.838 327.129ZM260.129 324.094V329.854L257.466 330.907C256.041 331.464 254.493 331.898 254.059 331.898C253.254 331.898 253.068 327.748 253.687 323.041C254.059 320.378 254.245 320.13 256.66 319.263C258.023 318.767 259.386 318.334 259.695 318.334C259.943 318.272 260.129 320.873 260.129 324.094ZM289.858 330.349V340.507L288.186 341.374C287.195 341.869 285.832 342.489 285.027 342.737L283.602 343.17L283.664 332.579L283.788 322.05L286.327 321.121C287.752 320.626 289.115 320.192 289.424 320.192C289.672 320.13 289.858 324.713 289.858 330.349ZM249.476 327.996L249.29 333.942L247.122 334.685C241.796 336.543 242.167 336.667 242.167 333.322C242.167 331.712 242.353 328.863 242.539 327.129C242.973 323.908 242.973 323.846 245.822 322.979C247.37 322.484 248.918 322.112 249.166 322.05C249.414 321.988 249.538 324.651 249.476 327.996ZM280.258 336.667L279.824 344.78L276.975 346.019L274.064 347.32L273.878 344.099C273.817 342.303 273.94 337.41 274.188 333.198L274.684 325.58L277.471 324.466L280.258 323.351L280.444 325.952C280.567 327.315 280.506 332.146 280.258 336.667ZM237.832 331.836V338.029L234.364 339.33C232.444 340.011 230.771 340.507 230.709 340.445C230.586 340.321 230.709 337.472 230.895 334.127L231.329 327.996L234.426 326.881C236.16 326.262 237.584 325.766 237.708 325.766C237.77 325.704 237.832 328.491 237.832 331.836ZM270.348 342.179L269.915 349.116L267.313 350.107C265.889 350.664 264.526 351.098 264.278 351.098C263.969 351.098 263.845 346.205 263.969 340.135L264.155 329.235L267.251 328.182L270.348 327.129L270.534 331.217C270.658 333.446 270.596 338.401 270.348 342.179ZM226.064 336.171V342.241L222.596 343.604C220.676 344.285 219.004 344.904 218.88 344.904C218.756 344.904 218.632 342.055 218.632 338.525V332.146L221.605 331.155C226.25 329.606 226.064 329.358 226.064 336.171ZM259.695 353.018C259.386 353.204 257.899 354.009 256.289 354.69L253.316 355.991V344.657V333.322L256.598 332.084L259.819 330.845L260.005 341.684C260.067 347.691 259.943 352.77 259.695 353.018ZM307.138 343.789C307.076 348.992 306.89 353.575 306.766 353.947C306.457 354.752 301.749 357.044 301.316 356.548C301.13 356.362 301.192 351.779 301.378 346.391L301.811 336.481L304.041 335.49C305.28 334.933 306.518 334.437 306.766 334.437C307.076 334.375 307.262 338.649 307.138 343.789ZM249.352 338.215C249.166 340.011 248.98 345.152 248.98 349.611V357.787L246.379 358.84C244.893 359.397 243.344 360.017 242.911 360.202C242.291 360.45 242.167 358.097 242.291 348.93L242.477 337.348L245.264 336.171C249.662 334.437 249.847 334.499 249.352 338.215ZM298.467 347.506C298.467 352.646 298.281 357.291 298.095 357.725C297.847 358.406 293.388 361.007 292.521 361.007C292.149 361.007 292.335 346.515 292.707 343.232C293.078 340.321 293.264 340.011 295.37 339.144C296.609 338.649 297.847 338.215 298.095 338.153C298.343 338.091 298.529 342.303 298.467 347.506ZM237.832 350.726C237.832 357.044 237.584 362.308 237.337 362.494C237.089 362.618 235.355 363.361 233.62 364.042L230.4 365.343L230.524 353.513L230.709 341.684L233.497 340.507C235.045 339.887 236.655 339.392 237.089 339.392C237.646 339.33 237.832 341.993 237.832 350.726ZM289.61 342.798C289.424 343.356 289.238 348.001 289.238 353.204V362.68L286.142 363.98L283.045 365.281V360.822C283.045 358.344 283.231 353.637 283.478 350.231L283.85 344.161L286.389 342.984C289.486 341.56 290.106 341.56 289.61 342.798ZM226.002 352.151C225.878 356.858 225.755 362.246 225.569 364.104L225.321 367.573L222.162 368.749C220.366 369.431 218.756 370.05 218.508 370.174C217.889 370.422 217.951 349.487 218.57 347.444C218.818 346.453 219.871 345.647 221.729 344.842C226.312 342.984 226.126 342.675 226.002 352.151ZM279.7 366.396C279.329 367.263 274.498 369.864 273.878 369.431C273.631 369.307 273.507 364.414 273.631 358.654L273.817 348.125L276.727 346.948L279.638 345.709L279.824 355.681C279.886 361.131 279.824 365.962 279.7 366.396ZM269.915 360.76L269.729 371.598L266.756 372.899C265.146 373.58 263.659 374.014 263.473 373.828C263.287 373.642 263.349 368.749 263.597 362.927L264.031 352.337L266.57 351.16C267.995 350.478 269.295 349.921 269.605 349.921C269.853 349.859 269.977 354.752 269.915 360.76ZM259.819 355.247C259.695 355.867 259.571 360.884 259.571 366.396L259.509 376.429L256.66 377.73C255.05 378.411 253.564 378.969 253.254 378.969C252.573 378.969 252.573 373.271 253.13 363.671L253.502 356.734L256.351 355.495C259.881 353.947 260.067 353.947 259.819 355.247ZM314.942 358.344C314.818 359.335 314.694 361.069 314.694 362.308C314.632 364.166 314.322 364.662 312.464 365.529C309.429 366.953 309.244 366.891 309.429 364.228C309.491 362.989 309.615 361.317 309.615 360.574C309.677 359.645 310.42 358.778 312.031 357.973C315.066 356.362 315.189 356.362 314.942 358.344ZM248.98 369.864V381.198L245.512 382.871C243.592 383.862 241.92 384.481 241.734 384.357C241.61 384.171 241.672 378.907 241.92 372.651L242.353 361.255L245.512 359.955C247.246 359.211 248.733 358.654 248.857 358.592C248.918 358.53 248.98 363.609 248.98 369.864ZM306.58 364.724C306.58 368.378 306.58 368.44 304.103 369.678C302.802 370.36 301.502 370.917 301.316 370.917C301.13 370.917 301.006 369.121 301.006 366.953V362.989L303.36 362.06C304.598 361.503 305.837 361.069 306.147 361.069C306.395 361.007 306.58 362.68 306.58 364.724ZM237.584 369.183C237.398 372.28 237.213 377.544 237.213 380.827V386.835L234.054 388.197C232.258 388.878 230.647 389.498 230.462 389.498C230.214 389.498 230.09 388.445 230.152 387.144C230.214 385.906 230.338 380.641 230.338 375.562L230.4 366.272L233.682 364.909C235.417 364.228 237.151 363.609 237.46 363.547C237.77 363.485 237.832 365.9 237.584 369.183ZM297.909 368.749V372.775L295.432 374.014C294.131 374.695 292.769 375.253 292.521 375.253C292.273 375.253 292.088 373.457 292.211 371.351C292.459 367.387 292.459 367.387 294.998 366.086C296.423 365.405 297.662 364.786 297.786 364.786C297.847 364.724 297.909 366.52 297.909 368.749ZM225.445 380.393V392.285L221.729 393.957L218.013 395.567L218.137 383.49L218.322 371.413L221.729 369.988C223.587 369.183 225.197 368.502 225.321 368.502C225.383 368.44 225.445 373.828 225.445 380.393ZM288.805 373.518L288.433 377.544L285.77 378.907L283.045 380.207V375.934V371.722L285.956 370.422C287.566 369.74 288.991 369.245 289.053 369.307C289.177 369.369 289.053 371.289 288.805 373.518ZM279.329 377.978V381.942L276.232 383.552L273.135 385.162V380.951V376.739L275.798 375.438C277.223 374.695 278.586 374.076 278.895 374.076C279.143 374.014 279.329 375.81 279.329 377.978ZM269.543 382.871L269.295 386.958L266.26 388.507L263.226 390.117V385.782V381.446L266.198 379.96C267.809 379.155 269.233 378.535 269.419 378.659C269.605 378.783 269.667 380.641 269.543 382.871ZM259.509 387.949V391.975L256.413 393.524C254.74 394.391 253.192 395.072 253.006 395.072C252.82 395.072 252.697 393.152 252.697 390.86V386.649L255.36 385.348C259.324 383.304 259.509 383.428 259.509 387.949ZM248.361 393.09V397.364L245.326 398.974C243.654 399.903 242.167 400.646 241.92 400.646C241.734 400.646 241.548 398.726 241.548 396.311V391.975L244.521 390.489C246.131 389.622 247.618 388.94 247.927 388.878C248.175 388.878 248.361 390.798 248.361 393.09ZM237.213 398.788V403.124L234.921 404.3C229.78 406.84 229.78 406.84 229.78 402.071V397.797L233.063 396.187C234.797 395.258 236.469 394.515 236.779 394.515C237.027 394.453 237.213 396.373 237.213 398.788ZM225.321 404.424L225.135 408.822L221.605 410.742C219.685 411.857 218.013 412.6 217.889 412.414C217.765 412.228 217.765 410.122 217.889 407.707L218.137 403.309L221.295 401.699C223.091 400.832 224.764 400.089 225.011 400.089C225.259 400.027 225.445 402.009 225.321 404.424Z" fill="#666364"/>
<path d="M313.579 301.364C312.403 301.797 312.526 308.115 313.641 308.548C314.323 308.858 314.57 308.053 314.756 305.142C314.942 301.302 314.818 300.93 313.579 301.364Z" fill="#666364"/>
<path d="M305.156 304.46C304.908 304.646 304.723 306.318 304.723 308.176C304.723 310.654 304.97 311.459 305.652 311.459C306.395 311.459 306.581 310.654 306.581 307.743C306.581 304.336 306.209 303.407 305.156 304.46Z" fill="#666364"/>
<path d="M296.114 310.84C296.238 313.441 296.485 314.556 297.105 314.556C297.662 314.556 297.91 313.503 297.91 310.84C297.91 307.867 297.724 307.124 296.919 307.124C296.176 307.124 295.99 307.867 296.114 310.84Z" fill="#666364"/>
<path d="M287.814 310.035C287.629 310.282 287.319 312.14 287.071 314.06C286.7 317.033 286.761 317.653 287.505 317.653C288.186 317.653 288.558 316.662 288.867 314.122C289.239 310.964 288.62 308.672 287.814 310.035Z" fill="#666364"/>
<path d="M312.65 320.75C312.526 326.51 312.65 328.801 313.146 328.801C314.322 328.801 314.446 327.686 314.57 319.944C314.694 313.875 314.57 312.698 313.765 312.698C313.022 312.698 312.836 314.122 312.65 320.75Z" fill="#666364"/>
<path d="M312.589 333.57C312.341 333.756 312.155 337.41 312.155 341.622C312.155 348.001 312.279 349.24 313.084 349.24C313.889 349.24 314.013 347.939 314.013 341.188C314.013 333.818 313.765 332.393 312.589 333.57Z" fill="#666364"/>
<path d="M277.904 313.751C277.657 313.937 277.471 315.795 277.471 317.777C277.471 320.564 277.657 321.369 278.4 321.369C279.143 321.369 279.329 320.502 279.329 317.343C279.329 313.627 278.957 312.698 277.904 313.751Z" fill="#666364"/>
<path d="M305.156 315.609C304.475 316.785 304.413 332.083 305.094 332.331C305.59 332.517 305.899 329.978 306.085 324.342C306.395 316.971 306.085 314.06 305.156 315.609Z" fill="#666364"/>
<path d="M268.366 316.847C267.128 317.281 267.251 324.465 268.49 324.465C269.233 324.465 269.419 323.598 269.419 320.44C269.419 318.21 269.357 316.414 269.295 316.476C269.171 316.476 268.738 316.662 268.366 316.847Z" fill="#666364"/>
<path d="M296.052 321.555C296.052 323.041 295.866 326.819 295.68 329.916C295.308 334.933 295.37 335.614 296.299 335.614C297.167 335.614 297.29 334.685 297.352 328.615C297.352 324.837 297.476 321.059 297.662 320.254C297.848 319.325 297.6 318.891 296.981 318.891C296.299 318.891 296.052 319.635 296.052 321.555Z" fill="#666364"/>
<path d="M257.466 320.564C257.218 320.75 257.032 322.731 257.032 324.899C257.032 327.934 257.218 328.801 257.961 328.801C258.704 328.801 258.89 327.934 258.89 324.466C258.89 320.502 258.519 319.449 257.466 320.564Z" fill="#666364"/>
<path d="M255.36 324.775C255.36 326.819 255.484 327.562 255.608 326.447C255.732 325.333 255.732 323.66 255.608 322.731C255.484 321.802 255.36 322.731 255.36 324.775Z" fill="#666364"/>
<path d="M287.195 322.422C286.575 323.041 286.699 339.206 287.319 339.578C288.062 340.073 288.619 335.242 288.619 328.12C288.619 322.484 288.31 321.245 287.195 322.422Z" fill="#666364"/>
<path d="M246.317 324.28C246.07 324.465 245.884 326.447 245.884 328.615C245.884 331.96 246.07 332.517 246.999 332.517C247.928 332.517 248.113 331.898 248.237 328.182C248.361 324.899 248.175 323.846 247.556 323.846C247.061 323.846 246.503 324.032 246.317 324.28Z" fill="#666364"/>
<path d="M244.211 328.801C244.211 331.031 244.335 331.898 244.459 330.783C244.583 329.73 244.583 327.872 244.459 326.757C244.335 325.704 244.211 326.571 244.211 328.801Z" fill="#666364"/>
<path d="M277.285 330.783C276.542 339.702 276.728 343.666 277.78 343.666C278.524 343.666 278.709 342.737 278.709 338.835C278.709 336.233 278.895 332.208 279.143 329.854C279.453 326.386 279.329 325.704 278.586 325.704C277.842 325.704 277.595 326.881 277.285 330.783Z" fill="#666364"/>
<path d="M235.541 327.996C234.983 328.182 234.736 329.73 234.736 332.579C234.736 335.986 234.921 336.853 235.665 336.853C236.408 336.853 236.594 335.924 236.594 332.207C236.594 329.668 236.532 327.562 236.47 327.624C236.346 327.624 235.912 327.81 235.541 327.996Z" fill="#666364"/>
<path d="M232.32 332.827L232.444 337.162L232.877 333.446C233.125 331.402 233.063 329.482 232.754 329.111C232.506 328.801 232.32 330.473 232.32 332.827Z" fill="#666364"/>
<path d="M268.242 329.358C267.623 329.792 267.313 332.207 267.066 338.525C266.818 345.833 266.942 347.258 267.685 347.567C268.49 347.815 268.676 346.453 268.986 338.525C269.171 333.322 269.295 329.049 269.233 328.987C269.11 328.925 268.676 329.111 268.242 329.358Z" fill="#666364"/>
<path d="M222.658 333.322C222.41 334.127 222.348 336.109 222.472 337.844C222.596 340.135 222.906 340.94 223.773 341.064C224.702 341.25 224.826 340.693 224.826 336.605C224.826 332.889 224.64 331.898 223.897 331.898C223.401 331.898 222.844 332.517 222.658 333.322Z" fill="#666364"/>
<path d="M219.871 337.162C219.871 339.454 220.119 341.188 220.49 341.188C220.862 341.188 221.11 339.454 221.11 337.162C221.11 334.871 220.862 333.136 220.49 333.136C220.119 333.136 219.871 334.871 219.871 337.162Z" fill="#666364"/>
<path d="M257.032 337.286C257.032 339.64 256.846 343.79 256.598 346.577C256.289 350.974 256.351 351.717 257.156 351.717C258.58 351.717 258.89 349.797 258.89 341.002C258.89 334.437 258.766 333.137 257.961 333.137C257.218 333.137 257.032 334.004 257.032 337.286Z" fill="#666364"/>
<path d="M254.802 345.214C254.802 348.93 254.864 350.416 254.988 348.434C255.112 346.452 255.112 343.418 254.988 341.622C254.864 339.825 254.802 341.436 254.802 345.214Z" fill="#666364"/>
<path d="M304.908 336.667C303.979 336.977 303.732 352.956 304.661 352.956C305.218 352.956 306.271 340.011 305.899 337.72C305.775 337.039 305.28 336.543 304.908 336.667Z" fill="#666364"/>
<path d="M246.132 337.658C246.008 338.091 245.946 342.489 246.008 347.382C246.132 353.823 246.379 356.362 246.999 356.548C247.556 356.734 247.742 354.504 247.742 346.824C247.742 340.383 247.494 336.853 247.123 336.853C246.751 336.853 246.317 337.224 246.132 337.658Z" fill="#666364"/>
<path d="M244.088 338.091C244.026 338.277 243.84 342.551 243.716 347.691C243.53 355.619 243.592 356.362 244.088 352.646C244.583 348.992 244.645 337.162 244.088 338.091Z" fill="#666364"/>
<path d="M295.866 340.383C295.247 341.002 295.37 357.291 295.99 357.291C296.485 357.291 297.29 348.62 297.29 342.922C297.29 340.135 296.857 339.392 295.866 340.383Z" fill="#666364"/>
<path d="M234.488 345.957C234.302 348.559 234.116 353.018 234.116 355.867C234.116 360.574 234.24 361.008 235.355 361.008C236.532 361.008 236.594 360.574 236.594 351.098C236.594 343.17 236.408 341.188 235.727 341.188C235.169 341.188 234.798 342.551 234.488 345.957Z" fill="#666364"/>
<path d="M232.134 351.407C231.948 356.486 231.886 360.822 232.01 360.946C232.753 361.689 232.877 359.707 232.753 351.346L232.568 342.117L232.134 351.407Z" fill="#666364"/>
<path d="M286.947 344.099C285.956 344.471 285.77 360.698 286.761 361.317C287.814 361.999 288.062 360.264 287.876 351.965C287.752 345.833 287.505 343.913 286.947 344.099Z" fill="#666364"/>
<path d="M222.782 345.957C222.534 346.143 222.348 350.788 222.348 356.177C222.348 364.476 222.472 365.962 223.277 365.962C224.021 365.962 224.206 364.786 224.206 358.964C224.206 355.186 224.392 350.54 224.578 348.744C224.95 346.143 224.826 345.524 224.083 345.524C223.587 345.524 222.968 345.709 222.782 345.957Z" fill="#666364"/>
<path d="M219.933 356.486C219.995 363.671 220.181 365.467 220.49 363.175C221.233 358.53 221.233 346.762 220.49 346.762C220.119 346.762 219.871 350.355 219.933 356.486Z" fill="#666364"/>
<path d="M276.851 357.043C276.851 363.98 277.037 366.024 277.656 365.838C278.214 365.652 278.462 363.113 278.586 356.796C278.771 349.116 278.709 348.001 277.842 348.001C276.975 348.001 276.851 349.24 276.851 357.043Z" fill="#666364"/>
<path d="M267.375 352.151C267.127 352.337 266.942 356.548 266.942 361.441C266.942 368.873 267.066 370.298 267.871 370.298C268.676 370.298 268.8 368.873 268.8 361.008C268.8 352.522 268.552 350.912 267.375 352.151Z" fill="#666364"/>
<path d="M257.218 356.486C256.598 356.672 256.413 359.212 256.413 366.024C256.413 373.828 256.536 375.253 257.342 375.253C258.147 375.253 258.271 373.766 258.271 365.653C258.271 360.388 258.209 356.053 258.147 356.115C258.023 356.115 257.589 356.301 257.218 356.486Z" fill="#666364"/>
<path d="M254.802 364.414C254.802 368.13 254.864 369.617 254.988 367.635C255.112 365.653 255.112 362.618 254.988 360.822C254.864 359.026 254.802 360.636 254.802 364.414Z" fill="#666364"/>
<path d="M254.617 372.528C254.617 373.209 254.802 373.395 254.988 372.899C255.174 372.466 255.112 371.908 254.926 371.722C254.741 371.475 254.555 371.846 254.617 372.528Z" fill="#666364"/>
<path d="M311.969 359.583C311.164 360.388 311.535 362.865 312.464 362.865C313.084 362.865 313.393 362.246 313.393 361.007C313.393 359.211 312.836 358.654 311.969 359.583Z" fill="#666364"/>
<path d="M245.636 364.786C244.769 373.642 245.326 381.57 246.875 380.084C246.999 379.898 247.308 375.562 247.556 370.422C247.866 362.246 247.804 361.007 246.999 361.007C246.317 361.007 245.946 361.998 245.636 364.786Z" fill="#666364"/>
<path d="M243.654 371.227C243.654 376.305 243.778 378.349 243.84 375.686C243.963 373.023 243.963 368.873 243.84 366.396C243.778 363.918 243.654 366.086 243.654 371.227Z" fill="#666364"/>
<path d="M303.917 363.299C303.05 364.104 303.484 367.201 304.413 367.201C305.032 367.201 305.342 366.52 305.342 365.033C305.342 362.989 304.846 362.37 303.917 363.299Z" fill="#666364"/>
<path d="M234.55 366.396C234.302 366.582 234.116 370.917 234.116 375.996C234.116 383.738 234.24 385.162 235.045 385.162C235.85 385.162 235.974 383.676 235.974 375.562C235.974 366.767 235.727 365.157 234.55 366.396Z" fill="#666364"/>
<path d="M231.762 376.615C231.824 385.658 231.824 385.844 232.32 380.517C233.001 372.218 232.939 367.201 232.258 367.201C231.886 367.201 231.7 370.669 231.762 376.615Z" fill="#666364"/>
<path d="M232.258 387.02C231.701 387.392 231.639 387.64 232.072 387.64C232.444 387.64 233.001 387.33 233.187 387.02C233.683 386.277 233.435 386.277 232.258 387.02Z" fill="#666364"/>
<path d="M295.247 367.635C294.379 368.44 294.813 371.537 295.742 371.537C296.361 371.537 296.671 370.855 296.671 369.369C296.671 367.325 296.176 366.706 295.247 367.635Z" fill="#666364"/>
<path d="M223.215 370.793C222.782 371.041 222.41 374.943 222.162 380.951C221.853 390.303 221.915 390.736 223.029 390.736C224.144 390.736 224.206 390.179 224.206 380.517C224.206 374.881 224.144 370.298 224.082 370.298C223.958 370.298 223.587 370.545 223.215 370.793Z" fill="#666364"/>
<path d="M219.809 372.466C219.561 372.775 219.375 377.235 219.314 382.375C219.19 389.064 219.375 391.48 219.871 390.984C220.304 390.551 220.49 387.144 220.366 381.075C220.243 375.996 219.995 372.094 219.809 372.466Z" fill="#666364"/>
<path d="M219.871 392.595C219.066 393.09 219.066 393.214 219.995 393.214C220.552 393.214 221.233 392.904 221.419 392.595C221.915 391.789 221.109 391.789 219.871 392.595Z" fill="#666364"/>
<path d="M286.08 371.97C286.08 372.28 285.894 373.209 285.771 374.138C285.585 375.438 285.709 375.872 286.452 375.872C287.133 375.872 287.381 375.253 287.381 373.704C287.381 372.527 287.133 371.536 286.762 371.536C286.452 371.536 286.142 371.722 286.08 371.97Z" fill="#666364"/>
<path d="M277.037 376.306C275.861 376.739 275.985 380.827 277.161 380.827C277.843 380.827 278.09 380.146 278.09 378.349C278.09 376.987 278.028 375.872 277.966 375.934C277.843 375.934 277.409 376.12 277.037 376.306Z" fill="#666364"/>
<path d="M266.57 381.694C266.075 383.056 266.508 385.348 267.437 385.658C267.933 385.782 268.181 385.1 268.181 383.366C268.181 380.889 267.252 379.96 266.57 381.694Z" fill="#666364"/>
<path d="M256.599 386.215C255.608 386.587 255.546 389.869 256.475 390.427C257.404 391.046 257.651 390.613 258.085 388.011C258.395 385.844 258.147 385.534 256.599 386.215Z" fill="#666364"/>
<path d="M254.059 389.188C254.059 390.179 254.183 390.551 254.369 389.931C254.493 389.374 254.493 388.507 254.369 388.073C254.183 387.702 254.059 388.135 254.059 389.188Z" fill="#666364"/>
<path d="M254.245 392.595C254.059 392.966 254.307 393.028 254.803 392.842C255.918 392.409 256.103 391.975 255.236 391.975C254.865 391.975 254.431 392.223 254.245 392.595Z" fill="#666364"/>
<path d="M246.008 391.294C244.955 391.913 245.265 395.815 246.379 396.187C246.875 396.311 247.123 395.568 247.123 393.586C247.123 392.037 247.061 390.737 246.999 390.737C246.875 390.737 246.441 390.984 246.008 391.294Z" fill="#666364"/>
<path d="M243.221 393.028C242.973 393.214 242.787 394.143 242.787 394.948C242.787 396.868 243.345 396.435 243.778 394.205C244.026 392.533 243.902 392.285 243.221 393.028Z" fill="#666364"/>
<path d="M243.097 398.169C242.911 398.54 243.159 398.602 243.654 398.416C244.769 397.983 244.955 397.549 244.088 397.549C243.716 397.549 243.283 397.797 243.097 398.169Z" fill="#666364"/>
<path d="M233.93 397.735C233.311 399.345 233.806 401.575 234.921 401.761C235.788 401.947 235.974 401.513 235.974 399.469C235.974 397.735 235.726 396.93 235.107 396.93C234.612 396.93 234.116 397.301 233.93 397.735Z" fill="#666364"/>
<path d="M231.763 400.027C231.763 401.204 231.887 401.699 232.072 401.08C232.196 400.522 232.196 399.531 232.072 398.912C231.887 398.355 231.763 398.85 231.763 400.027Z" fill="#666364"/>
<path d="M231.329 403.743C230.833 404.548 231.639 404.548 232.877 403.743C233.682 403.248 233.682 403.124 232.753 403.124C232.196 403.124 231.515 403.371 231.329 403.743Z" fill="#666364"/>
<path d="M222.163 402.938C221.915 403.124 221.729 404.238 221.729 405.415C221.729 406.964 221.977 407.459 222.844 407.459C223.711 407.459 224.021 406.902 224.083 404.982C224.207 403.247 224.021 402.504 223.402 402.504C222.968 402.504 222.349 402.69 222.163 402.938Z" fill="#666364"/>
<path d="M219.747 404.115C219.437 404.362 219.251 405.415 219.251 406.468C219.251 407.769 219.437 408.14 219.933 407.645C220.304 407.273 220.49 406.22 220.366 405.291C220.242 404.362 219.995 403.867 219.747 404.115Z" fill="#666364"/>
<path d="M219.871 409.317C219.376 409.627 219.128 409.998 219.314 410.184C219.499 410.37 220.181 410.122 220.862 409.627C222.163 408.636 221.358 408.388 219.871 409.317Z" fill="#666364"/>
<path d="M326.09 296.595C325.471 297.586 323.675 360.946 324.232 361.503C324.418 361.689 324.789 361.565 325.099 361.255C325.657 360.698 327.453 298.143 326.895 296.595C326.648 295.851 326.524 295.851 326.09 296.595Z" fill="#666364"/>
<path d="M346.839 302.169C337.424 305.699 335.009 306.38 333.089 306.133L330.735 305.699V307.991V310.22L332.841 309.353C334.018 308.858 335.071 308.548 335.195 308.672C335.319 308.796 335.133 319.139 334.761 331.712L334.142 354.504L331.85 355.743C329.868 356.796 329.497 357.291 329.497 358.964C329.497 360.079 329.682 361.008 329.992 361.008C330.24 361.008 336.433 357.849 343.742 354.009C356.005 347.63 357.058 346.948 357.244 345.276C357.429 343.851 357.244 343.604 356.5 343.913C355.943 344.099 355.076 344.471 354.58 344.657C354.085 344.842 353.651 344.719 353.651 344.347C353.651 343.851 353.032 343.975 351.793 344.595C350.802 345.09 349.749 345.524 349.502 345.524C349.254 345.524 349.068 343.232 349.192 340.383L349.378 335.242L351.669 334.066C353.404 333.075 353.961 332.393 354.147 330.721C354.395 328.491 354.58 328.553 350.74 329.792C349.688 330.102 349.626 329.359 349.873 319.697C350.059 309.168 350.802 305.266 352.537 305.266C353.032 305.266 353.713 305.575 354.147 306.009C354.704 306.566 354.89 306.133 354.89 303.965C354.89 301.488 355.076 301.116 356.748 300.497C357.801 300.125 358.606 299.382 358.606 298.824C358.606 298.267 358.544 297.833 358.482 297.895C358.359 297.895 353.156 299.815 346.839 302.169ZM347.458 308.92C348.201 310.344 348.263 314.432 347.644 324.342L347.272 331.402L345.228 332.393C344.051 332.889 342.999 333.26 342.875 333.075C342.751 332.951 342.813 327.748 343.06 321.617C343.37 311.769 343.556 310.159 344.609 309.044C346.095 307.433 346.591 307.433 347.458 308.92ZM340.583 312.202C340.893 313.008 340.955 318.334 340.769 324.094L340.459 334.499L338.415 335.366C337.3 335.862 336.186 336.233 336 336.233C335.504 336.233 335.69 322.298 336.248 316.786C336.743 312.079 337.362 310.902 339.282 310.84C339.716 310.84 340.273 311.459 340.583 312.202ZM347.086 341.993C346.715 347.134 346.653 347.258 344.609 348.187C343.494 348.744 342.441 348.992 342.317 348.744C342.193 348.497 342.255 346.143 342.441 343.418C342.813 338.649 342.813 338.587 344.98 337.472C346.157 336.853 347.21 336.419 347.334 336.543C347.458 336.667 347.334 339.082 347.086 341.993ZM340.026 345.214V350.479L337.548 351.717L335.071 352.956V347.691V342.427L337.115 341.188C338.168 340.507 339.282 339.95 339.592 339.95C339.84 339.95 340.026 342.303 340.026 345.214Z" fill="#666364"/>
<path d="M346.467 317.653C346.467 321.245 346.529 322.669 346.653 320.873C346.776 319.139 346.776 316.166 346.653 314.37C346.529 312.636 346.467 314.06 346.467 317.653Z" fill="#666364"/>
<path d="M344.609 321.369C344.609 325.952 344.671 327.872 344.795 325.518C344.919 323.227 344.919 319.511 344.795 317.157C344.671 314.866 344.609 316.786 344.609 321.369Z" fill="#666364"/>
<path d="M337.796 319.511C337.796 322.731 337.858 324.094 337.982 322.422C338.106 320.811 338.106 318.21 337.982 316.538C337.858 314.928 337.796 316.29 337.796 319.511Z" fill="#666364"/>
<path d="M339.592 317.653C339.592 319.511 339.716 320.316 339.84 319.325C339.964 318.396 339.964 316.909 339.84 315.918C339.716 314.989 339.592 315.795 339.592 317.653Z" fill="#666364"/>
<path d="M338.973 329.421C338.973 331.65 339.097 332.517 339.221 331.402C339.345 330.35 339.345 328.492 339.221 327.377C339.097 326.324 338.973 327.191 338.973 329.421Z" fill="#666364"/>
<path d="M337.115 329.73C337.115 331.774 337.239 332.517 337.363 331.402C337.487 330.287 337.487 328.615 337.363 327.686C337.239 326.757 337.115 327.686 337.115 329.73Z" fill="#666364"/>
<path d="M345.786 341.498C345.786 343.17 345.91 343.851 346.033 342.86C346.157 341.931 346.157 340.569 346.033 339.764C345.91 339.02 345.786 339.764 345.786 341.498Z" fill="#666364"/>
<path d="M343.928 342.737C343.928 344.78 344.052 345.524 344.175 344.409C344.299 343.294 344.299 341.622 344.175 340.693C344.052 339.764 343.928 340.693 343.928 342.737Z" fill="#666364"/>
<path d="M336.371 348.373C336.371 349.054 336.557 349.24 336.743 348.744C336.929 348.311 336.867 347.753 336.681 347.567C336.495 347.32 336.309 347.691 336.371 348.373Z" fill="#666364"/>
<path d="M45.3369 300.001C45.3369 300.992 45.4608 301.364 45.6466 300.744C45.7705 300.187 45.7705 299.32 45.6466 298.886C45.4608 298.515 45.3369 298.948 45.3369 300.001Z" fill="#666364"/>
<path d="M321.074 299.939C320.578 302.107 321.012 305.451 321.941 305.761C322.498 305.947 322.684 304.956 322.684 302.231C322.684 298.453 321.817 297.152 321.074 299.939Z" fill="#666364"/>
<path d="M357.492 302.788C357.492 303.655 357.616 303.965 357.801 303.531C357.925 303.16 357.925 302.417 357.801 301.983C357.616 301.611 357.492 301.921 357.492 302.788Z" fill="#666364"/>
<path d="M330.983 303.531C330.488 304.275 330.674 304.398 333.089 304.956C334.637 305.265 335.071 305.142 335.071 304.46C335.071 303.407 331.541 302.664 330.983 303.531Z" fill="#666364"/>
<path d="M327.886 312.388C327.886 316.104 327.948 317.591 328.072 315.609C328.196 313.627 328.196 310.592 328.072 308.796C327.948 307 327.886 308.61 327.886 312.388Z" fill="#666364"/>
<path d="M11.7681 309.601C11.7681 311.335 13.2545 311.831 19.51 312.326C28.0571 313.008 34.8081 313.627 61.9358 316.352C119.722 322.112 209.714 330.721 210.891 330.535C212.873 330.226 212.625 327.315 210.581 327.067C208.289 326.819 44.9035 311.583 40.5681 311.211C34.4365 310.654 23.5977 309.601 17.9616 308.982C15.0506 308.61 12.5113 308.362 12.2636 308.362C11.9539 308.362 11.7681 308.92 11.7681 309.601Z" fill="#666364"/>
<path d="M353.218 313.317C353.218 315.857 353.342 316.909 353.466 315.609C353.59 314.37 353.59 312.264 353.466 310.964C353.342 309.725 353.218 310.778 353.218 313.317Z" fill="#666364"/>
<path d="M320.826 316.662C320.826 320.563 320.64 324.156 320.454 324.713C320.207 325.394 320.392 325.704 321.074 325.704C321.631 325.704 322.065 325.642 322.065 325.518C322.127 325.456 322.251 321.864 322.498 317.467C322.808 310.406 322.746 309.601 321.817 309.601C320.95 309.601 320.826 310.53 320.826 316.662Z" fill="#666364"/>
<path d="M333.894 311.211C333.894 311.893 334.08 312.078 334.266 311.583C334.451 311.149 334.389 310.592 334.204 310.406C334.018 310.158 333.832 310.53 333.894 311.211Z" fill="#666364"/>
<path d="M331.726 323.66C330.859 353.761 330.797 354.566 331.354 350.788C331.85 346.7 332.841 310.84 332.407 310.84C332.222 310.84 331.912 316.6 331.726 323.66Z" fill="#666364"/>
<path d="M12.3251 314.68C12.2632 315.485 12.2632 316.228 12.2632 316.414C12.2632 316.6 12.449 328.429 12.6348 342.736C12.8206 357.044 13.1922 373.456 13.378 379.155C13.7496 388.383 13.8735 389.498 14.8025 389.188C15.36 388.94 17.4038 388.383 19.3858 387.825C21.3058 387.268 22.9161 386.649 22.9161 386.401C22.9161 386.153 21.3058 385.782 19.2619 385.534L15.6696 385.1L15.2361 370.112C15.0503 361.875 14.6787 346.205 14.4929 335.304C14.3071 324.404 14.0593 315.175 13.9354 314.742C13.8116 314.37 14.4309 313.875 15.36 313.751C16.6606 313.565 16.5367 313.503 14.7406 313.379C12.6967 313.317 12.3871 313.503 12.3251 314.68Z" fill="#666364"/>
<path d="M356.996 319.511C356.996 322.731 357.058 324.094 357.182 322.422C357.306 320.811 357.306 318.21 357.182 316.538C357.058 314.928 356.996 316.29 356.996 319.511Z" fill="#666364"/>
<path d="M25.1458 318.334C25.2077 320.502 25.5174 336.419 25.7651 353.699C26.0129 374.881 26.3845 385.162 26.818 385.162C27.1896 385.162 28.9238 384.667 30.7819 384.109L34.1264 383.056L33.9406 378.721L33.7548 374.386L31.2774 373.766C29.9148 373.456 28.6142 372.899 28.3664 372.527C28.1187 372.156 27.8709 367.325 27.8709 361.751V351.717L30.8438 351.655L33.7548 351.593L31.0296 351.036C29.5432 350.726 28.2425 350.416 28.1806 350.355C28.1187 350.231 27.809 345.338 27.5613 339.392L27.1277 328.615L32.3303 329.049C41.8683 329.854 42.1161 329.916 42.1161 332.269C42.1161 333.57 42.4258 334.375 42.9213 334.375C43.2929 334.375 46.3277 333.694 49.5483 332.827C54.689 331.526 55.9277 331.402 60.0774 331.898C62.6167 332.269 68.9342 332.951 74.0129 333.446C79.1535 334.004 92.098 335.366 102.813 336.543C113.528 337.658 130.808 339.516 141.213 340.569C151.618 341.684 160.723 342.798 161.528 343.108C162.89 343.604 162.89 343.789 162.89 354.814C162.89 363.423 162.704 366.086 162.085 366.334C161.652 366.458 158.121 366.21 154.343 365.776C150.503 365.281 147.221 365.157 147.035 365.467C146.849 365.715 146.787 365.962 146.911 365.962C148.521 365.962 161.837 367.882 162.333 368.192C162.766 368.44 162.952 372.032 162.89 378.597C162.828 384.047 162.766 389.002 162.828 389.56C162.89 390.241 163.695 390.736 165.12 390.984C167.04 391.356 167.288 391.604 167.102 393.09C166.916 394.576 166.111 395.072 158.679 398.231C150.255 401.823 148.955 402.504 150.689 402.504C151.246 402.504 151.742 403.124 151.866 403.867C151.99 404.982 152.547 405.353 154.034 405.477C155.52 405.601 156.077 406.035 156.201 407.026C156.325 408.078 156.944 408.45 158.555 408.698C159.732 408.884 160.784 409.379 160.784 409.751C160.846 410.184 160.908 410.804 160.97 411.175C160.97 411.485 161.899 411.795 162.89 411.795C164.315 411.795 164.934 412.166 165.368 413.281C165.739 414.272 166.544 414.829 167.969 415.077C169.084 415.263 179.179 416.811 190.328 418.546C201.476 420.28 210.704 421.704 210.828 421.704C211.695 421.704 212.191 332.951 211.324 332.641C211.014 332.579 210.643 349.983 210.395 372.837C210.209 395.01 209.899 413.343 209.714 413.529C209.342 413.838 199.99 412.724 197.079 411.98L195.716 411.671L195.84 371.227L196.026 330.783L192.619 330.411C190.761 330.226 183.391 329.482 176.206 328.801C169.084 328.12 134.524 324.837 99.4064 321.431C64.3509 318.024 33.1974 315.051 30.2864 314.804L24.96 314.432L25.1458 318.334ZM37.2232 316.909L41.8064 317.343L41.9922 323.041L42.178 328.801H40.1961C39.0813 328.801 35.7367 328.491 32.7019 328.12L27.2516 327.376V321.555V315.733L29.9148 316.104C31.4013 316.352 34.6838 316.724 37.2232 316.909ZM67.0761 319.882L69.3677 320.254V326.138V332.084L66.4567 331.65C64.7845 331.464 61.5019 331.093 59.0245 330.907L54.5651 330.473L54.3793 325.704C54.0696 318.334 53.76 318.706 59.6438 319.139C62.4309 319.387 65.7754 319.696 67.0761 319.882ZM93.2129 322.484L97.5483 322.917L97.7342 328.987L97.92 335.118L95.5664 334.747C94.2658 334.561 91.2929 334.251 88.8774 334.066C81.9406 333.446 82.3742 333.88 82.3742 327.191V321.369L85.6567 321.74C87.3909 321.926 90.8593 322.298 93.2129 322.484ZM129.631 326.138L131.923 326.509V332.269C131.923 335.428 131.737 338.153 131.489 338.277C131.179 338.463 129.197 338.339 126.968 338.029C124.738 337.782 121.332 337.348 119.412 337.162L115.819 336.791V330.845V324.899L121.579 325.333C124.676 325.58 128.33 325.89 129.631 326.138ZM153.91 328.491C156.325 328.677 159.298 328.987 160.599 329.173L162.89 329.544V335.304C162.89 338.525 162.643 341.25 162.395 341.436C161.714 341.869 147.221 340.259 146.23 339.702C145.486 339.206 145.239 328.677 145.982 327.934C146.23 327.686 147.159 327.624 148.026 327.81C148.893 327.996 151.556 328.244 153.91 328.491ZM184.877 331.588C187.293 331.774 190.39 332.084 191.876 332.331L194.477 332.641V338.773V344.904L192.186 344.842C190.885 344.842 187.045 344.471 183.639 344.099L177.445 343.356L177.259 337.844C177.074 331.278 177.259 330.535 179.117 330.907C179.923 331.093 182.524 331.402 184.877 331.588ZM193.115 346.143H194.477V358.22V370.298H192.805C191.814 370.298 188.16 369.864 184.568 369.369C180.975 368.873 177.879 368.44 177.631 368.44C177.135 368.44 176.95 345.338 177.445 344.842C177.569 344.656 180.852 344.904 184.692 345.338C188.532 345.709 192.31 346.081 193.115 346.143ZM185.497 370.607C189.523 371.103 193.239 371.536 193.672 371.536C194.292 371.536 194.477 374.2 194.477 383.614V395.691H193.115C192.31 395.691 188.779 395.258 185.187 394.762C181.595 394.267 178.312 393.833 177.941 393.833C177.321 393.833 177.135 390.984 177.135 381.756C177.135 375.129 177.321 369.678 177.631 369.678C177.879 369.678 181.409 370.112 185.497 370.607Z" fill="#666364"/>
<path d="M28.676 321.678C28.676 324.032 28.7999 324.961 28.9238 323.66C29.0476 322.422 29.0476 320.44 28.9238 319.325C28.7999 318.272 28.676 319.263 28.676 321.678Z" fill="#666364"/>
<path d="M31.711 319.015C31.2775 319.449 30.9678 321.059 30.9678 322.669C30.9678 325.518 30.9678 325.518 33.3213 325.952C34.56 326.138 36.7278 326.324 38.0904 326.324H40.5678L40.382 322.669C40.1962 319.511 39.9484 318.953 38.8336 318.644C36.48 318.024 32.5162 318.21 31.711 319.015Z" fill="#666364"/>
<path d="M55.9277 324.466C55.9277 327.005 56.0516 328.058 56.1755 326.757C56.2993 325.519 56.2993 323.413 56.1755 322.112C56.0516 320.873 55.9277 321.926 55.9277 324.466Z" fill="#666364"/>
<path d="M57.6001 324.404C57.6001 326.447 57.7859 328.244 58.0956 328.367C58.3433 328.553 60.6969 328.863 63.3601 329.111L68.1291 329.544V325.58V321.555L64.9085 321.121C63.1124 320.935 60.6969 320.749 59.644 320.749H57.6001V324.404Z" fill="#666364"/>
<path d="M83.7983 327.562C83.7983 330.102 83.9222 331.154 84.0461 329.854C84.17 328.615 84.17 326.509 84.0461 325.209C83.9222 323.97 83.7983 325.023 83.7983 327.562Z" fill="#666364"/>
<path d="M85.4709 327.253C85.4709 331.836 85.0993 331.526 92.4696 332.207L96.6193 332.641V328.491C96.6193 325.766 96.3715 324.342 95.8761 324.218C95.4425 324.032 92.9031 323.784 90.3019 323.598L85.4709 323.227V327.253Z" fill="#666364"/>
<path d="M117.244 330.659C117.244 333.198 117.368 334.251 117.492 332.951C117.616 331.712 117.616 329.606 117.492 328.306C117.368 327.067 117.244 328.12 117.244 330.659Z" fill="#666364"/>
<path d="M118.916 330.659V334.871L122.509 335.242C124.429 335.49 127.092 335.8 128.392 335.986L130.746 336.357L130.56 332.146L130.374 327.872L127.278 327.5C125.605 327.253 123.004 326.943 121.579 326.757L118.916 326.447V330.659Z" fill="#666364"/>
<path d="M149.264 333.632V337.967L151.618 338.339C152.857 338.525 155.52 338.835 157.502 339.02L161.032 339.392V335.118V330.783L157.502 330.411C155.52 330.164 152.857 329.854 151.618 329.668L149.264 329.296V333.632Z" fill="#666364"/>
<path d="M180.232 336.791C180.232 341.807 179.799 341.498 187.85 342.179L193.239 342.551V338.215V333.88L188.47 333.446C185.807 333.26 182.896 332.889 181.967 332.765L180.232 332.393V336.791Z" fill="#666364"/>
<path d="M178.498 334.375C178.498 335.242 178.622 335.552 178.808 335.119C178.932 334.747 178.932 334.004 178.808 333.57C178.622 333.199 178.498 333.508 178.498 334.375Z" fill="#666364"/>
<path d="M178.56 338.711C178.56 340.259 178.684 340.878 178.808 340.073C178.931 339.33 178.931 338.091 178.808 337.286C178.684 336.543 178.56 337.162 178.56 338.711Z" fill="#666364"/>
<path d="M178.622 356.362C178.622 362.122 178.746 364.6 178.808 361.813C178.932 359.026 178.932 354.257 178.808 351.284C178.746 348.311 178.622 350.54 178.622 356.362Z" fill="#666364"/>
<path d="M180.232 356.362V366.396L182.585 366.768C183.824 367.015 186.735 367.325 189.089 367.573L193.3 368.006L193.115 357.849L192.929 347.691L188.903 347.258C186.673 347.01 183.824 346.7 182.585 346.577L180.232 346.267V356.362Z" fill="#666364"/>
<path d="M180.232 381.384V391.294L182.276 391.666C185.125 392.161 192.309 393.09 192.433 392.966C192.495 392.904 192.619 388.445 192.681 382.995L192.805 373.085L189.46 372.651C187.602 372.466 184.815 372.094 183.205 371.908L180.232 371.475V381.384Z" fill="#666364"/>
<path d="M16.4749 328.12C16.5987 335.118 16.9084 350.54 17.0942 362.308L17.4658 383.8L20.8723 384.233C22.7304 384.481 24.4026 384.481 24.5884 384.295C24.8981 383.985 23.7833 316.414 23.4116 316.104C23.2878 316.042 21.6774 315.795 19.7574 315.671L16.2891 315.423L16.4749 328.12Z" fill="#666364"/>
<path d="M333.46 325.085C333.46 330.721 333.584 333.013 333.646 330.164C333.77 327.376 333.77 322.793 333.646 319.944C333.584 317.157 333.46 319.449 333.46 325.085Z" fill="#666364"/>
<path d="M351.36 319.201C351.36 321.245 351.484 321.988 351.608 320.873C351.731 319.759 351.731 318.086 351.608 317.157C351.484 316.228 351.36 317.157 351.36 319.201Z" fill="#666364"/>
<path d="M369.135 334.499C369.135 341.436 370.064 341.064 370.684 333.88C370.993 329.482 370.931 328.801 370.126 328.801C369.321 328.801 369.135 329.73 369.135 334.499Z" fill="#666364"/>
<path d="M321.012 329.854C320.021 330.226 319.897 345.214 320.826 345.833C321.879 346.515 322.127 344.78 321.941 337.1C321.817 331.464 321.569 329.668 321.012 329.854Z" fill="#666364"/>
<path d="M327.267 335.304C327.267 338.711 327.329 340.011 327.453 338.215C327.577 336.419 327.577 333.632 327.453 332.022C327.329 330.411 327.267 331.898 327.267 335.304Z" fill="#666364"/>
<path d="M28.9238 339.144C29.1096 344.223 29.3573 348.435 29.4812 348.558C29.6051 348.682 29.729 344.595 29.729 339.454C29.729 333.756 29.4812 330.04 29.1096 330.04C28.738 330.04 28.676 333.446 28.9238 339.144Z" fill="#666364"/>
<path d="M30.9678 339.454C30.9678 348.372 31.0297 348.62 32.2684 348.62C33.5691 348.62 33.5691 348.434 33.1355 342.798L32.702 337.038L36.7897 335.923C40.6297 334.871 40.8775 334.685 40.8775 333.074C40.8775 331.65 40.5678 331.278 39.5149 331.216C38.7097 331.216 36.48 330.969 34.56 330.721L30.9678 330.287V339.454Z" fill="#666364"/>
<path d="M46.9473 334.809C42.4261 335.986 38.648 336.977 38.5861 337.1C38.4622 337.224 40.0106 337.472 41.9306 337.658C55.8661 339.144 123.314 346.762 124.738 347.072C126.349 347.382 140.718 343.542 142.018 342.427C142.266 342.241 136.506 341.436 129.322 340.693C117.987 339.516 89.8067 336.543 62.679 333.57L55.1228 332.765L46.9473 334.809Z" fill="#666364"/>
<path d="M197.574 371.475L197.512 410.432L202.839 411.175C205.75 411.609 208.289 411.857 208.413 411.733C208.537 411.609 208.785 393.895 209.032 372.404L209.528 333.323L205.626 332.951C203.458 332.703 200.795 332.517 199.68 332.517H197.636L197.574 371.475Z" fill="#666364"/>
<path d="M361.579 335.428C361.517 337.1 361.393 339.578 361.332 341.064C361.27 342.86 361.455 343.666 361.951 343.48C362.88 343.17 363.252 332.517 362.323 332.517C362.013 332.517 361.641 333.818 361.579 335.428Z" fill="#666364"/>
<path d="M356.315 338.401C356.315 340.445 356.439 341.188 356.563 340.073C356.687 338.959 356.687 337.286 356.563 336.357C356.439 335.428 356.315 336.357 356.315 338.401Z" fill="#666364"/>
<path d="M371.675 335.985C371.675 336.667 371.861 336.853 372.047 336.357C372.232 335.923 372.17 335.366 371.985 335.18C371.799 334.933 371.613 335.304 371.675 335.985Z" fill="#666364"/>
<path d="M350.741 338.711C350.741 340.259 350.865 340.878 350.988 340.073C351.112 339.33 351.112 338.091 350.988 337.286C350.865 336.543 350.741 337.162 350.741 338.711Z" fill="#666364"/>
<path d="M364.366 339.33C364.366 340.878 364.49 341.498 364.614 340.693C364.738 339.949 364.738 338.711 364.614 337.906C364.49 337.162 364.366 337.782 364.366 339.33Z" fill="#666364"/>
<path d="M34.6841 346.7C34.6841 351.407 34.8699 361.503 35.1176 369.121L35.4892 383.056L69.9254 387.887C88.8776 390.551 105.105 392.842 106.096 393.028L107.768 393.4V381.198C107.768 367.263 106.901 368.625 115.014 369.74C123.623 370.855 122.632 369.121 122.632 383.304V395.691H124.491H126.349V372.156V348.62L124.986 348.373C124.181 348.187 104.362 345.957 80.826 343.356C57.3525 340.816 37.3473 338.587 36.4183 338.401L34.6841 338.091V346.7ZM49.4247 348.435L58.2196 349.487V352.151C58.2196 353.885 57.9718 354.814 57.4763 354.814C57.0428 354.814 52.7073 354.318 47.8763 353.761C39.7628 352.77 39.0196 352.584 38.9576 351.469C38.9576 350.726 38.8338 349.549 38.648 348.744C38.3383 347.072 38.0905 347.072 49.4247 348.435ZM80.2067 351.593L88.8776 352.646L89.0634 354.69C89.4351 358.406 89.5589 358.406 79.8351 357.167C74.9422 356.61 70.4209 356.115 69.8634 356.053C68.9344 356.053 68.7486 355.495 68.7486 353.265C68.7486 349.983 67.7576 350.107 80.2067 351.593Z" fill="#666364"/>
<path d="M40.3818 349.859C40.3818 350.726 40.5057 351.036 40.6915 350.602C40.8154 350.231 40.8154 349.487 40.6915 349.054C40.5057 348.682 40.3818 348.992 40.3818 349.859Z" fill="#666364"/>
<path d="M42.2399 349.983C42.4257 350.478 44.9032 351.036 48.6812 351.531C56.609 352.46 57.1044 352.46 56.8567 351.593C56.6709 351.16 54.1935 350.54 50.7251 350.045C43.107 349.054 41.9302 349.054 42.2399 349.983Z" fill="#666364"/>
<path d="M70.1113 352.956C70.1113 353.823 70.2352 354.133 70.421 353.699C70.5449 353.328 70.5449 352.584 70.421 352.151C70.2352 351.779 70.1113 352.089 70.1113 352.956Z" fill="#666364"/>
<path d="M72.4644 353.142C72.4644 353.699 74.6941 354.195 79.8966 354.876C85.6566 355.557 87.3289 355.619 87.3289 355C87.3289 354.195 86.3379 354.009 78.4721 352.956C72.4024 352.151 72.4644 352.151 72.4644 353.142Z" fill="#666364"/>
<path d="M332.841 346.143C332.841 350.416 332.903 352.151 333.027 349.983C333.151 347.877 333.151 344.409 333.027 342.241C332.903 340.135 332.841 341.869 332.841 346.143Z" fill="#666364"/>
<path d="M147.407 343.17C147.283 346.7 147.531 363.175 147.716 363.361C147.84 363.485 150.132 363.856 152.795 364.166C155.458 364.476 158.369 364.847 159.36 365.033L161.032 365.281V354.814C161.032 342.736 161.838 344.037 153.91 343.356C151.556 343.17 149.079 342.798 148.521 342.675C147.84 342.489 147.407 342.675 147.407 343.17Z" fill="#666364"/>
<path d="M136.258 345.71L127.897 348.311L127.773 357.911C127.649 363.175 127.773 373.766 128.082 381.508L128.516 395.444L137.063 392.099L145.548 388.755V365.901C145.548 353.328 145.362 343.046 145.115 343.108C144.805 343.108 140.841 344.285 136.258 345.71Z" fill="#666364"/>
<path d="M29.2954 362.06C29.2954 367.263 29.5432 371.537 29.7909 371.537C30.4102 371.537 30.4102 366.086 29.729 358.22C29.2954 353.018 29.2954 353.328 29.2954 362.06Z" fill="#666364"/>
<path d="M31.5869 362.556C31.5869 370.112 31.7108 371.537 32.5159 371.537C33.3211 371.537 33.445 370.112 33.445 362.556C33.445 355 33.3211 353.575 32.5159 353.575C31.7108 353.575 31.5869 355 31.5869 362.556Z" fill="#666364"/>
<path d="M326.586 357.292C326.586 359.521 326.71 360.388 326.833 359.273C326.957 358.221 326.957 356.362 326.833 355.248C326.71 354.195 326.586 355.062 326.586 357.292Z" fill="#666364"/>
<path d="M320.392 355.247C319.215 355.681 319.339 359.149 320.516 359.149C321.135 359.149 321.445 358.468 321.445 356.982C321.445 355.805 321.383 354.814 321.321 354.876C321.197 354.876 320.764 355.062 320.392 355.247Z" fill="#666364"/>
<path d="M147.406 377.049C147.406 382.561 147.406 387.206 147.344 387.454C147.344 387.887 152.114 388.878 158.431 389.684L161.032 389.993V379.588V369.183L159.05 368.873C157.935 368.687 155.334 368.316 153.29 368.13C151.246 367.882 149.079 367.573 148.521 367.449C147.468 367.139 147.406 367.882 147.406 377.049Z" fill="#666364"/>
<path d="M109.069 377.854C109.131 381.694 109.378 386.649 109.626 388.878C109.936 391.913 110.06 390.179 110.121 381.88C110.183 374.943 109.998 370.917 109.626 370.917C109.254 370.917 109.007 373.58 109.069 377.854Z" fill="#666364"/>
<path d="M111.484 381.632V392.471L113.528 392.78C114.581 392.966 116.686 393.338 118.173 393.524L120.774 393.957V383.057C120.774 377.111 120.588 372.094 120.341 371.97C120.031 371.784 117.987 371.475 115.695 371.227L111.484 370.793V381.632Z" fill="#666364"/>
<path d="M20.0669 389.002C11.8915 391.666 4.95468 393.833 4.52113 393.833C4.14952 393.833 3.65403 394.081 3.46823 394.329C3.28242 394.638 13.8734 396.496 26.8798 398.478L50.6011 402.133L62.3069 397.859L74.0128 393.647L105.971 398.231L137.93 402.876L150.07 397.859C156.759 395.072 162.395 392.656 162.58 392.471C162.952 392.161 156.325 390.984 149.822 390.303C146.601 389.993 145.61 390.241 136.815 393.709L127.277 397.487L92.9031 392.595C74.0128 389.869 53.2024 386.896 46.6992 385.906L34.8695 384.171L20.0669 389.002Z" fill="#666364"/>
<path d="M157.935 396.063C148.831 399.841 147.221 400.646 147.592 401.018C147.902 401.328 165.987 393.957 165.987 393.462C165.987 392.842 164.005 393.462 157.935 396.063Z" fill="#666364"/>
<path d="M74.9417 395.629C74.9417 396.001 75.0655 396.311 75.2513 396.311C75.8707 396.311 130.993 404.362 132.666 404.734C133.78 404.92 134.4 405.539 134.524 406.406C134.647 407.459 135.205 407.831 137.187 408.078C139.169 408.326 139.664 408.636 139.664 409.627C139.664 410.556 140.16 410.927 141.832 411.175C143.504 411.423 144.062 411.795 144.186 412.847C144.371 413.962 144.805 414.272 146.229 414.272C147.592 414.272 148.211 414.644 148.645 415.82C149.016 416.749 149.698 417.369 150.441 417.369C152.423 417.369 153.6 418.05 153.6 419.227C153.6 420.094 154.157 420.466 155.644 420.589C157.13 420.713 157.687 421.085 157.811 422.138C157.997 423.253 158.431 423.562 159.855 423.562C161.218 423.562 161.837 423.934 162.271 425.049C162.704 426.164 163.386 426.659 164.872 426.783C166.42 426.907 166.978 427.278 167.102 428.331C167.226 429.322 167.783 429.756 169.269 429.88C170.756 430.004 171.313 430.375 171.437 431.428C171.561 432.295 172.056 432.853 172.738 432.853C173.357 432.853 174.782 433.038 175.835 433.224C177.011 433.472 177.755 433.348 177.755 432.977C177.755 432.605 176.826 432.233 175.773 432.109C174.224 431.986 173.667 431.614 173.543 430.499C173.357 429.384 172.924 429.137 171.251 429.137C169.579 429.137 169.146 428.889 168.96 427.712C168.836 426.659 168.278 426.287 166.606 426.04C164.996 425.792 164.376 425.42 164.253 424.367C164.129 423.377 163.571 422.943 162.085 422.819C160.598 422.695 160.041 422.324 159.917 421.209C159.731 420.156 159.298 419.846 157.873 419.846C156.511 419.846 155.891 419.475 155.458 418.298C155.086 417.369 154.405 416.749 153.662 416.749C151.618 416.749 150.503 416.068 150.503 414.829C150.503 413.962 150.069 413.653 148.645 413.653C147.22 413.653 146.601 413.281 146.167 412.166C145.796 411.175 145.053 410.556 143.876 410.432C142.823 410.308 141.894 409.689 141.398 408.698C140.965 407.831 140.346 407.087 139.974 407.087C139.664 407.026 138.983 406.964 138.487 406.902C137.992 406.902 137.496 406.22 137.373 405.477C137.187 404.177 136.567 403.991 127.587 402.752C111.484 400.522 78.472 395.691 76.6758 395.32C75.6229 395.134 74.9417 395.258 74.9417 395.629Z" fill="#666364"/>
<path d="M0 396.311C0 396.62 0.0619355 396.93 0.185806 396.93C0.247742 396.93 11.2103 398.602 24.4645 400.646C50.2916 404.61 50.7252 404.672 49.8581 403.805C49.4865 403.495 38.7716 401.699 26.0129 399.779C13.2542 397.859 2.16774 396.125 1.42452 396.001C0.619355 395.815 0 395.939 0 396.311Z" fill="#666364"/>
<path d="M61.8114 399.531C56.0514 401.575 51.4062 403.495 51.4062 403.805C51.4062 404.053 53.2643 403.619 55.6179 402.814C63.2979 400.151 72.0308 396.868 73.0217 396.311C75.5611 394.824 71.4733 396.001 61.8114 399.531Z" fill="#666364"/>
<path d="M71.1018 398.664C69.4296 399.16 68.1289 399.779 68.1289 399.965C68.1289 400.151 77.4192 401.699 88.7534 403.371C100.026 405.044 109.811 406.592 110.431 406.716C111.422 406.964 111.546 406.654 111.36 404.92L111.174 402.876L93.2128 400.213C83.365 398.788 75.0037 397.611 74.6321 397.611C74.3225 397.673 72.7121 398.107 71.1018 398.664Z" fill="#666364"/>
<path d="M6.06971 408.512C6.31745 417.245 6.81294 419.475 8.23745 418.05C8.54713 417.74 8.60907 413.405 8.36132 408.45C7.92778 400.584 7.74197 399.407 6.87487 399.407C5.88391 399.407 5.82197 400.275 6.06971 408.512Z" fill="#666364"/>
<path d="M9.53811 402.318C9.72391 403.619 9.90972 407.645 9.90972 411.299C9.90972 415.015 10.0955 417.988 10.4052 417.988C12.1394 417.926 12.3252 416.811 11.9536 408.512C11.582 400.584 11.52 400.027 10.3433 400.027C9.29036 400.027 9.16649 400.337 9.53811 402.318Z" fill="#666364"/>
<path d="M142.018 402.628C140.222 403.309 138.735 404.177 138.735 404.486C138.735 404.796 138.983 404.982 139.231 404.858C139.479 404.734 141.151 404.115 142.947 403.495C144.743 402.814 146.168 402.009 146.168 401.761C146.168 401.08 145.672 401.142 142.018 402.628Z" fill="#666364"/>
<path d="M29.1096 406.282C29.1096 409.441 29.2954 409.999 30.1625 409.813C30.7199 409.689 31.1535 409.441 31.0916 409.131C31.0296 408.884 30.9677 407.459 30.9677 405.973C30.9677 404.115 30.658 403.124 30.0387 402.876C29.2954 402.628 29.1096 403.186 29.1096 406.282Z" fill="#666364"/>
<path d="M112.846 412.847C113.032 422.447 113.032 422.633 114.457 422.819L115.819 423.005V413.467C115.819 403.619 115.695 403.124 113.28 403.124C112.908 403.124 112.784 407.026 112.846 412.847Z" fill="#666364"/>
<path d="M143.752 404.424C142.266 405.106 141.151 405.787 141.337 405.973C141.522 406.096 143.195 405.601 144.991 404.734C146.849 403.929 147.902 403.247 147.406 403.247C146.911 403.186 145.239 403.743 143.752 404.424Z" fill="#666364"/>
<path d="M117.058 413.343C117.058 422.819 117.058 423.005 118.297 422.324C119.474 421.704 119.536 421.147 119.412 412.847C119.226 405.044 119.102 404.053 118.173 403.867C117.12 403.681 117.058 404.424 117.058 413.343Z" fill="#666364"/>
<path d="M120.774 406.22C120.774 408.264 120.588 408.14 127.649 409.255C133.719 410.246 133.904 410.246 133.409 408.202C133.161 407.273 132.914 406.468 132.852 406.344C132.666 406.158 122.199 404.362 121.27 404.362C120.96 404.362 120.774 405.167 120.774 406.22Z" fill="#666364"/>
<path d="M146.477 405.663C143.071 407.088 142.699 407.273 143.195 407.769C143.628 408.264 150.503 405.539 150.503 404.92C150.503 404.177 150.008 404.239 146.477 405.663Z" fill="#666364"/>
<path d="M47.071 415.759C47.071 425.668 47.133 426.04 48.3098 426.04C49.5485 426.04 49.5485 425.73 49.4246 416.006C49.2388 406.964 49.1149 405.911 48.1859 405.725C47.133 405.539 47.071 406.344 47.071 415.759Z" fill="#666364"/>
<path d="M51.2209 406.035C50.9732 406.22 50.7874 410.804 50.7874 416.192C50.7874 425.792 50.7874 425.916 52.088 425.606C53.3267 425.235 53.3886 424.987 53.2028 415.449C52.9551 406.158 52.6454 404.548 51.2209 406.035Z" fill="#666364"/>
<path d="M148.273 407.769C146.601 408.574 145.672 409.255 146.229 409.255C147.716 409.317 152.609 407.087 151.928 406.654C151.618 406.468 150.008 406.964 148.273 407.769Z" fill="#666364"/>
<path d="M150.813 409.317C148.769 410.246 147.345 411.113 147.716 411.113C148.707 411.237 154.839 408.512 154.839 407.955C154.839 407.335 155.149 407.211 150.813 409.317Z" fill="#666364"/>
<path d="M135.143 411.299C135.267 412.662 135.7 413.405 136.444 413.529C137.311 413.714 137.497 413.281 137.497 411.547C137.497 409.689 137.249 409.317 136.196 409.317C135.143 409.317 134.957 409.627 135.143 411.299Z" fill="#666364"/>
<path d="M153.042 410.742C151.184 411.423 150.008 412.166 150.379 412.29C151.37 412.6 156.697 410.556 156.697 409.875C156.697 409.565 156.635 409.317 156.573 409.379C156.449 409.379 154.901 409.998 153.042 410.742Z" fill="#666364"/>
<path d="M155.148 412.414C153.105 413.343 151.742 414.21 152.114 414.21C153.228 414.334 159.174 411.671 159.174 411.113C159.174 410.432 159.484 410.308 155.148 412.414Z" fill="#666364"/>
<path d="M139.231 412.848C139.664 413.033 140.222 412.971 140.408 412.786C140.655 412.6 140.284 412.414 139.602 412.476C138.921 412.476 138.735 412.662 139.231 412.848Z" fill="#666364"/>
<path d="M156.387 414.334C153.105 415.882 155.458 415.82 159.174 414.272C161.342 413.343 161.59 413.095 160.413 413.095C159.546 413.157 157.75 413.653 156.387 414.334Z" fill="#666364"/>
<path d="M160.103 415.449C158.059 416.44 156.635 417.307 157.007 417.307C157.998 417.431 164.129 414.706 164.129 414.148C164.129 413.467 164.315 413.405 160.103 415.449Z" fill="#666364"/>
<path d="M161.652 417.121C159.236 418.112 158.679 418.546 159.794 418.546C161.714 418.484 166.483 416.502 165.616 416.006C165.306 415.82 163.51 416.316 161.652 417.121Z" fill="#666364"/>
<path d="M164.438 418.607C162.395 419.536 161.032 420.404 161.404 420.404C162.518 420.527 168.464 417.864 168.464 417.307C168.464 416.625 168.774 416.502 164.438 418.607Z" fill="#666364"/>
<path d="M165.677 420.404C162.333 422.014 164.748 422.014 168.464 420.465C170.694 419.536 170.942 419.289 169.703 419.289C168.836 419.289 167.04 419.784 165.677 420.404Z" fill="#666364"/>
<path d="M169.084 421.704C167.226 422.695 165.925 423.5 166.173 423.562C167.164 423.562 172.8 420.899 172.8 420.404C172.8 419.722 173.048 419.599 169.084 421.704Z" fill="#666364"/>
<path d="M170.322 423.562C167.473 425.111 169.455 425.173 172.862 423.562C175.091 422.571 175.277 422.324 174.039 422.386C173.171 422.386 171.499 422.881 170.322 423.562Z" fill="#666364"/>
<path d="M173.853 424.615C171.933 425.482 170.322 426.411 170.322 426.721C170.322 426.969 171.933 426.473 173.915 425.606C177.878 423.81 178.064 423.686 177.693 423.315C177.507 423.129 175.835 423.748 173.853 424.615Z" fill="#666364"/>
<path d="M174.968 426.597C173.358 427.402 172.924 427.774 173.729 427.774C175.463 427.836 180.294 425.544 178.684 425.482C178.003 425.482 176.33 425.978 174.968 426.597Z" fill="#666364"/>
<path d="M178.25 427.712C176.268 428.641 174.658 429.57 174.658 429.818C174.658 430.066 176.33 429.57 178.374 428.703C180.418 427.774 182.09 426.845 182.09 426.535C182.09 426.287 182.028 426.04 181.966 426.102C181.842 426.102 180.17 426.845 178.25 427.712Z" fill="#666364"/>
<path d="M179.613 429.756C178.065 430.437 177.383 430.933 178.065 430.933C178.746 430.933 180.542 430.375 182.09 429.756C183.639 429.075 184.32 428.579 183.639 428.579C182.957 428.579 181.161 429.136 179.613 429.756Z" fill="#666364"/>
<path d="M182.276 431.057C180.79 431.738 179.613 432.543 179.613 432.853C179.613 433.286 185.992 430.809 186.983 430.004C187.85 429.26 184.444 430.066 182.276 431.057Z" fill="#666364"/>
</svg>
