<svg width="30" height="30" viewBox="0 0 30 30" fill="none" xmlns="http://www.w3.org/2000/svg">
<path fill-rule="evenodd" clip-rule="evenodd" d="M27.8271 0H2.26143C1.03857 0 0 0.967143 0 2.15857V27.84C0 29.0329 0.681429 30 1.90429 30H27.47C28.6943 30 30 29.0329 30 27.84V2.15857C30 0.967143 29.0514 0 27.8271 0ZM11.4286 11.4286H15.4671V13.4871H15.5114C16.1271 12.3771 17.9457 11.25 20.1943 11.25C24.51 11.25 25.7143 13.5414 25.7143 17.7857V25.7143H21.4286V18.5671C21.4286 16.6671 20.67 15 18.8957 15C16.7414 15 15.7143 16.4586 15.7143 18.8529V25.7143H11.4286V11.4286ZM4.28571 25.7143H8.57143V11.4286H4.28571V25.7143ZM9.10714 6.42857C9.10714 7.90857 7.90857 9.10714 6.42857 9.10714C4.94857 9.10714 3.75 7.90857 3.75 6.42857C3.75 4.94857 4.94857 3.75 6.42857 3.75C7.90857 3.75 9.10714 4.94857 9.10714 6.42857Z" fill="black"/>
</svg>
