<svg width="16" height="16" viewBox="0 0 16 17" fill="none" xmlns="http://www.w3.org/2000/svg">
<g clip-path="url(#clip0_2_3349)">
<path fill-rule="evenodd" clip-rule="evenodd" d="M14.157 1.75763H1.88547C1.2985 1.75763 0.799988 2.22186 0.799988 2.79374V15.1208C0.799988 15.6934 1.12707 16.1576 1.71404 16.1576H13.9856C14.5732 16.1576 15.2 15.6934 15.2 15.1208V2.79374C15.2 2.22186 14.7447 1.75763 14.157 1.75763ZM6.2857 7.24334H8.22422V8.23146H8.24547C8.54102 7.69866 9.41393 7.15763 10.4932 7.15763C12.5648 7.15763 13.1428 8.25751 13.1428 10.2948V14.1005H11.0857V10.6699C11.0857 9.75786 10.7216 8.95763 9.86993 8.95763C8.83587 8.95763 8.34284 9.65774 8.34284 10.807V14.1005H6.2857V7.24334ZM2.85713 14.1005H4.91427V7.24334H2.85713V14.1005ZM5.17142 4.84334C5.17142 5.55374 4.5961 6.12906 3.8857 6.12906C3.1753 6.12906 2.59999 5.55374 2.59999 4.84334C2.59999 4.13294 3.1753 3.55763 3.8857 3.55763C4.5961 3.55763 5.17142 4.13294 5.17142 4.84334Z" fill="#0A66C2"/>
</g>
<defs>
<clipPath id="clip0_2_3349">
<rect width="16" height="16" fill="white" transform="translate(0 0.957642)"/>
</clipPath>
</defs>
</svg>
