<svg width="18" height="18" viewBox="0 0 18 18" fill="none" xmlns="http://www.w3.org/2000/svg">
<path fill-rule="evenodd" clip-rule="evenodd" d="M16.6963 0H1.35686C0.623143 0 0 0.580286 0 1.29514V16.704C0 17.4197 0.408857 18 1.14257 18H16.482C17.2166 18 18 17.4197 18 16.704V1.29514C18 0.580286 17.4309 0 16.6963 0ZM6.85714 6.85714H9.28029V8.09229H9.30686C9.67629 7.42629 10.7674 6.75 12.1166 6.75C14.706 6.75 15.4286 8.12486 15.4286 10.6714V15.4286H12.8571V11.1403C12.8571 10.0003 12.402 9 11.3374 9C10.0449 9 9.42857 9.87514 9.42857 11.3117V15.4286H6.85714V6.85714ZM2.57143 15.4286H5.14286V6.85714H2.57143V15.4286ZM5.46429 3.85714C5.46429 4.74514 4.74514 5.46429 3.85714 5.46429C2.96914 5.46429 2.25 4.74514 2.25 3.85714C2.25 2.96914 2.96914 2.25 3.85714 2.25C4.74514 2.25 5.46429 2.96914 5.46429 3.85714Z" fill="#0A66C2"/>
</svg>
