<svg width="112" height="32" viewBox="0 0 112 32" fill="none" xmlns="http://www.w3.org/2000/svg">
<path d="M69.3413 9.38218C68.0414 8.02699 68.9402 7.64347 70.0024 7.60105C72.414 7.50473 74.8309 7.54229 77.2456 7.51808C78.2814 7.5077 78.4182 8.15243 78.4169 8.98108C78.4059 15.9823 78.4032 22.9835 78.4193 29.9847C78.4215 30.9404 78.2447 31.5592 77.0624 31.5284C74.8342 31.4704 72.6034 31.5104 70.3737 31.5117C69.712 31.5121 68.9875 31.5294 68.7193 30.7945C68.4698 30.1109 69.0972 29.8303 69.5698 29.5773C70.2518 29.2123 70.3586 28.626 70.3577 27.9522C70.3505 22.2407 70.3506 16.5292 70.3428 10.8177C70.342 10.2283 70.1244 9.74389 69.3413 9.38218Z" fill="#242021"/>
<path d="M0.00278163 15.3804C0.301686 10.7062 2.81701 7.71163 6.68896 7.25767C7.2403 7.19303 8.0633 6.75514 8.30104 7.71354C8.45707 8.34256 8.25876 8.84164 7.6671 9.36548C5.28636 11.4733 5.53864 13.003 8.43754 14.4623C10.006 15.2519 11.6655 15.8664 13.2189 16.6816C16.6293 18.4713 18.3263 21.7317 17.7031 25.1008C17.0647 28.5523 14.1106 31.2876 10.4559 31.8055C9.85709 31.8904 9.09756 32.3035 8.91809 31.292C8.80863 30.6751 8.88865 30.2063 9.5889 29.7125C12.6371 27.5629 12.4463 25.9536 9.05132 24.2417C7.64846 23.5343 6.20138 22.9137 4.78878 22.2246C2.00965 20.8689 0.268506 18.7632 0.00278163 15.3804Z" fill="#242021"/>
<path d="M101.782 26.7761C98.8275 21.7696 96.0001 16.9242 93.1403 12.0977C92.6786 11.3185 92.123 10.5789 91.5174 9.90333C91.0265 9.35567 89.7183 9.34749 90.2439 8.17122C90.6162 7.33775 91.5377 7.63698 92.2379 7.60115C99.7917 7.21469 99.7935 7.21962 103.55 13.6751C104.614 15.5031 105.51 17.4509 106.758 19.1441C108.953 22.1208 109.798 25.3667 109.319 28.9669C109.205 29.8275 110.022 31.3539 108.513 31.4011C106.945 31.4501 104.951 32.4352 103.818 30.2939C103.217 29.1571 102.541 28.0591 101.782 26.7761Z" fill="#242021"/>
<path d="M26.1905 7.46832C27.1933 7.47286 27.9362 7.47023 28.679 7.47405C31.6332 7.48922 31.5837 7.4649 30.2559 10.0395C29.9467 10.639 30.0497 11.4723 30.0469 12.1983C30.0304 16.5259 30.0161 20.8537 30.0494 25.1811C30.0624 26.8784 29.6842 28.7254 31.7632 29.7368C32.4168 30.0548 32.2812 30.8992 32.0758 31.5024C31.8454 32.1785 31.1668 31.9615 30.6411 31.9787C25.3763 32.1508 22.1959 29.2437 22.118 24.1003C22.0609 20.326 22.1317 16.5499 22.0921 12.7752C22.0784 11.4674 22.4514 10.1162 20.816 9.1638C19.755 8.54596 20.4133 7.68286 21.4809 7.5896C22.9564 7.46072 24.4467 7.49799 26.1905 7.46832Z" fill="#242021"/>
<path d="M46.8676 10.809C46.9616 9.34589 44.4788 9.42307 45.3834 8.06804C46.0113 7.12755 47.4411 7.56178 48.5245 7.5551C54.8134 7.51634 54.814 7.52625 54.8155 13.816C54.8168 19.0503 54.7607 24.2855 54.8516 29.5182C54.8784 31.0575 54.4768 31.6396 52.8612 31.5337C50.8326 31.4007 48.7885 31.5084 46.7513 31.4911C46.2121 31.4866 45.5882 31.5559 45.3065 30.9358C45.0117 30.2869 45.4011 29.911 45.9561 29.6631C47.2004 29.1075 46.8719 27.9944 46.8749 27.0344C46.8918 21.7083 46.8796 16.3822 46.8676 10.809Z" fill="#242021"/>
<path d="M62.5937 9.73558C67.4295 13.5789 67.3272 22.8054 64.5552 26.9539C63.2912 28.8457 61.6908 30.3078 59.5075 31.0799C58.4669 31.4479 57.1177 32.0329 56.4355 31.1055C55.672 30.0676 57.0351 29.5176 57.7255 28.8214C58.4678 28.0728 58.3694 26.9483 58.3702 25.935C58.3735 22.0739 58.4003 18.2125 58.3599 14.3518C58.3413 12.5639 58.7442 10.6077 56.6658 9.47181C56.0917 9.15806 56.2188 8.44553 56.4041 7.9664C56.5969 7.46783 57.185 7.63307 57.635 7.65101C59.474 7.72432 61.0036 8.54761 62.5937 9.73558Z" fill="#242021"/>
<path d="M36.694 27.9527C37.6622 26.4904 37.8645 25.0618 37.8533 23.5629C37.8292 20.3468 37.8093 17.1299 37.8591 13.9144C37.8876 12.0803 37.6518 10.4262 35.8869 9.38047C35.4859 9.14286 35.1098 8.81561 35.1993 8.28831C35.3236 7.55636 35.991 7.57992 36.5015 7.5623C38.0741 7.508 39.6576 7.4293 41.2212 7.55382C42.5024 7.65586 42.9963 8.48354 41.7739 9.27397C39.8039 10.5478 39.7429 12.3936 39.7415 14.3576C39.739 17.9411 39.7774 21.5263 39.6761 25.1075C39.5906 28.1287 38.1549 30.3636 35.245 31.48C34.7617 31.6654 33.9826 32.3542 33.611 31.3897C33.3577 30.7322 33.2767 29.86 34.2236 29.534C35.1165 29.2265 35.9313 28.8386 36.694 27.9527Z" fill="#242021"/>
<path d="M95.099 31.5055C94.2981 31.5063 93.7366 31.5578 93.1883 31.4956C92.1338 31.3759 90.6964 32.0404 90.1385 30.8568C89.6512 29.8232 91.1708 29.5624 91.6761 28.8561C92.4188 27.8178 92.5295 26.6682 92.5227 25.454C92.5029 21.8761 92.5156 18.298 92.5156 14.4566C93.9272 15.4468 94.3307 16.622 94.3166 18.0392C94.2937 20.3342 94.3359 22.6299 94.3032 24.9246C94.2761 26.818 94.5243 28.4242 96.2757 29.7471C98.0428 31.0819 96.6067 31.3944 95.099 31.5055Z" fill="#242021"/>
<path d="M6.23501 31.8784C4.41325 31.472 2.94932 30.0822 1.11585 31.5156C0.546351 31.9609 0.0228982 31.0854 0.0145448 30.3795C-0.010407 28.2709 0.00453669 26.1618 0.0035204 24.0529C0.00323106 23.4529 0.225115 22.9394 0.825887 22.7824C1.54156 22.5954 1.82301 23.2029 1.98402 23.6991C2.85937 26.3968 4.145 28.6812 6.92132 29.9886C7.64981 30.3316 7.79819 31.5465 6.23501 31.8784Z" fill="#242021"/>
<path d="M109.733 11.2254C108.921 14.2249 109.686 17.0928 109.196 20.021C107.519 18.7562 107.516 17.0664 107.539 15.322C107.568 13.062 107.949 10.7311 105.447 9.19882C104.37 8.53897 104.963 7.79268 106.06 7.62152C106.604 7.53654 107.173 7.50904 107.721 7.56246C109.144 7.7013 111.091 6.8086 111.857 8.18669C112.632 9.58021 110.009 9.66309 109.733 11.2254Z" fill="#242021"/>
<path d="M87.3566 28.221C87.8302 31.0009 86.7411 31.9088 84.2429 31.541C83.2529 31.3952 82.2217 31.5461 81.2117 31.5049C80.6317 31.4811 79.8461 31.731 79.7897 30.7112C79.748 29.9578 80.043 29.4988 80.8139 29.3538C82.7886 28.9823 84.0127 27.7339 84.9138 26.0231C85.2992 25.2913 85.3547 23.9181 86.598 24.2341C87.747 24.5262 87.2626 25.7532 87.349 26.6053C87.3948 27.0567 87.3568 27.5165 87.3566 28.221Z" fill="#242021"/>
<path d="M79.878 9.15138C79.6856 8.07059 79.9615 7.65719 80.9513 7.50177C86.4083 6.64495 87.1786 7.25723 87.0063 12.6296C86.9819 13.3887 87.4052 14.5201 86.3084 14.7418C85.2179 14.9623 85.0931 13.7714 84.8174 13.0675C83.9392 10.825 81.8907 10.1736 79.878 9.15138Z" fill="#242021"/>
<path d="M13.1426 7.98423C13.51 8.13808 13.7382 8.2899 13.8547 8.2296C17.6716 6.25506 16.9071 9.17017 16.8007 11.057C16.7182 12.5207 17.7078 14.8009 16.1372 15.2863C14.1547 15.8991 14.8068 13.2192 13.9295 12.2033C13.1451 11.295 12.4686 10.2991 11.3687 9.75855C10.4249 9.29479 9.26455 8.79182 9.93632 7.61471C10.5334 6.56841 11.5757 7.62527 12.4223 7.72323C12.6025 7.74407 12.7752 7.82828 13.1426 7.98423Z" fill="#242021"/>
<path d="M82.2112 15.2226C83.5664 13.9062 83.9685 14.8573 84.0126 15.8556C84.1136 18.1425 84.06 20.4369 84.0399 22.7279C84.035 23.2866 83.8708 23.8793 83.2289 23.997C82.5531 24.1208 82.2337 23.5584 82.0641 23.0436C81.7422 22.0663 81.3285 21.2116 80.4571 20.5587C79.3122 19.7009 79.418 18.6805 80.4998 17.8662C81.3659 17.2141 81.8866 16.4242 82.2112 15.2226Z" fill="#242021"/>
<path d="M30.2187 2.10963C30.972 3.53508 30.7073 4.61057 29.6432 5.4582C28.8797 6.06631 27.9816 6.2721 27.0558 5.82743C25.5737 5.1156 24.9372 3.85186 25.7213 2.4482C26.8144 0.491128 28.4416 0.552212 30.2187 2.10963Z" fill="#242021"/>
<path d="M32.4505 4.63815C31.9837 2.76011 32.414 1.47627 34.2452 1.08118C35.5489 0.799927 36.6847 1.24993 37.2252 2.51518C37.6973 3.62051 37.5045 4.72482 36.4523 5.46077C34.9836 6.488 33.6722 6.14115 32.4505 4.63815Z" fill="#242021"/>
</svg>
