<svg width="195" height="48" viewBox="0 0 195 48" fill="none" xmlns="http://www.w3.org/2000/svg">
  <path d="M58.7493 6.44141C57.7553 5.40507 58.4426 5.11178 59.2548 5.07935C61.0988 5.00569 62.9468 5.03441 64.7931 5.0159C65.5851 5.00796 65.6897 5.501 65.6887 6.13468C65.6804 11.4886 65.6783 16.8426 65.6906 22.1965C65.6923 22.9273 65.5571 23.4006 64.6531 23.377C62.9494 23.3326 61.2436 23.3633 59.5387 23.3642C59.0327 23.3645 58.4788 23.3777 58.2737 22.8158C58.0829 22.293 58.5627 22.0784 58.924 21.885C59.4455 21.6058 59.5271 21.1575 59.5265 20.6422C59.5209 16.2745 59.521 11.9069 59.5151 7.53919C59.5145 7.08843 59.3481 6.71802 58.7493 6.44141Z" fill="#242021"/>
  <path d="M5.73117 11.0283C5.95972 7.4539 7.883 5.16391 10.8436 4.81676C11.2652 4.76733 11.8945 4.43247 12.0762 5.16537C12.1956 5.6464 12.0439 6.02804 11.5915 6.42864C9.77114 8.04052 9.96404 9.21028 12.1806 10.3263C13.3799 10.9301 14.6488 11.4 15.8366 12.0234C18.4443 13.392 19.7419 15.8853 19.2654 18.4617C18.7772 21.1012 16.5184 23.1929 13.724 23.5889C13.266 23.6538 12.6853 23.9697 12.5481 23.1962C12.4644 22.7245 12.5256 22.366 13.061 21.9884C15.3917 20.3445 15.2458 19.1139 12.6499 17.8047C11.5773 17.2638 10.4708 16.7892 9.39068 16.2622C7.26568 15.2255 5.93435 13.6152 5.73117 11.0283Z" fill="#242021"/>
  <path d="M83.5545 19.7429C81.2952 15.9143 79.1333 12.2089 76.9466 8.518C76.5936 7.92213 76.1688 7.35656 75.7058 6.83994C75.3304 6.42113 74.3302 6.41488 74.732 5.51536C75.0167 4.878 75.7213 5.10682 76.2567 5.07943C82.0325 4.78389 82.0339 4.78766 84.9063 9.72426C85.7197 11.1222 86.4049 12.6117 87.3595 13.9065C89.0377 16.1829 89.6838 18.6651 89.3175 21.4182C89.23 22.0763 89.8553 23.2435 88.7007 23.2797C87.5024 23.3171 85.9776 24.0704 85.1115 22.4329C84.6516 21.5636 84.1347 20.724 83.5545 19.7429Z" fill="#242021"/>
  <path d="M25.755 4.97784C26.5218 4.98132 27.0898 4.97931 27.6578 4.98223C29.9166 4.99383 29.8788 4.97523 28.8635 6.94407C28.6271 7.40251 28.7059 8.03973 28.7037 8.59493C28.6911 11.9043 28.6802 15.2139 28.7056 18.5231C28.7156 19.821 28.4264 21.2335 30.016 22.0069C30.5158 22.2501 30.4122 22.8959 30.255 23.3571C30.0789 23.8742 29.56 23.7082 29.1581 23.7214C25.1325 23.853 22.7006 21.6298 22.6411 17.6966C22.5974 14.8104 22.6515 11.9227 22.6213 9.03611C22.6108 8.03603 22.896 7.00273 21.6455 6.27441C20.8343 5.80194 21.3376 5.14191 22.1539 5.0706C23.2821 4.97204 24.4216 5.00054 25.755 4.97784Z" fill="#242021"/>
  <path d="M41.5653 7.53252C41.6372 6.41366 39.7388 6.47268 40.4305 5.43646C40.9106 4.71725 42.0038 5.04932 42.8322 5.04421C47.6409 5.01457 47.6414 5.02215 47.6425 9.83203C47.6435 13.8348 47.6006 17.8382 47.6701 21.8398C47.6906 23.0169 47.3835 23.462 46.1482 23.381C44.597 23.2793 43.0341 23.3617 41.4764 23.3485C41.0641 23.345 40.587 23.398 40.3716 22.9238C40.1462 22.4276 40.444 22.1401 40.8683 21.9506C41.8198 21.5257 41.5686 20.6745 41.5709 19.9403C41.5838 15.8674 41.5744 11.7944 41.5653 7.53252Z" fill="#242021"/>
  <path d="M53.5899 6.71166C57.2875 9.65072 57.2093 16.7063 55.0898 19.8788C54.1232 21.3255 52.8995 22.4436 51.2301 23.034C50.4344 23.3155 49.4028 23.7628 48.8812 23.0536C48.2974 22.2599 49.3397 21.8393 49.8676 21.3069C50.4352 20.7345 50.3599 19.8745 50.3605 19.0996C50.363 16.147 50.3835 13.1941 50.3527 10.2418C50.3384 8.87452 50.6464 7.37859 49.0572 6.50995C48.6183 6.27002 48.7155 5.72514 48.8572 5.35874C49.0046 4.97747 49.4542 5.10383 49.7983 5.11755C51.2045 5.17361 52.3741 5.8032 53.5899 6.71166Z" fill="#242021"/>
  <path d="M33.7863 20.6426C34.5266 19.5244 34.6813 18.4319 34.6727 17.2856C34.6543 14.8263 34.6391 12.3662 34.6772 9.90731C34.6989 8.5047 34.5186 7.23978 33.1692 6.4401C32.8625 6.25839 32.575 6.00814 32.6434 5.60491C32.7384 5.04517 33.2487 5.06319 33.6391 5.04971C34.8416 5.00819 36.0524 4.948 37.2479 5.04323C38.2275 5.12126 38.6052 5.7542 37.6705 6.35866C36.1642 7.3328 36.1175 8.74428 36.1165 10.2462C36.1146 12.9866 36.1439 15.7283 36.0665 18.4668C36.0011 20.7772 34.9034 22.4862 32.6783 23.34C32.3088 23.4818 31.7131 24.0085 31.4289 23.2709C31.2352 22.7682 31.1733 22.1012 31.8973 21.8518C32.5801 21.6167 33.2031 21.3201 33.7863 20.6426Z" fill="#242021"/>
  <path d="M78.4444 23.3595C77.8319 23.3601 77.4026 23.3995 76.9834 23.3519C76.177 23.2604 75.078 23.7685 74.6514 22.8634C74.2788 22.073 75.4408 21.8735 75.8271 21.3334C76.395 20.5394 76.4796 19.6603 76.4745 18.7318C76.4593 15.9957 76.469 13.2595 76.469 10.3219C77.5484 11.0791 77.8569 11.9778 77.8461 13.0616C77.8286 14.8166 77.8609 16.5721 77.8358 18.3269C77.8151 19.7749 78.0049 21.0031 79.3441 22.0148C80.6952 23.0356 79.5972 23.2745 78.4444 23.3595Z" fill="#242021"/>
  <path d="M10.4965 23.6447C9.10353 23.3339 7.98418 22.2711 6.58225 23.3672C6.1468 23.7077 5.74655 23.0382 5.74017 22.4984C5.72109 20.8859 5.73251 19.2731 5.73174 17.6604C5.73151 17.2016 5.90117 16.8088 6.36054 16.6888C6.90776 16.5458 7.12297 17.0104 7.24608 17.3898C7.9154 19.4528 8.89842 21.1997 11.0213 22.1995C11.5783 22.4618 11.6918 23.3909 10.4965 23.6447Z" fill="#242021"/>
  <path d="M89.6342 7.85098C89.0132 10.1447 89.5979 12.3379 89.2234 14.5771C87.9412 13.6098 87.9388 12.3177 87.956 10.9837C87.9783 9.2554 88.2701 7.47293 86.3568 6.30119C85.5329 5.79659 85.9869 5.22589 86.8253 5.095C87.2415 5.03002 87.6768 5.00899 88.0954 5.04984C89.1832 5.15601 90.6722 4.47335 91.2583 5.5272C91.8509 6.59284 89.8447 6.65623 89.6342 7.85098Z" fill="#242021"/>
  <path d="M72.5243 20.8478C72.8865 22.9736 72.0537 23.6679 70.1434 23.3866C69.3865 23.2752 68.598 23.3906 67.8257 23.359C67.3823 23.3409 66.7816 23.532 66.7384 22.752C66.7066 22.1759 66.9321 21.8249 67.5216 21.714C69.0315 21.43 69.9675 20.4753 70.6565 19.167C70.9512 18.6074 70.9936 17.5573 71.9442 17.799C72.8228 18.0223 72.4524 18.9606 72.5185 19.6122C72.5535 19.9574 72.5244 20.309 72.5243 20.8478Z" fill="#242021"/>
  <path d="M66.8059 6.26491C66.6589 5.43841 66.8698 5.12228 67.6267 5.00343C71.7992 4.3482 72.3882 4.81642 72.2564 8.92478C72.2378 9.50527 72.5614 10.3705 71.7228 10.54C70.889 10.7086 70.7936 9.79795 70.5828 9.25962C69.9112 7.54472 68.345 7.04664 66.8059 6.26491Z" fill="#242021"/>
  <path d="M15.7782 5.37237C16.0592 5.49002 16.2336 5.60612 16.3228 5.56001C19.2412 4.05005 18.6567 6.27928 18.5753 7.7222C18.5122 8.84152 19.2689 10.5852 18.068 10.9564C16.5521 11.425 17.0508 9.37568 16.3799 8.59877C15.7801 7.90416 15.2629 7.14255 14.4219 6.72923C13.7002 6.37458 12.813 5.98995 13.3266 5.08979C13.7832 4.28967 14.5802 5.09787 15.2275 5.17278C15.3652 5.18872 15.4973 5.25312 15.7782 5.37237Z" fill="#242021"/>
  <path d="M68.59 10.9076C69.6262 9.90102 69.9336 10.6283 69.9674 11.3917C70.0446 13.1406 70.0036 14.8951 69.9883 16.6471C69.9845 17.0743 69.859 17.5276 69.3681 17.6176C68.8514 17.7123 68.6072 17.2822 68.4775 16.8885C68.2314 16.1412 67.915 15.4876 67.2487 14.9883C66.3733 14.3323 66.4542 13.552 67.2814 12.9293C67.9437 12.4306 68.3418 11.8266 68.59 10.9076Z" fill="#242021"/>
  <path d="M28.8351 0.879964C29.4111 1.97003 29.2087 2.79248 28.395 3.44067C27.8113 3.90571 27.1246 4.06308 26.4166 3.72303C25.2834 3.17868 24.7967 2.21228 25.3962 1.13888C26.2321 -0.357731 27.4763 -0.311019 28.8351 0.879964Z" fill="#242021"/>
  <path d="M30.5416 2.81357C30.1847 1.3774 30.5136 0.395622 31.9139 0.0934898C32.9107 -0.121588 33.7792 0.22254 34.1924 1.19009C34.5534 2.03536 34.406 2.87984 33.6015 3.44264C32.4785 4.22818 31.4758 3.96294 30.5416 2.81357Z" fill="#242021"/>
  <path d="M195 19.7031H97.712V5.12215H195V19.7031Z" fill="#242021"/>
  <path d="M65.027 26.8198C63.3049 27.9429 61.0991 27.7764 59.0476 28.1558C51.6134 29.5308 44.1251 30.6151 36.6699 31.8821C29.2839 33.1373 21.917 34.5027 14.5344 35.7776C9.73081 36.6071 0.00012207 38.1484 0.00012207 38.1484V26.8198C0.00012207 26.8198 44.2272 26.7756 65.027 26.8198Z" fill="#00923F"/>
  <path d="M195 19.7031L195 33.7466C195 33.7466 192.19 34.0939 190.992 34.0943C160.844 34.104 130.696 34.1015 100.548 34.1032C99.4137 34.1032 98.2784 34.0755 96.955 34.1794C94.9684 34.9067 93.04 34.9934 91.0164 35.4643C90.7378 35.5544 90.6247 35.5852 90.3396 35.651C84.2281 36.4681 78.3517 37.6312 72.2761 38.6015C71.7978 38.6721 71.4793 38.6899 71.0164 38.7761C70.7706 38.841 70.6725 38.8669 70.4263 38.9271C70.079 38.9988 69.8784 39.0273 69.5257 39.064C68.1472 39.1016 66.9754 39.4504 65.6302 39.7287C65.3712 39.8047 65.2652 39.8328 64.9953 39.8935C59.9183 40.5616 55.065 41.557 50.1738 42.3248C49.4731 42.4348 48.767 42.4983 47.9058 42.6786C47.1916 42.9015 46.603 42.9025 45.8944 43.1632C45.6117 43.2399 45.4969 43.2665 45.2065 43.3188C39.3566 44.0359 33.772 45.2687 28.1198 46.0955C25.8871 46.422 21.2658 47.1714 21.2658 47.1714L18.7147 47.2295L18.1343 47.3753C18.1343 47.3753 16.9442 47.6486 16.1737 47.7833C15.2929 47.9373 14.4131 47.9999 14.4131 47.9999L0 47.7833L0.00012207 38.1484C0.00012207 38.1484 22.9541 33.6813 30.9107 32.34C41.0307 30.6339 51.1463 28.9016 61.2719 27.2282C62.4591 27.032 63.6869 27.3278 65.0361 26.9033C75.0488 26.8033 97.7119 26.7944 97.7119 26.7944L97.712 19.7031H195Z" fill="#DA251D"/>
  <path d="M194.404 33.5123C194.06 34.2114 193.291 33.9221 192.624 33.9224C160.592 33.9342 128.561 33.929 96.3355 33.9066C96.7855 33.2294 97.6165 33.5006 98.3622 33.5003C130.309 33.4886 162.255 33.4942 194.404 33.5123Z" fill="#DA251D"/>
  <path d="M195 33.6115L97.712 33.5371L14.4131 47.9999L195 48V33.6115Z" fill="#FFCA08"/>
</svg>
