<svg width="16" height="17" viewBox="0 0 16 17" fill="none" xmlns="http://www.w3.org/2000/svg">
<rect x="1" y="1.95764" width="14" height="14" rx="1" fill="#00923F"/>
<path d="M8.27964 4C8.35468 4.00792 8.42387 4.01769 8.49339 4.02341C8.81972 4.05028 9.13756 4.11876 9.45113 4.21023C9.77948 4.306 10.0919 4.43961 10.3924 4.60028C10.6713 4.7494 10.9366 4.9206 11.1762 5.12702C11.3359 5.26463 11.4901 5.4088 11.6429 5.55404C11.7125 5.62016 11.7727 5.69598 11.8424 5.77298C11.863 5.79652 11.8781 5.81446 11.8933 5.83241C11.8933 5.83241 11.8936 5.83172 11.8951 5.83533C11.9117 5.85683 11.9268 5.87473 11.9419 5.89265C11.9419 5.89265 11.9422 5.89196 11.9437 5.89555C11.959 5.91394 11.9728 5.92872 11.9866 5.94352C11.9866 5.94352 11.9873 5.94374 11.9878 5.94746C12 5.96466 12.0115 5.97814 12.0231 5.99163C12.0231 5.99163 12.0237 5.99187 12.0243 5.99563C12.0364 6.01286 12.048 6.02634 12.0596 6.03982C12.0596 6.03982 12.0598 6.03964 12.0606 6.04382C12.081 6.0734 12.1006 6.0988 12.1201 6.12419C12.1201 6.12419 12.1206 6.12448 12.1214 6.12846C12.1264 6.14148 12.1298 6.151 12.1349 6.15948C12.2385 6.3309 12.3504 6.49802 12.4444 6.67443C12.6338 7.02943 12.7705 7.40516 12.8644 7.79612C12.9441 8.12761 12.9879 8.46394 12.9982 8.80404C13.0027 8.95193 12.9989 9.10089 12.986 9.24825C12.9671 9.46478 12.9491 9.68268 12.9085 9.89582C12.8136 10.3938 12.6437 10.8668 12.3993 11.3136C12.2059 11.6671 11.975 11.9938 11.7021 12.2898C11.5031 12.5056 11.2893 12.7079 11.0535 12.885C10.6967 13.1531 10.3143 13.3771 9.89815 13.5441C9.54904 13.6842 9.1895 13.7857 8.81784 13.8433C8.66884 13.8663 8.51829 13.8808 8.36796 13.8936C8.23755 13.9048 8.10628 13.916 7.97572 13.9131C7.80678 13.9093 7.63702 13.8999 7.46966 13.8778C7.24255 13.8478 7.015 13.8135 6.79196 13.7626C6.49511 13.6947 6.20744 13.5949 5.93074 13.4662C5.88031 13.4428 5.83016 13.4216 5.7694 13.4353C5.35911 13.5282 4.94831 13.6189 4.53755 13.7098C4.24078 13.7754 3.94362 13.8394 3.64701 13.9057C3.51591 13.9351 3.38574 13.9684 3.25515 14C3.23828 14 3.2214 14 3.19756 13.9961C3.18674 13.9723 3.17689 13.9513 3.17992 13.9324C3.21592 13.7077 3.2539 13.4834 3.29124 13.259C3.34137 12.9577 3.39086 12.6564 3.44161 12.3553C3.49601 12.0326 3.55228 11.7102 3.60534 11.3872C3.61015 11.358 3.60546 11.3219 3.59184 11.2958C3.43472 10.9948 3.30275 10.6838 3.20742 10.358C3.1129 10.035 3.04794 9.70655 3.02327 9.3706C3.02183 9.35104 3.00804 9.33235 3 9.31325C3 9.29652 3 9.27978 3.0033 9.25431C3.00441 9.19986 3.00221 9.15414 3 9.10843C3 8.99171 3 8.875 3.00324 8.74963C3.00433 8.71888 3.00216 8.6968 3 8.6747C3 8.65405 3 8.63339 3.00362 8.60459C3.01284 8.57757 3.02125 8.55902 3.02358 8.53976C3.0413 8.39319 3.05005 8.2451 3.07612 8.10005C3.17234 7.56492 3.34791 7.05711 3.61178 6.57882C3.8409 6.16351 4.12608 5.79053 4.45907 5.45383C4.59136 5.32006 4.73755 5.199 4.88355 5.07951C5.11411 4.89081 5.36314 4.72807 5.62759 4.58931C5.93141 4.4299 6.24553 4.2954 6.57682 4.20151C6.88538 4.11405 7.19758 4.0474 7.51827 4.02334C7.58786 4.01812 7.65705 4.00792 7.72643 4C7.90894 4 8.09145 4 8.27964 4ZM7.20644 4.94919C6.71465 5.03982 6.25921 5.2233 5.83546 5.48414C5.47858 5.70381 5.16324 5.97211 4.88836 6.28829C4.68323 6.52423 4.50661 6.77853 4.35939 7.05298C4.19085 7.36712 4.0608 7.69696 3.98904 8.04563C3.94366 8.26613 3.90864 8.49022 3.89101 8.71439C3.87664 8.89727 3.88437 9.08364 3.90153 9.26669C3.92105 9.47478 3.95095 9.68328 3.99582 9.8874C4.09198 10.3249 4.26869 10.7316 4.50441 11.1135C4.51653 11.1331 4.5224 11.1621 4.51878 11.1847C4.5012 11.2951 4.47901 11.4048 4.45914 11.5148C4.4006 11.839 4.34283 12.1633 4.28385 12.4875C4.25858 12.6263 4.23107 12.7649 4.20293 12.9121C4.22615 12.9102 4.24142 12.9108 4.2558 12.9076C4.42859 12.8684 4.60141 12.8294 4.77391 12.789C5.15616 12.6995 5.53806 12.6084 5.92073 12.5207C5.95062 12.5138 5.98876 12.5203 6.01726 12.5333C6.14191 12.5897 6.26262 12.6548 6.38803 12.7094C6.83192 12.9027 7.29867 13.0081 7.78113 13.0326C8.002 13.0439 8.22504 13.0262 8.44642 13.0114C8.73737 12.992 9.01928 12.922 9.29521 12.8314C9.54453 12.7495 9.78538 12.6467 10.0137 12.5168C10.2839 12.3631 10.5396 12.1882 10.7664 11.9765C10.9088 11.8436 11.0402 11.6986 11.1704 11.5536C11.3563 11.3465 11.506 11.1137 11.6372 10.8698C11.7677 10.6274 11.8738 10.3747 11.9527 10.111C12.0361 9.8323 12.0901 9.54771 12.1103 9.25833C12.1219 9.09331 12.1177 8.9267 12.1113 8.76114C12.1059 8.61766 12.096 8.4733 12.0731 8.33171C11.9969 7.86002 11.8477 7.41228 11.6124 6.99358C11.3643 6.55214 11.05 6.16601 10.6593 5.84014C10.3625 5.5926 10.041 5.3857 9.68618 5.23004C9.08055 4.96435 8.44928 4.83253 7.78568 4.88042C7.59527 4.89417 7.40602 4.92353 7.20644 4.94919Z" fill="#EAE9E9"/>
<path d="M8.14391 10.0083C8.26341 10.0629 8.37861 10.1161 8.49465 10.1675C8.57324 10.2022 8.6416 10.1711 8.69158 10.1157C8.82722 9.96541 8.95696 9.80987 9.08846 9.65593C9.18305 9.54519 9.2587 9.5221 9.39251 9.58734C9.63889 9.70748 9.88154 9.83517 10.1255 9.96016C10.2098 10.0033 10.292 10.0507 10.3777 10.0909C10.4588 10.129 10.4992 10.1922 10.4946 10.2765C10.4862 10.4305 10.4553 10.5809 10.4034 10.7271C10.3522 10.8714 10.2519 10.9764 10.1325 11.065C9.97135 11.1845 9.79836 11.2851 9.59853 11.3239C9.3638 11.3694 9.12894 11.3583 8.89752 11.2967C8.58509 11.2136 8.28561 11.0956 7.98912 10.9684C7.69405 10.8418 7.42759 10.6694 7.17869 10.4713C6.92029 10.2656 6.688 10.0326 6.4746 9.77999C6.21214 9.46927 5.98302 9.13583 5.77581 8.78817C5.6158 8.51966 5.49648 8.23111 5.46928 7.91658C5.43619 7.53404 5.5207 7.17929 5.77059 6.87636C5.8391 6.79329 5.91897 6.71821 6.0006 6.64736C6.07205 6.58535 6.16264 6.55504 6.25757 6.55574C6.36411 6.55652 6.47077 6.56571 6.57701 6.57521C6.66851 6.58337 6.72935 6.64118 6.76331 6.71917C6.83042 6.87323 6.89096 7.03016 6.95186 7.1868C7.02221 7.36772 7.08816 7.55036 7.15973 7.7308C7.19363 7.81623 7.20145 7.89816 7.14827 7.9764C7.08993 8.06221 7.03085 8.14794 6.96554 8.22849C6.91002 8.29695 6.84428 8.35717 6.78477 8.42257C6.73135 8.48125 6.72484 8.53543 6.77486 8.61553C6.87558 8.7768 6.97624 8.93868 7.08801 9.09237C7.17257 9.20866 7.26893 9.31783 7.36952 9.42106C7.59641 9.65389 7.85448 9.84825 8.14391 10.0083Z" fill="#EAE9E9"/>
</svg>
