<svg width="16" height="17" viewBox="0 0 16 17" fill="none" xmlns="http://www.w3.org/2000/svg">
<path d="M8.34399 2.65784C8.43828 2.66781 8.52521 2.68012 8.61257 2.68733C9.02262 2.72118 9.42199 2.80747 9.81601 2.92272C10.2286 3.04339 10.6212 3.21173 10.9988 3.41416C11.3492 3.60205 11.6825 3.81776 11.9836 4.07784C12.1843 4.25122 12.3781 4.43287 12.5701 4.61586C12.6575 4.69917 12.7331 4.7947 12.8208 4.89172C12.8466 4.92138 12.8656 4.94398 12.8847 4.9666C12.8847 4.9666 12.885 4.96574 12.8869 4.97028C12.9078 4.99737 12.9268 5.01993 12.9458 5.0425C12.9458 5.0425 12.9461 5.04164 12.948 5.04616C12.9672 5.06933 12.9846 5.08795 13.002 5.1066C13.002 5.1066 13.0028 5.10687 13.0035 5.11156C13.0187 5.13324 13.0332 5.15022 13.0478 5.16721C13.0478 5.16721 13.0485 5.16751 13.0492 5.17225C13.0645 5.19396 13.079 5.21094 13.0936 5.22793C13.0936 5.22793 13.0938 5.2277 13.0949 5.23297C13.1205 5.27024 13.1451 5.30224 13.1697 5.33424C13.1697 5.33424 13.1702 5.3346 13.1713 5.33961C13.1776 5.35602 13.1818 5.36801 13.1883 5.3787C13.3185 5.59469 13.459 5.80525 13.5772 6.02752C13.8152 6.47481 13.9869 6.9482 14.1049 7.4408C14.205 7.85847 14.2601 8.28223 14.273 8.71074C14.2786 8.89708 14.2739 9.08477 14.2577 9.27044C14.2339 9.54325 14.2113 9.81779 14.1603 10.0863C14.0411 10.7138 13.8276 11.3098 13.5205 11.8727C13.2775 12.3181 12.9874 12.7298 12.6444 13.1026C12.3943 13.3745 12.1257 13.6294 11.8295 13.8526C11.3811 14.1903 10.9006 14.4727 10.3777 14.6831C9.93903 14.8596 9.48726 14.9875 9.02025 15.06C8.83303 15.0891 8.64385 15.1072 8.45497 15.1234C8.29111 15.1375 8.12616 15.1516 7.9621 15.1479C7.74982 15.1432 7.53651 15.1314 7.32622 15.1035C7.04085 15.0656 6.75492 15.0225 6.47466 14.9583C6.10166 14.8728 5.74019 14.747 5.39251 14.5849C5.32914 14.5554 5.26613 14.5287 5.18978 14.546C4.67424 14.663 4.15805 14.7773 3.64191 14.8918C3.26901 14.9745 2.89563 15.0551 2.52292 15.1387C2.35819 15.1756 2.19463 15.2177 2.03054 15.2575C2.00933 15.2575 1.98813 15.2575 1.95817 15.2526C1.94457 15.2225 1.93221 15.1961 1.93601 15.1723C1.98124 14.8892 2.02897 14.6066 2.07588 14.3238C2.13888 13.9443 2.20106 13.5646 2.26483 13.1852C2.33318 12.7786 2.40388 12.3724 2.47056 11.9655C2.4766 11.9286 2.47071 11.8831 2.45359 11.8502C2.25617 11.471 2.09034 11.0791 1.97056 10.6687C1.85179 10.2618 1.77017 9.84788 1.73917 9.42459C1.73737 9.39994 1.72004 9.37639 1.70993 9.35233C1.70993 9.33125 1.70993 9.31016 1.71408 9.27807C1.71547 9.20946 1.71271 9.15186 1.70993 9.09427C1.70993 8.9472 1.70993 8.80015 1.71401 8.64219C1.71537 8.60345 1.71265 8.57562 1.70993 8.54778C1.70993 8.52176 1.70993 8.49573 1.71448 8.45945C1.72607 8.4254 1.73663 8.40203 1.73956 8.37776C1.76182 8.19309 1.77282 8.0065 1.80558 7.82374C1.92648 7.14949 2.14709 6.50968 2.47865 5.90705C2.76656 5.38377 3.12489 4.91384 3.5433 4.48961C3.70953 4.32106 3.89323 4.16853 4.07668 4.01797C4.36639 3.78022 4.6793 3.57518 5.01159 3.40035C5.39335 3.1995 5.78805 3.03003 6.20433 2.91173C6.59205 2.80153 6.98434 2.71756 7.3873 2.68724C7.47474 2.68067 7.56169 2.66781 7.64886 2.65784C7.87819 2.65784 8.10752 2.65784 8.34399 2.65784ZM6.99547 3.85378C6.37752 3.96797 5.80524 4.19915 5.27279 4.5278C4.82436 4.80457 4.42811 5.14262 4.08272 5.54099C3.82497 5.83827 3.60304 6.15868 3.41805 6.50447C3.20628 6.90028 3.04286 7.31587 2.95269 7.75517C2.89567 8.033 2.85167 8.31534 2.82952 8.59778C2.81146 8.8282 2.82117 9.06303 2.84274 9.29366C2.86726 9.55586 2.90483 9.81855 2.96121 10.0757C3.08204 10.6269 3.30408 11.1394 3.60028 11.6205C3.6155 11.6453 3.62288 11.6818 3.61833 11.7103C3.59624 11.8494 3.56836 11.9876 3.5434 12.1262C3.46984 12.5347 3.39724 12.9433 3.32314 13.3517C3.29138 13.5267 3.25682 13.7012 3.22146 13.8867C3.25063 13.8844 3.26982 13.8851 3.28788 13.881C3.505 13.8317 3.72216 13.7825 3.93891 13.7316C4.41923 13.6188 4.89909 13.5041 5.37993 13.3935C5.41749 13.3849 5.46541 13.3932 5.50123 13.4094C5.65785 13.4805 5.80953 13.5626 5.96711 13.6314C6.52488 13.8749 7.11137 14.0077 7.71759 14.0386C7.99512 14.0528 8.27538 14.0305 8.55355 14.0119C8.91914 13.9874 9.27337 13.8992 9.62008 13.785C9.93336 13.6819 10.236 13.5523 10.523 13.3887C10.8625 13.1951 11.1838 12.9746 11.4687 12.7079C11.6476 12.5404 11.8128 12.3577 11.9764 12.175C12.2099 11.9142 12.398 11.6209 12.5629 11.3135C12.7268 11.0081 12.8602 10.6897 12.9594 10.3574C13.0641 10.0063 13.1319 9.64774 13.1574 9.28313C13.1719 9.07522 13.1666 8.86529 13.1587 8.6567C13.1518 8.47592 13.1394 8.29403 13.1106 8.11563C13.0149 7.52132 12.8274 6.95718 12.5317 6.42963C12.22 5.87344 11.825 5.38693 11.3341 4.97635C10.9611 4.66446 10.5572 4.40376 10.1114 4.20764C9.35036 3.87288 8.55715 3.70679 7.7233 3.76713C7.48405 3.78446 7.24625 3.82145 6.99547 3.85378Z" fill="#00923F"/>
<path d="M8.17344 10.2281C8.32359 10.2968 8.46834 10.3639 8.61415 10.4286C8.7129 10.4724 8.7988 10.4331 8.8616 10.3634C9.03203 10.174 9.19506 9.97803 9.36029 9.78407C9.47915 9.64455 9.5742 9.61545 9.74234 9.69765C10.0519 9.84903 10.3568 10.0099 10.6634 10.1674C10.7693 10.2218 10.8726 10.2815 10.9803 10.3321C11.0822 10.3801 11.1329 10.4597 11.1272 10.566C11.1167 10.76 11.0778 10.9495 11.0126 11.1337C10.9482 11.3155 10.8222 11.4478 10.6722 11.5594C10.4697 11.71 10.2523 11.8368 10.0012 11.8856C9.70626 11.9429 9.41116 11.929 9.12037 11.8514C8.72779 11.7467 8.35148 11.598 7.97893 11.4377C7.60817 11.2782 7.27335 11.0611 6.9606 10.8114C6.63591 10.5522 6.34403 10.2587 6.07588 9.94038C5.74609 9.54888 5.4582 9.12877 5.19783 8.69073C4.99677 8.35242 4.84684 7.98885 4.81266 7.59256C4.77109 7.11057 4.87727 6.6636 5.19127 6.28192C5.27736 6.17725 5.37771 6.08265 5.48029 5.99339C5.57006 5.91526 5.6839 5.87706 5.80318 5.87794C5.93706 5.87893 6.07107 5.89051 6.20457 5.90248C6.31954 5.91277 6.39599 5.9856 6.43866 6.08386C6.52298 6.27798 6.59906 6.4757 6.67557 6.67306C6.76397 6.90102 6.84684 7.13114 6.93678 7.35848C6.97938 7.46612 6.98919 7.56934 6.92237 7.66793C6.84907 7.77604 6.77483 7.88406 6.69277 7.98556C6.62301 8.07181 6.5404 8.14768 6.46562 8.23008C6.39851 8.30402 6.39032 8.37229 6.45318 8.47321C6.57973 8.6764 6.70622 8.88036 6.84666 9.07401C6.9529 9.22053 7.07399 9.35808 7.20038 9.48815C7.48548 9.7815 7.80976 10.0264 8.17344 10.2281Z" fill="#00923F"/>
</svg>
